M48
; DRILL file {KiCad (6.0.9)} date Fri Jan 20 21:16:26 2023
; FORMAT={-:-/ absolute / inch / decimal}
; #@! TF.CreationDate,2023-01-20T21:16:26+01:00
; #@! TF.GenerationSoftware,Kicad,Pcbnew,(6.0.9)
; #@! TF.FileFunction,Plated,1,2,PTH
FMAT,2
INCH
; #@! TA.AperFunction,Plated,PTH,ViaDrill
T1C0.0157
; #@! TA.AperFunction,Plated,PTH,ComponentDrill
T2C0.0197
; #@! TA.AperFunction,Plated,PTH,ComponentDrill
T3C0.0217
; #@! TA.AperFunction,Plated,PTH,ComponentDrill
T4C0.0394
%
G90
G05
T1
X7.5492Y-2.1811
X7.561Y-2.31
X7.5955Y-2.8533
X7.6181Y-2.4626
X7.6516Y-3.0817
X7.7181Y-2.5295
X7.7831Y-2.8082
X7.8071Y-2.3169
X7.85Y-3.2519
X7.9169Y-2.9763
X7.939Y-2.1742
X7.9474Y-2.808
X7.9577Y-2.003
X7.9656Y-2.4144
X7.972Y-2.5
X7.9878Y-2.8504
X7.9996Y-2.4675
X8.0193Y-2.1732
X8.036Y-2.4901
X8.0443Y-2.313
X8.0557Y-2.8326
X8.0646Y-2.9498
X8.0728Y-2.5059
X8.0819Y-3.0736
X8.0961Y-2.81
X8.1059Y-2.3228
X8.1083Y-2.8917
X8.1171Y-2.4508
X8.1305Y-3.0895
X8.1319Y-2.7067
X8.1329Y-2.0128
X8.1374Y-2.1889
X8.1535Y-2.4872
X8.1778Y-3.1565
X8.1959Y-2.8612
X8.2122Y-2.2362
X8.251Y-3.2146
X8.2831Y-2.2834
X8.2861Y-2.3819
X8.287Y-2.3383
X8.2909Y-2.4448
X8.2909Y-2.4921
X8.3278Y-2.8622
X8.3431Y-2.9183
X8.3461Y-2.2637
X8.3894Y-2.0984
X8.3894Y-2.1732
X8.4248Y-2.2677
X8.4406Y-3.0472
X8.4563Y-3.2598
X8.4616Y-1.9646
X8.4917Y-2.3307
X8.4941Y-2.8071
X8.5197Y-1.9606
X8.5246Y-3.0305
X8.5394Y-2.8081
X8.5404Y-2.4961
X8.5429Y-2.0944
X8.5429Y-2.2795
X8.5429Y-2.4094
T4
X7.6925Y-1.7622
X7.6925Y-1.8622
X7.8411Y-1.7598
X7.9411Y-1.7598
X8.0411Y-1.7598
X8.1915Y-1.7612
X8.1915Y-1.8612
X8.2915Y-1.7612
X8.2915Y-1.8612
X8.3915Y-1.7612
X8.3915Y-1.8612
T2
G00X7.9091Y-3.3322
M15
G01X7.9091Y-3.3067
M16
G05
G00X8.1846Y-3.3322
M15
G01X8.1846Y-3.3067
M16
G05
T3
G00X7.9543Y-3.2131
M15
G01X7.9425Y-3.2131
M16
G05
G00X8.1512Y-3.2131
M15
G01X8.1394Y-3.2131
M16
G05
T0
M30
