%TF.GenerationSoftware,KiCad,Pcbnew,(6.0.9)*%
%TF.CreationDate,2023-01-20T21:16:28+01:00*%
%TF.ProjectId,AGH-CLK-01,4147482d-434c-44b2-9d30-312e6b696361,rev?*%
%TF.SameCoordinates,Original*%
%TF.FileFunction,Legend,Bot*%
%TF.FilePolarity,Positive*%
%FSLAX46Y46*%
G04 Gerber Fmt 4.6, Leading zero omitted, Abs format (unit mm)*
G04 Created by KiCad (PCBNEW (6.0.9)) date 2023-01-20 21:16:28*
%MOMM*%
%LPD*%
G01*
G04 APERTURE LIST*
%ADD10C,0.150000*%
%ADD11C,0.125000*%
%ADD12C,0.120000*%
G04 APERTURE END LIST*
D10*
X191140000Y-49199000D02*
X217640000Y-49199000D01*
X217640000Y-49199000D02*
X217640000Y-80199000D01*
X217640000Y-80199000D02*
X191140000Y-80199000D01*
X191140000Y-80199000D02*
X191140000Y-49199000D01*
D11*
X211904285Y-81138285D02*
X212475714Y-81352571D01*
X211904285Y-81566857D01*
D10*
X194942380Y-57946619D02*
X193942380Y-57946619D01*
X193942380Y-58184714D01*
X193990000Y-58327571D01*
X194085238Y-58422809D01*
X194180476Y-58470428D01*
X194370952Y-58518047D01*
X194513809Y-58518047D01*
X194704285Y-58470428D01*
X194799523Y-58422809D01*
X194894761Y-58327571D01*
X194942380Y-58184714D01*
X194942380Y-57946619D01*
X194894761Y-59327571D02*
X194942380Y-59232333D01*
X194942380Y-59041857D01*
X194894761Y-58946619D01*
X194799523Y-58899000D01*
X194418571Y-58899000D01*
X194323333Y-58946619D01*
X194275714Y-59041857D01*
X194275714Y-59232333D01*
X194323333Y-59327571D01*
X194418571Y-59375190D01*
X194513809Y-59375190D01*
X194609047Y-58899000D01*
X194894761Y-59756142D02*
X194942380Y-59851380D01*
X194942380Y-60041857D01*
X194894761Y-60137095D01*
X194799523Y-60184714D01*
X194751904Y-60184714D01*
X194656666Y-60137095D01*
X194609047Y-60041857D01*
X194609047Y-59899000D01*
X194561428Y-59803761D01*
X194466190Y-59756142D01*
X194418571Y-59756142D01*
X194323333Y-59803761D01*
X194275714Y-59899000D01*
X194275714Y-60041857D01*
X194323333Y-60137095D01*
X194942380Y-60613285D02*
X194275714Y-60613285D01*
X193942380Y-60613285D02*
X193990000Y-60565666D01*
X194037619Y-60613285D01*
X193990000Y-60660904D01*
X193942380Y-60613285D01*
X194037619Y-60613285D01*
X194275714Y-61518047D02*
X195085238Y-61518047D01*
X195180476Y-61470428D01*
X195228095Y-61422809D01*
X195275714Y-61327571D01*
X195275714Y-61184714D01*
X195228095Y-61089476D01*
X194894761Y-61518047D02*
X194942380Y-61422809D01*
X194942380Y-61232333D01*
X194894761Y-61137095D01*
X194847142Y-61089476D01*
X194751904Y-61041857D01*
X194466190Y-61041857D01*
X194370952Y-61089476D01*
X194323333Y-61137095D01*
X194275714Y-61232333D01*
X194275714Y-61422809D01*
X194323333Y-61518047D01*
X194275714Y-61994238D02*
X194942380Y-61994238D01*
X194370952Y-61994238D02*
X194323333Y-62041857D01*
X194275714Y-62137095D01*
X194275714Y-62279952D01*
X194323333Y-62375190D01*
X194418571Y-62422809D01*
X194942380Y-62422809D01*
X194942380Y-64137095D02*
X194942380Y-63660904D01*
X193942380Y-63660904D01*
X194942380Y-64899000D02*
X194418571Y-64899000D01*
X194323333Y-64851380D01*
X194275714Y-64756142D01*
X194275714Y-64565666D01*
X194323333Y-64470428D01*
X194894761Y-64899000D02*
X194942380Y-64803761D01*
X194942380Y-64565666D01*
X194894761Y-64470428D01*
X194799523Y-64422809D01*
X194704285Y-64422809D01*
X194609047Y-64470428D01*
X194561428Y-64565666D01*
X194561428Y-64803761D01*
X194513809Y-64899000D01*
X194942380Y-65375190D02*
X193942380Y-65375190D01*
X194323333Y-65375190D02*
X194275714Y-65470428D01*
X194275714Y-65660904D01*
X194323333Y-65756142D01*
X194370952Y-65803761D01*
X194466190Y-65851380D01*
X194751904Y-65851380D01*
X194847142Y-65803761D01*
X194894761Y-65756142D01*
X194942380Y-65660904D01*
X194942380Y-65470428D01*
X194894761Y-65375190D01*
X194037619Y-66994238D02*
X193990000Y-67041857D01*
X193942380Y-67137095D01*
X193942380Y-67375190D01*
X193990000Y-67470428D01*
X194037619Y-67518047D01*
X194132857Y-67565666D01*
X194228095Y-67565666D01*
X194370952Y-67518047D01*
X194942380Y-66946619D01*
X194942380Y-67565666D01*
X193942380Y-68184714D02*
X193942380Y-68279952D01*
X193990000Y-68375190D01*
X194037619Y-68422809D01*
X194132857Y-68470428D01*
X194323333Y-68518047D01*
X194561428Y-68518047D01*
X194751904Y-68470428D01*
X194847142Y-68422809D01*
X194894761Y-68375190D01*
X194942380Y-68279952D01*
X194942380Y-68184714D01*
X194894761Y-68089476D01*
X194847142Y-68041857D01*
X194751904Y-67994238D01*
X194561428Y-67946619D01*
X194323333Y-67946619D01*
X194132857Y-67994238D01*
X194037619Y-68041857D01*
X193990000Y-68089476D01*
X193942380Y-68184714D01*
X194037619Y-68899000D02*
X193990000Y-68946619D01*
X193942380Y-69041857D01*
X193942380Y-69279952D01*
X193990000Y-69375190D01*
X194037619Y-69422809D01*
X194132857Y-69470428D01*
X194228095Y-69470428D01*
X194370952Y-69422809D01*
X194942380Y-68851380D01*
X194942380Y-69470428D01*
X194037619Y-69851380D02*
X193990000Y-69899000D01*
X193942380Y-69994238D01*
X193942380Y-70232333D01*
X193990000Y-70327571D01*
X194037619Y-70375190D01*
X194132857Y-70422809D01*
X194228095Y-70422809D01*
X194370952Y-70375190D01*
X194942380Y-69803761D01*
X194942380Y-70422809D01*
X194418571Y-71613285D02*
X194418571Y-71946619D01*
X194942380Y-72089476D02*
X194942380Y-71613285D01*
X193942380Y-71613285D01*
X193942380Y-72089476D01*
X194942380Y-72518047D02*
X194275714Y-72518047D01*
X193942380Y-72518047D02*
X193990000Y-72470428D01*
X194037619Y-72518047D01*
X193990000Y-72565666D01*
X193942380Y-72518047D01*
X194037619Y-72518047D01*
X194275714Y-72851380D02*
X194275714Y-73232333D01*
X193942380Y-72994238D02*
X194799523Y-72994238D01*
X194894761Y-73041857D01*
X194942380Y-73137095D01*
X194942380Y-73232333D01*
X200544047Y-50427380D02*
X200544047Y-49427380D01*
X200210714Y-50141666D01*
X199877380Y-49427380D01*
X199877380Y-50427380D01*
X198972619Y-50427380D02*
X198972619Y-49903571D01*
X199020238Y-49808333D01*
X199115476Y-49760714D01*
X199305952Y-49760714D01*
X199401190Y-49808333D01*
X198972619Y-50379761D02*
X199067857Y-50427380D01*
X199305952Y-50427380D01*
X199401190Y-50379761D01*
X199448809Y-50284523D01*
X199448809Y-50189285D01*
X199401190Y-50094047D01*
X199305952Y-50046428D01*
X199067857Y-50046428D01*
X198972619Y-49998809D01*
X198067857Y-50427380D02*
X198067857Y-49427380D01*
X198067857Y-50379761D02*
X198163095Y-50427380D01*
X198353571Y-50427380D01*
X198448809Y-50379761D01*
X198496428Y-50332142D01*
X198544047Y-50236904D01*
X198544047Y-49951190D01*
X198496428Y-49855952D01*
X198448809Y-49808333D01*
X198353571Y-49760714D01*
X198163095Y-49760714D01*
X198067857Y-49808333D01*
X197210714Y-50379761D02*
X197305952Y-50427380D01*
X197496428Y-50427380D01*
X197591666Y-50379761D01*
X197639285Y-50284523D01*
X197639285Y-49903571D01*
X197591666Y-49808333D01*
X197496428Y-49760714D01*
X197305952Y-49760714D01*
X197210714Y-49808333D01*
X197163095Y-49903571D01*
X197163095Y-49998809D01*
X197639285Y-50094047D01*
X195972619Y-50427380D02*
X195972619Y-49427380D01*
X195972619Y-49808333D02*
X195877380Y-49760714D01*
X195686904Y-49760714D01*
X195591666Y-49808333D01*
X195544047Y-49855952D01*
X195496428Y-49951190D01*
X195496428Y-50236904D01*
X195544047Y-50332142D01*
X195591666Y-50379761D01*
X195686904Y-50427380D01*
X195877380Y-50427380D01*
X195972619Y-50379761D01*
X195163095Y-49760714D02*
X194925000Y-50427380D01*
X194686904Y-49760714D02*
X194925000Y-50427380D01*
X195020238Y-50665476D01*
X195067857Y-50713095D01*
X195163095Y-50760714D01*
X194305952Y-50332142D02*
X194258333Y-50379761D01*
X194305952Y-50427380D01*
X194353571Y-50379761D01*
X194305952Y-50332142D01*
X194305952Y-50427380D01*
X194305952Y-49808333D02*
X194258333Y-49855952D01*
X194305952Y-49903571D01*
X194353571Y-49855952D01*
X194305952Y-49808333D01*
X194305952Y-49903571D01*
D11*
X196875714Y-81459714D02*
X196304285Y-81245428D01*
X196875714Y-81031142D01*
D10*
X201285714Y-54752378D02*
X201285714Y-53752378D01*
X200952380Y-54466664D01*
X200619047Y-53752378D01*
X200619047Y-54752378D01*
X199714285Y-54752378D02*
X199714285Y-54228569D01*
X199761904Y-54133331D01*
X199857142Y-54085712D01*
X200047619Y-54085712D01*
X200142857Y-54133331D01*
X199714285Y-54704759D02*
X199809523Y-54752378D01*
X200047619Y-54752378D01*
X200142857Y-54704759D01*
X200190476Y-54609521D01*
X200190476Y-54514283D01*
X200142857Y-54419045D01*
X200047619Y-54371426D01*
X199809523Y-54371426D01*
X199714285Y-54323807D01*
X199380952Y-54085712D02*
X199000000Y-54085712D01*
X199238095Y-53752378D02*
X199238095Y-54609521D01*
X199190476Y-54704759D01*
X199095238Y-54752378D01*
X199000000Y-54752378D01*
X198285714Y-54704759D02*
X198380952Y-54752378D01*
X198571428Y-54752378D01*
X198666666Y-54704759D01*
X198714285Y-54609521D01*
X198714285Y-54228569D01*
X198666666Y-54133331D01*
X198571428Y-54085712D01*
X198380952Y-54085712D01*
X198285714Y-54133331D01*
X198238095Y-54228569D01*
X198238095Y-54323807D01*
X198714285Y-54419045D01*
X197380952Y-54085712D02*
X197380952Y-54752378D01*
X197809523Y-54085712D02*
X197809523Y-54609521D01*
X197761904Y-54704759D01*
X197666666Y-54752378D01*
X197523809Y-54752378D01*
X197428571Y-54704759D01*
X197380952Y-54657140D01*
X196952380Y-54704759D02*
X196857142Y-54752378D01*
X196666666Y-54752378D01*
X196571428Y-54704759D01*
X196523809Y-54609521D01*
X196523809Y-54561902D01*
X196571428Y-54466664D01*
X196666666Y-54419045D01*
X196809523Y-54419045D01*
X196904761Y-54371426D01*
X196952380Y-54276188D01*
X196952380Y-54228569D01*
X196904761Y-54133331D01*
X196809523Y-54085712D01*
X196666666Y-54085712D01*
X196571428Y-54133331D01*
X196190476Y-54085712D02*
X195666666Y-54085712D01*
X196190476Y-54752378D01*
X195666666Y-54752378D01*
X194190476Y-54228569D02*
X194047619Y-54276188D01*
X194000000Y-54323807D01*
X193952380Y-54419045D01*
X193952380Y-54561902D01*
X194000000Y-54657140D01*
X194047619Y-54704759D01*
X194142857Y-54752378D01*
X194523809Y-54752378D01*
X194523809Y-53752378D01*
X194190476Y-53752378D01*
X194095238Y-53799998D01*
X194047619Y-53847617D01*
X194000000Y-53942855D01*
X194000000Y-54038093D01*
X194047619Y-54133331D01*
X194095238Y-54180950D01*
X194190476Y-54228569D01*
X194523809Y-54228569D01*
X193523809Y-54752378D02*
X193523809Y-54085712D01*
X193523809Y-53752378D02*
X193571428Y-53799998D01*
X193523809Y-53847617D01*
X193476190Y-53799998D01*
X193523809Y-53752378D01*
X193523809Y-53847617D01*
X193047619Y-54752378D02*
X193047619Y-53752378D01*
X192952380Y-54371426D02*
X192666666Y-54752378D01*
X192666666Y-54085712D02*
X193047619Y-54466664D01*
X201282142Y-53265474D02*
X201282142Y-52365474D01*
X200939285Y-52365474D01*
X200853571Y-52408332D01*
X200810714Y-52451189D01*
X200767857Y-52536903D01*
X200767857Y-52665474D01*
X200810714Y-52751189D01*
X200853571Y-52794046D01*
X200939285Y-52836903D01*
X201282142Y-52836903D01*
X200382142Y-53265474D02*
X200382142Y-52665474D01*
X200382142Y-52365474D02*
X200425000Y-52408332D01*
X200382142Y-52451189D01*
X200339285Y-52408332D01*
X200382142Y-52365474D01*
X200382142Y-52451189D01*
X199825000Y-53265474D02*
X199910714Y-53222617D01*
X199953571Y-53179760D01*
X199996428Y-53094046D01*
X199996428Y-52836903D01*
X199953571Y-52751189D01*
X199910714Y-52708332D01*
X199825000Y-52665474D01*
X199696428Y-52665474D01*
X199610714Y-52708332D01*
X199567857Y-52751189D01*
X199525000Y-52836903D01*
X199525000Y-53094046D01*
X199567857Y-53179760D01*
X199610714Y-53222617D01*
X199696428Y-53265474D01*
X199825000Y-53265474D01*
X199267857Y-52665474D02*
X198925000Y-52665474D01*
X199139285Y-52365474D02*
X199139285Y-53136903D01*
X199096428Y-53222617D01*
X199010714Y-53265474D01*
X198925000Y-53265474D01*
X198625000Y-53265474D02*
X198625000Y-52665474D01*
X198625000Y-52836903D02*
X198582142Y-52751189D01*
X198539285Y-52708332D01*
X198453571Y-52665474D01*
X198367857Y-52665474D01*
X197382142Y-53265474D02*
X197382142Y-52365474D01*
X197082142Y-53008332D01*
X196782142Y-52365474D01*
X196782142Y-53265474D01*
X196225000Y-53265474D02*
X196310714Y-53222617D01*
X196353571Y-53179760D01*
X196396428Y-53094046D01*
X196396428Y-52836903D01*
X196353571Y-52751189D01*
X196310714Y-52708332D01*
X196225000Y-52665474D01*
X196096428Y-52665474D01*
X196010714Y-52708332D01*
X195967857Y-52751189D01*
X195925000Y-52836903D01*
X195925000Y-53094046D01*
X195967857Y-53179760D01*
X196010714Y-53222617D01*
X196096428Y-53265474D01*
X196225000Y-53265474D01*
X195582142Y-53222617D02*
X195496428Y-53265474D01*
X195325000Y-53265474D01*
X195239285Y-53222617D01*
X195196428Y-53136903D01*
X195196428Y-53094046D01*
X195239285Y-53008332D01*
X195325000Y-52965474D01*
X195453571Y-52965474D01*
X195539285Y-52922617D01*
X195582142Y-52836903D01*
X195582142Y-52794046D01*
X195539285Y-52708332D01*
X195453571Y-52665474D01*
X195325000Y-52665474D01*
X195239285Y-52708332D01*
X194425000Y-52665474D02*
X194425000Y-53265474D01*
X194810714Y-52665474D02*
X194810714Y-53136903D01*
X194767857Y-53222617D01*
X194682142Y-53265474D01*
X194553571Y-53265474D01*
X194467857Y-53222617D01*
X194425000Y-53179760D01*
X193996428Y-53265474D02*
X193996428Y-52665474D01*
X193996428Y-52836903D02*
X193953571Y-52751189D01*
X193910714Y-52708332D01*
X193825000Y-52665474D01*
X193739285Y-52665474D01*
X193096428Y-53222617D02*
X193182142Y-53265474D01*
X193353571Y-53265474D01*
X193439285Y-53222617D01*
X193482142Y-53136903D01*
X193482142Y-52794046D01*
X193439285Y-52708332D01*
X193353571Y-52665474D01*
X193182142Y-52665474D01*
X193096428Y-52708332D01*
X193053571Y-52794046D01*
X193053571Y-52879760D01*
X193482142Y-52965474D01*
X192667857Y-53265474D02*
X192667857Y-52365474D01*
X192582142Y-52922617D02*
X192325000Y-53265474D01*
X192325000Y-52665474D02*
X192667857Y-53008332D01*
X201275714Y-51823808D02*
X201275714Y-50923808D01*
X200975714Y-51566666D01*
X200675714Y-50923808D01*
X200675714Y-51823808D01*
X200247142Y-51823808D02*
X200247142Y-51223808D01*
X200247142Y-50923808D02*
X200290000Y-50966666D01*
X200247142Y-51009523D01*
X200204285Y-50966666D01*
X200247142Y-50923808D01*
X200247142Y-51009523D01*
X199818571Y-51823808D02*
X199818571Y-50923808D01*
X199732857Y-51480951D02*
X199475714Y-51823808D01*
X199475714Y-51223808D02*
X199818571Y-51566666D01*
X198961428Y-51823808D02*
X199047142Y-51780951D01*
X199090000Y-51738094D01*
X199132857Y-51652380D01*
X199132857Y-51395237D01*
X199090000Y-51309523D01*
X199047142Y-51266666D01*
X198961428Y-51223808D01*
X198832857Y-51223808D01*
X198747142Y-51266666D01*
X198704285Y-51309523D01*
X198661428Y-51395237D01*
X198661428Y-51652380D01*
X198704285Y-51738094D01*
X198747142Y-51780951D01*
X198832857Y-51823808D01*
X198961428Y-51823808D01*
X198147142Y-51823808D02*
X198232857Y-51780951D01*
X198275714Y-51695237D01*
X198275714Y-50923808D01*
X198404285Y-51395237D02*
X198147142Y-51223808D01*
X197418571Y-51823808D02*
X197418571Y-51352380D01*
X197461428Y-51266666D01*
X197547142Y-51223808D01*
X197718571Y-51223808D01*
X197804285Y-51266666D01*
X197418571Y-51780951D02*
X197504285Y-51823808D01*
X197718571Y-51823808D01*
X197804285Y-51780951D01*
X197847142Y-51695237D01*
X197847142Y-51609523D01*
X197804285Y-51523808D01*
X197718571Y-51480951D01*
X197504285Y-51480951D01*
X197418571Y-51438094D01*
X196990000Y-51223808D02*
X196990000Y-51995237D01*
X197032857Y-52080951D01*
X197118571Y-52123808D01*
X197161428Y-52123808D01*
X196990000Y-50923808D02*
X197032857Y-50966666D01*
X196990000Y-51009523D01*
X196947142Y-50966666D01*
X196990000Y-50923808D01*
X196990000Y-51009523D01*
X195875714Y-51823808D02*
X195875714Y-50923808D01*
X195575714Y-51566666D01*
X195275714Y-50923808D01*
X195275714Y-51823808D01*
X194461428Y-51823808D02*
X194461428Y-51352380D01*
X194504285Y-51266666D01*
X194590000Y-51223808D01*
X194761428Y-51223808D01*
X194847142Y-51266666D01*
X194461428Y-51780951D02*
X194547142Y-51823808D01*
X194761428Y-51823808D01*
X194847142Y-51780951D01*
X194890000Y-51695237D01*
X194890000Y-51609523D01*
X194847142Y-51523808D01*
X194761428Y-51480951D01*
X194547142Y-51480951D01*
X194461428Y-51438094D01*
X194032857Y-51823808D02*
X194032857Y-51223808D01*
X194032857Y-51395237D02*
X193990000Y-51309523D01*
X193947142Y-51266666D01*
X193861428Y-51223808D01*
X193775714Y-51223808D01*
X193475714Y-51823808D02*
X193475714Y-50923808D01*
X193390000Y-51480951D02*
X193132857Y-51823808D01*
X193132857Y-51223808D02*
X193475714Y-51566666D01*
X192747142Y-51823808D02*
X192747142Y-51223808D01*
X192747142Y-50923808D02*
X192790000Y-50966666D01*
X192747142Y-51009523D01*
X192704285Y-50966666D01*
X192747142Y-50923808D01*
X192747142Y-51009523D01*
X191975714Y-51780951D02*
X192061428Y-51823808D01*
X192232857Y-51823808D01*
X192318571Y-51780951D01*
X192361428Y-51695237D01*
X192361428Y-51352380D01*
X192318571Y-51266666D01*
X192232857Y-51223808D01*
X192061428Y-51223808D01*
X191975714Y-51266666D01*
X191932857Y-51352380D01*
X191932857Y-51438094D01*
X192361428Y-51523808D01*
X191418571Y-51823808D02*
X191504285Y-51780951D01*
X191547142Y-51695237D01*
X191547142Y-50923808D01*
%TO.C,J4*%
X204483333Y-71777380D02*
X204959523Y-71777380D01*
X204959523Y-70777380D01*
X203578571Y-71682142D02*
X203626190Y-71729761D01*
X203769047Y-71777380D01*
X203864285Y-71777380D01*
X204007142Y-71729761D01*
X204102380Y-71634523D01*
X204150000Y-71539285D01*
X204197619Y-71348809D01*
X204197619Y-71205952D01*
X204150000Y-71015476D01*
X204102380Y-70920238D01*
X204007142Y-70825000D01*
X203864285Y-70777380D01*
X203769047Y-70777380D01*
X203626190Y-70825000D01*
X203578571Y-70872619D01*
X203150000Y-71777380D02*
X203150000Y-70777380D01*
X202911904Y-70777380D01*
X202769047Y-70825000D01*
X202673809Y-70920238D01*
X202626190Y-71015476D01*
X202578571Y-71205952D01*
X202578571Y-71348809D01*
X202626190Y-71539285D01*
X202673809Y-71634523D01*
X202769047Y-71729761D01*
X202911904Y-71777380D01*
X203150000Y-71777380D01*
X201530952Y-70777380D02*
X200959523Y-70777380D01*
X201245238Y-71777380D02*
X201245238Y-70777380D01*
X200673809Y-71491666D02*
X200197619Y-71491666D01*
X200769047Y-71777380D02*
X200435714Y-70777380D01*
X200102380Y-71777380D01*
X199769047Y-71777380D02*
X199769047Y-70777380D01*
X199388095Y-70777380D01*
X199292857Y-70825000D01*
X199245238Y-70872619D01*
X199197619Y-70967857D01*
X199197619Y-71110714D01*
X199245238Y-71205952D01*
X199292857Y-71253571D01*
X199388095Y-71301190D01*
X199769047Y-71301190D01*
X198769047Y-71253571D02*
X198435714Y-71253571D01*
X198292857Y-71777380D02*
X198769047Y-71777380D01*
X198769047Y-70777380D01*
X198292857Y-70777380D01*
D12*
%TO.C,J2*%
X200630000Y-81354000D02*
X201050000Y-81354000D01*
X205700000Y-80674000D02*
X206150000Y-80674000D01*
X200630000Y-83334000D02*
X200630000Y-81354000D01*
X206150000Y-81124000D02*
X206150000Y-80674000D01*
X208150000Y-85704000D02*
X208150000Y-85304000D01*
X200630000Y-85304000D02*
X200630000Y-85704000D01*
X208150000Y-83334000D02*
X208150000Y-81354000D01*
X208150000Y-81354000D02*
X207730000Y-81354000D01*
%TO.C,J4*%
X206140000Y-68269000D02*
X206140000Y-72769000D01*
X197140000Y-68269000D02*
X197140000Y-72769000D01*
%TO.C,SW2*%
X198790000Y-84199000D02*
X198790000Y-82999000D01*
X198790000Y-85399000D02*
X198790000Y-85199000D01*
X194390000Y-84199000D02*
X194390000Y-82999000D01*
X195490000Y-82799000D02*
X197690000Y-82799000D01*
X194390000Y-85249000D02*
X194390000Y-85399000D01*
X194390000Y-85399000D02*
X198790000Y-85399000D01*
%TO.C,SW1*%
X214390000Y-84199000D02*
X214390000Y-82999000D01*
X209990000Y-84199000D02*
X209990000Y-82999000D01*
X209990000Y-85249000D02*
X209990000Y-85399000D01*
X209990000Y-85399000D02*
X214390000Y-85399000D01*
X214390000Y-85399000D02*
X214390000Y-85199000D01*
X211090000Y-82799000D02*
X213290000Y-82799000D01*
%TD*%
M02*
