%TF.GenerationSoftware,KiCad,Pcbnew,(6.0.9)*%
%TF.CreationDate,2023-01-20T21:16:28+01:00*%
%TF.ProjectId,AGH-CLK-01,4147482d-434c-44b2-9d30-312e6b696361,rev?*%
%TF.SameCoordinates,Original*%
%TF.FileFunction,Copper,L2,Bot*%
%TF.FilePolarity,Positive*%
%FSLAX46Y46*%
G04 Gerber Fmt 4.6, Leading zero omitted, Abs format (unit mm)*
G04 Created by KiCad (PCBNEW (6.0.9)) date 2023-01-20 21:16:28*
%MOMM*%
%LPD*%
G01*
G04 APERTURE LIST*
G04 Aperture macros list*
%AMRoundRect*
0 Rectangle with rounded corners*
0 $1 Rounding radius*
0 $2 $3 $4 $5 $6 $7 $8 $9 X,Y pos of 4 corners*
0 Add a 4 corners polygon primitive as box body*
4,1,4,$2,$3,$4,$5,$6,$7,$8,$9,$2,$3,0*
0 Add four circle primitives for the rounded corners*
1,1,$1+$1,$2,$3*
1,1,$1+$1,$4,$5*
1,1,$1+$1,$6,$7*
1,1,$1+$1,$8,$9*
0 Add four rect primitives between the rounded corners*
20,1,$1+$1,$2,$3,$4,$5,0*
20,1,$1+$1,$4,$5,$6,$7,0*
20,1,$1+$1,$6,$7,$8,$9,0*
20,1,$1+$1,$8,$9,$2,$3,0*%
G04 Aperture macros list end*
%TA.AperFunction,ComponentPad*%
%ADD10R,1.700000X1.700000*%
%TD*%
%TA.AperFunction,ComponentPad*%
%ADD11O,1.700000X1.700000*%
%TD*%
%TA.AperFunction,SMDPad,CuDef*%
%ADD12R,0.400000X1.350000*%
%TD*%
%TA.AperFunction,ComponentPad*%
%ADD13O,1.250000X0.950000*%
%TD*%
%TA.AperFunction,ComponentPad*%
%ADD14O,0.890000X1.550000*%
%TD*%
%TA.AperFunction,SMDPad,CuDef*%
%ADD15R,1.200000X1.550000*%
%TD*%
%TA.AperFunction,SMDPad,CuDef*%
%ADD16R,1.500000X1.550000*%
%TD*%
%TA.AperFunction,SMDPad,CuDef*%
%ADD17RoundRect,0.087500X-0.087500X2.412500X-0.087500X-2.412500X0.087500X-2.412500X0.087500X2.412500X0*%
%TD*%
%TA.AperFunction,SMDPad,CuDef*%
%ADD18R,0.600000X1.000000*%
%TD*%
%TA.AperFunction,SMDPad,CuDef*%
%ADD19R,0.500000X0.800000*%
%TD*%
%TA.AperFunction,ViaPad*%
%ADD20C,0.800000*%
%TD*%
%TA.AperFunction,Conductor*%
%ADD21C,0.250000*%
%TD*%
G04 APERTURE END LIST*
D10*
%TO.P,J5,1,Pin_1*%
%TO.N,GND*%
X195390000Y-47299000D03*
D11*
%TO.P,J5,2,Pin_2*%
%TO.N,+BATT*%
X195390000Y-44759000D03*
%TD*%
D10*
%TO.P,J1,1,Pin_1*%
%TO.N,VCC*%
X208065000Y-47274000D03*
D11*
%TO.P,J1,2,Pin_2*%
%TO.N,/SWCLK*%
X208065000Y-44734000D03*
%TO.P,J1,3,Pin_3*%
%TO.N,GND*%
X210605000Y-47274000D03*
%TO.P,J1,4,Pin_4*%
%TO.N,/SWDIO*%
X210605000Y-44734000D03*
%TO.P,J1,5,Pin_5*%
%TO.N,/NRST*%
X213145000Y-47274000D03*
%TO.P,J1,6,Pin_6*%
%TO.N,unconnected-(J1-Pad6)*%
X213145000Y-44734000D03*
%TD*%
D10*
%TO.P,J3,1,Pin_1*%
%TO.N,Net-(J3-Pad1)*%
X199165000Y-44699000D03*
D11*
%TO.P,J3,2,Pin_2*%
%TO.N,GND*%
X201705000Y-44699000D03*
%TO.P,J3,3,Pin_3*%
%TO.N,Net-(J3-Pad3)*%
X204245000Y-44699000D03*
%TD*%
D12*
%TO.P,J2,1,VBUS*%
%TO.N,+5V*%
X205690000Y-81614000D03*
%TO.P,J2,2,D-*%
%TO.N,unconnected-(J2-Pad2)*%
X205040000Y-81614000D03*
%TO.P,J2,3,D+*%
%TO.N,unconnected-(J2-Pad3)*%
X204390000Y-81614000D03*
%TO.P,J2,4,ID*%
%TO.N,unconnected-(J2-Pad4)*%
X203740000Y-81614000D03*
%TO.P,J2,5,GND*%
%TO.N,GND*%
X203090000Y-81614000D03*
D13*
%TO.P,J2,6,Shield*%
X206890000Y-81614000D03*
X201890000Y-81614000D03*
D14*
X200890000Y-84314000D03*
D15*
X201490000Y-84314000D03*
X207290000Y-84314000D03*
D14*
X207890000Y-84314000D03*
D16*
X203390000Y-84314000D03*
X205390000Y-84314000D03*
%TD*%
D17*
%TO.P,J4,1,Pin_1*%
%TO.N,GND*%
X197761250Y-67769000D03*
%TO.P,J4,2,Pin_2*%
%TO.N,Net-(J4-Pad2)*%
X198466477Y-67769000D03*
%TO.P,J4,3,Pin_3*%
%TO.N,VCC*%
X199171704Y-67769000D03*
%TO.P,J4,4,Pin_4*%
X199876931Y-67769000D03*
%TO.P,J4,5,Pin_5*%
%TO.N,GND*%
X200582158Y-67769000D03*
%TO.P,J4,6,Pin_6*%
X201287385Y-67769000D03*
%TO.P,J4,7,Pin_7*%
%TO.N,/LCD_DC*%
X201992612Y-67769000D03*
%TO.P,J4,8,Pin_8*%
%TO.N,/LCD_CS*%
X202697839Y-67769000D03*
%TO.P,J4,9,Pin_9*%
%TO.N,/LCD_SCK*%
X203403066Y-67769000D03*
%TO.P,J4,10,Pin_10*%
%TO.N,/LCD_SDA*%
X204108293Y-67769000D03*
%TO.P,J4,11,Pin_11*%
%TO.N,/LCD_RST*%
X204813520Y-67769000D03*
%TO.P,J4,12,Pin_12*%
%TO.N,GND*%
X205518750Y-67769000D03*
%TD*%
D18*
%TO.P,SW2,1,1*%
%TO.N,GND*%
X194890000Y-83099000D03*
%TO.P,SW2,2,2*%
%TO.N,/SW_2*%
X198265000Y-83099000D03*
D19*
%TO.P,SW2,3,3*%
%TO.N,GND*%
X198840000Y-84699000D03*
%TO.P,SW2,4,4*%
X194340000Y-84699000D03*
%TD*%
D18*
%TO.P,SW1,1,1*%
%TO.N,GND*%
X210490000Y-83099000D03*
%TO.P,SW1,2,2*%
%TO.N,/SW_1*%
X213865000Y-83099000D03*
D19*
%TO.P,SW1,3,3*%
%TO.N,GND*%
X214440000Y-84699000D03*
%TO.P,SW1,4,4*%
X209940000Y-84699000D03*
%TD*%
D20*
%TO.N,VCC*%
X201865000Y-71324000D03*
X196040000Y-64249000D03*
X197690000Y-71329000D03*
X216990000Y-53199000D03*
X216990000Y-57899000D03*
X206515000Y-78474000D03*
X207715000Y-80174000D03*
%TO.N,GND*%
X205950000Y-73450000D03*
X206575000Y-51125000D03*
X194350000Y-78275000D03*
X213090000Y-53299000D03*
X209575000Y-81650000D03*
X208175000Y-72675000D03*
X206175000Y-62250000D03*
X192925000Y-72475000D03*
X215690000Y-59199000D03*
X207100000Y-63175000D03*
X213090000Y-55199000D03*
X216925000Y-63400000D03*
X201090000Y-75599000D03*
X202890000Y-72399000D03*
X213990000Y-57599000D03*
X211990000Y-57499000D03*
X193500000Y-62550000D03*
X191750000Y-55400000D03*
X192050000Y-58675000D03*
X216990000Y-61199000D03*
X211525000Y-72700000D03*
X201650000Y-55225000D03*
%TO.N,+5V*%
X205280000Y-78069000D03*
%TO.N,/SW_1*%
X206690000Y-55599000D03*
X214790000Y-82799000D03*
%TO.N,/SW_2*%
X211915000Y-74124000D03*
X199390000Y-82599000D03*
X208590000Y-56799000D03*
%TO.N,/SWCLK*%
X214925000Y-49900000D03*
X210390000Y-57999000D03*
%TO.N,/SWDIO*%
X216400000Y-49800000D03*
X205890000Y-58999000D03*
%TO.N,/NRST*%
X204325000Y-58750000D03*
%TO.N,Net-(J4-Pad2)*%
X204840000Y-74924000D03*
%TO.N,/LCD_DC*%
X202490000Y-63499000D03*
%TO.N,/LCD_CS*%
X203190000Y-62674000D03*
%TO.N,/LCD_SCK*%
X204115000Y-63249000D03*
%TO.N,/LCD_SDA*%
X204615000Y-71949000D03*
%TO.N,/LCD_RST*%
X205640000Y-71374000D03*
%TO.N,/A_BAT_EN*%
X202325000Y-61325000D03*
X198300000Y-58850000D03*
%TO.N,/LCD_BLK*%
X206550000Y-68750000D03*
X205050000Y-63650000D03*
%TO.N,/UART.TX*%
X214390000Y-77399000D03*
X210590000Y-62099000D03*
%TO.N,/PB6*%
X202125000Y-50875000D03*
X203690000Y-55199000D03*
%TO.N,/PA8*%
X210590000Y-63299000D03*
X215750000Y-71300000D03*
%TO.N,/PA11*%
X210466027Y-60499000D03*
X216900000Y-71325000D03*
%TO.N,/PA12*%
X210490180Y-59391573D03*
X216525000Y-76975000D03*
%TD*%
D21*
%TO.N,VCC*%
X196725000Y-70364000D02*
X197690000Y-71329000D01*
X206515000Y-78474000D02*
X206515000Y-78974000D01*
X199171704Y-67769000D02*
X199876931Y-67769000D01*
X199876931Y-70285931D02*
X199876931Y-67769000D01*
X196725000Y-64934000D02*
X196040000Y-64249000D01*
X216990000Y-57899000D02*
X216990000Y-53199000D01*
X196725000Y-64934000D02*
X196725000Y-70364000D01*
X206515000Y-78974000D02*
X207715000Y-80174000D01*
X200915000Y-71324000D02*
X199876931Y-70285931D01*
X201865000Y-71324000D02*
X200915000Y-71324000D01*
%TO.N,GND*%
X205518750Y-67769000D02*
X205518750Y-69452750D01*
X206640000Y-72760000D02*
X205950000Y-73450000D01*
X206640000Y-70574000D02*
X206640000Y-72760000D01*
X205518750Y-69452750D02*
X206640000Y-70574000D01*
%TO.N,+5V*%
X205280000Y-78069000D02*
X205280000Y-79529000D01*
X205280000Y-79529000D02*
X205690000Y-79939000D01*
X205690000Y-79939000D02*
X205690000Y-81614000D01*
%TO.N,/SW_1*%
X209315000Y-56498695D02*
X209315000Y-64687604D01*
X208415305Y-55599000D02*
X209315000Y-56498695D01*
X214990000Y-82599000D02*
X214790000Y-82799000D01*
X214165000Y-82799000D02*
X213865000Y-83099000D01*
X213490000Y-78599000D02*
X214990000Y-80099000D01*
X214790000Y-82799000D02*
X214165000Y-82799000D01*
X206690000Y-55599000D02*
X208415305Y-55599000D01*
X214990000Y-80099000D02*
X214990000Y-82599000D01*
X213490000Y-68862604D02*
X213490000Y-78599000D01*
X209315000Y-64687604D02*
X213490000Y-68862604D01*
%TO.N,/SW_2*%
X208590000Y-64599000D02*
X212515000Y-68524000D01*
X198765000Y-82599000D02*
X198265000Y-83099000D01*
X212515000Y-73524000D02*
X211915000Y-74124000D01*
X199390000Y-82599000D02*
X198765000Y-82599000D01*
X212515000Y-68524000D02*
X212515000Y-73524000D01*
X208590000Y-56799000D02*
X208590000Y-64599000D01*
%TO.N,/SWCLK*%
X210390000Y-57999000D02*
X210390000Y-52099000D01*
X210390000Y-52099000D02*
X212344500Y-50144500D01*
X214925000Y-49900000D02*
X212589000Y-49900000D01*
X212589000Y-49900000D02*
X212344500Y-50144500D01*
%TO.N,/SWDIO*%
X211906847Y-49356847D02*
X212088694Y-49175000D01*
X205890000Y-55373695D02*
X211906847Y-49356847D01*
X212088694Y-49175000D02*
X215775000Y-49175000D01*
X215775000Y-49175000D02*
X216400000Y-49800000D01*
X205890000Y-58999000D02*
X205890000Y-55373695D01*
%TO.N,/NRST*%
X205250000Y-55175000D02*
X205250000Y-57825000D01*
X205250000Y-57825000D02*
X204325000Y-58750000D01*
X213145000Y-47274000D02*
X205250000Y-55169000D01*
X205250000Y-55169000D02*
X205250000Y-55175000D01*
%TO.N,Net-(J4-Pad2)*%
X198466477Y-70250477D02*
X198466477Y-67769000D01*
X204840000Y-74924000D02*
X203140000Y-74924000D01*
X203140000Y-74924000D02*
X198466477Y-70250477D01*
%TO.N,/LCD_DC*%
X201992612Y-63996388D02*
X201992612Y-67769000D01*
X202490000Y-63499000D02*
X201992612Y-63996388D01*
%TO.N,/LCD_CS*%
X203215000Y-62699000D02*
X203215000Y-63924000D01*
X203215000Y-63924000D02*
X202697839Y-64441161D01*
X203190000Y-62674000D02*
X203215000Y-62699000D01*
X202697839Y-64441161D02*
X202697839Y-67769000D01*
%TO.N,/LCD_SCK*%
X204115000Y-63724000D02*
X203390000Y-64449000D01*
X203390000Y-64449000D02*
X203390000Y-67755934D01*
X203390000Y-67755934D02*
X203403066Y-67769000D01*
X204115000Y-63249000D02*
X204115000Y-63724000D01*
%TO.N,/LCD_SDA*%
X204108293Y-71442293D02*
X204108293Y-67769000D01*
X204615000Y-71949000D02*
X204108293Y-71442293D01*
%TO.N,/LCD_RST*%
X204813520Y-70547520D02*
X205640000Y-71374000D01*
X204813520Y-67769000D02*
X204813520Y-70547520D01*
%TO.N,/A_BAT_EN*%
X198300000Y-58850000D02*
X200775000Y-61325000D01*
X200775000Y-61325000D02*
X202325000Y-61325000D01*
%TO.N,/LCD_BLK*%
X206550000Y-68750000D02*
X206550000Y-64375000D01*
X206550000Y-64375000D02*
X205825000Y-63650000D01*
X205825000Y-63650000D02*
X205050000Y-63650000D01*
%TO.N,/UART.TX*%
X214390000Y-68990000D02*
X209865000Y-64465000D01*
X209865000Y-62824000D02*
X210590000Y-62099000D01*
X214390000Y-77399000D02*
X214390000Y-68990000D01*
X209865000Y-64465000D02*
X209865000Y-62824000D01*
%TO.N,/PB6*%
X202008000Y-53517000D02*
X203690000Y-55199000D01*
X202008000Y-50992000D02*
X202125000Y-50875000D01*
X202008000Y-53517000D02*
X202008000Y-50992000D01*
%TO.N,/PA8*%
X210590000Y-64553604D02*
X215750000Y-69713604D01*
X210590000Y-63299000D02*
X210590000Y-64553604D01*
X215750000Y-69713604D02*
X215750000Y-71300000D01*
%TO.N,/PA11*%
X211425000Y-61025000D02*
X211425000Y-64525000D01*
X210899000Y-60499000D02*
X211425000Y-61025000D01*
X210466027Y-60499000D02*
X210899000Y-60499000D01*
X216900000Y-70000000D02*
X216900000Y-71325000D01*
X211425000Y-64525000D02*
X216900000Y-70000000D01*
%TO.N,/PA12*%
X217737500Y-71737500D02*
X216525000Y-72950000D01*
X216525000Y-72950000D02*
X216525000Y-76975000D01*
X212050000Y-60750000D02*
X212050000Y-64300000D01*
X210691573Y-59391573D02*
X212050000Y-60750000D01*
X212050000Y-64300000D02*
X217737500Y-69987500D01*
X210490180Y-59391573D02*
X210691573Y-59391573D01*
X217737500Y-69987500D02*
X217737500Y-71737500D01*
%TD*%
%TA.AperFunction,Conductor*%
%TO.N,GND*%
G36*
X201591142Y-43119502D02*
G01*
X201637635Y-43173158D01*
X201647739Y-43243432D01*
X201618245Y-43308012D01*
X201558519Y-43346396D01*
X201542080Y-43350050D01*
X201394321Y-43372661D01*
X201384293Y-43375050D01*
X201181868Y-43441212D01*
X201172359Y-43445209D01*
X200983463Y-43543542D01*
X200974738Y-43549036D01*
X200804433Y-43676905D01*
X200796726Y-43683748D01*
X200649590Y-43837717D01*
X200643104Y-43845727D01*
X200545588Y-43988680D01*
X200490677Y-44033683D01*
X200420152Y-44041854D01*
X200356405Y-44010600D01*
X200319675Y-43949843D01*
X200315500Y-43917676D01*
X200315500Y-43804354D01*
X200312382Y-43778154D01*
X200279669Y-43704505D01*
X200271663Y-43686482D01*
X200266939Y-43675847D01*
X200258444Y-43667366D01*
X200195945Y-43604977D01*
X200187713Y-43596759D01*
X200177076Y-43592056D01*
X200177074Y-43592055D01*
X200107998Y-43561517D01*
X200085327Y-43551494D01*
X200059646Y-43548500D01*
X198270354Y-43548500D01*
X198266650Y-43548941D01*
X198266647Y-43548941D01*
X198259254Y-43549821D01*
X198244154Y-43551618D01*
X198235514Y-43555456D01*
X198235513Y-43555456D01*
X198169394Y-43584825D01*
X198141847Y-43597061D01*
X198133628Y-43605294D01*
X198133627Y-43605295D01*
X198121003Y-43617941D01*
X198062759Y-43676287D01*
X198058056Y-43686924D01*
X198058055Y-43686926D01*
X198040177Y-43727366D01*
X198017494Y-43778673D01*
X198014500Y-43804354D01*
X198014500Y-45593646D01*
X198017618Y-45619846D01*
X198021456Y-45628486D01*
X198021456Y-45628487D01*
X198024309Y-45634910D01*
X198063061Y-45722153D01*
X198071294Y-45730372D01*
X198071295Y-45730373D01*
X198097363Y-45756395D01*
X198142287Y-45801241D01*
X198152924Y-45805944D01*
X198152926Y-45805945D01*
X198190382Y-45822504D01*
X198244673Y-45846506D01*
X198270354Y-45849500D01*
X200059646Y-45849500D01*
X200063350Y-45849059D01*
X200063353Y-45849059D01*
X200070746Y-45848179D01*
X200085846Y-45846382D01*
X200111120Y-45835156D01*
X200177518Y-45805663D01*
X200188153Y-45800939D01*
X200197681Y-45791395D01*
X200239591Y-45749411D01*
X200267241Y-45721713D01*
X200273516Y-45707521D01*
X200298265Y-45651538D01*
X200312506Y-45619327D01*
X200315500Y-45593646D01*
X200315500Y-45477493D01*
X200335502Y-45409372D01*
X200389158Y-45362879D01*
X200459432Y-45352775D01*
X200524012Y-45382269D01*
X200548933Y-45411658D01*
X200602694Y-45499388D01*
X200608777Y-45507699D01*
X200748213Y-45668667D01*
X200755580Y-45675883D01*
X200919434Y-45811916D01*
X200927881Y-45817831D01*
X201111756Y-45925279D01*
X201121042Y-45929729D01*
X201320001Y-46005703D01*
X201329899Y-46008579D01*
X201433250Y-46029606D01*
X201447299Y-46028410D01*
X201451000Y-46018065D01*
X201451000Y-44571000D01*
X201471002Y-44502879D01*
X201524658Y-44456386D01*
X201577000Y-44445000D01*
X201833000Y-44445000D01*
X201901121Y-44465002D01*
X201947614Y-44518658D01*
X201959000Y-44571000D01*
X201959000Y-46017517D01*
X201963064Y-46031359D01*
X201976478Y-46033393D01*
X201983184Y-46032534D01*
X201993262Y-46030392D01*
X202197255Y-45969191D01*
X202206842Y-45965433D01*
X202398095Y-45871739D01*
X202406945Y-45866464D01*
X202580328Y-45742792D01*
X202588200Y-45736139D01*
X202739052Y-45585812D01*
X202745730Y-45577965D01*
X202870003Y-45405020D01*
X202875313Y-45396183D01*
X202969670Y-45205267D01*
X202973019Y-45196809D01*
X203016693Y-45140836D01*
X203083696Y-45117359D01*
X203152755Y-45133835D01*
X203204597Y-45190442D01*
X203219829Y-45223483D01*
X203244369Y-45276714D01*
X203366405Y-45449391D01*
X203406467Y-45488418D01*
X203510727Y-45589983D01*
X203517865Y-45596937D01*
X203522661Y-45600142D01*
X203522664Y-45600144D01*
X203607661Y-45656937D01*
X203693677Y-45714411D01*
X203698985Y-45716692D01*
X203698986Y-45716692D01*
X203882650Y-45795600D01*
X203882653Y-45795601D01*
X203887953Y-45797878D01*
X203893582Y-45799152D01*
X203893583Y-45799152D01*
X204088550Y-45843269D01*
X204088553Y-45843269D01*
X204094186Y-45844544D01*
X204099957Y-45844771D01*
X204099959Y-45844771D01*
X204161989Y-45847208D01*
X204305470Y-45852846D01*
X204311179Y-45852018D01*
X204311183Y-45852018D01*
X204509015Y-45823333D01*
X204509019Y-45823332D01*
X204514730Y-45822504D01*
X204601579Y-45793023D01*
X204709483Y-45756395D01*
X204709488Y-45756393D01*
X204714955Y-45754537D01*
X204720035Y-45751692D01*
X204894395Y-45654046D01*
X204894399Y-45654043D01*
X204899442Y-45651219D01*
X205062012Y-45516012D01*
X205197219Y-45353442D01*
X205200043Y-45348399D01*
X205200046Y-45348395D01*
X205297713Y-45173998D01*
X205297714Y-45173996D01*
X205300537Y-45168955D01*
X205302393Y-45163488D01*
X205302395Y-45163483D01*
X205366647Y-44974200D01*
X205368504Y-44968730D01*
X205373543Y-44933982D01*
X205398314Y-44763140D01*
X205398314Y-44763138D01*
X205398846Y-44759470D01*
X205400429Y-44699000D01*
X205381081Y-44488440D01*
X205323686Y-44284931D01*
X205320763Y-44279002D01*
X205232719Y-44100469D01*
X205230165Y-44095290D01*
X205129027Y-43959850D01*
X205107104Y-43930491D01*
X205107103Y-43930490D01*
X205103651Y-43925867D01*
X204990514Y-43821284D01*
X204952622Y-43786257D01*
X204952620Y-43786255D01*
X204948381Y-43782337D01*
X204800656Y-43689129D01*
X204774434Y-43672584D01*
X204774433Y-43672584D01*
X204769554Y-43669505D01*
X204573160Y-43591152D01*
X204567503Y-43590027D01*
X204567497Y-43590025D01*
X204371442Y-43551028D01*
X204371440Y-43551028D01*
X204365775Y-43549901D01*
X204360000Y-43549825D01*
X204359996Y-43549825D01*
X204253976Y-43548437D01*
X204154346Y-43547133D01*
X204148649Y-43548112D01*
X204148648Y-43548112D01*
X203951650Y-43581962D01*
X203951649Y-43581962D01*
X203945953Y-43582941D01*
X203747575Y-43656127D01*
X203742614Y-43659079D01*
X203742613Y-43659079D01*
X203627833Y-43727366D01*
X203565856Y-43764238D01*
X203406881Y-43903655D01*
X203275976Y-44069708D01*
X203273287Y-44074819D01*
X203273285Y-44074822D01*
X203199155Y-44215720D01*
X203149736Y-44266692D01*
X203080603Y-44282855D01*
X203013707Y-44259076D01*
X202972097Y-44207294D01*
X202907971Y-44059814D01*
X202903105Y-44050739D01*
X202787426Y-43871926D01*
X202781136Y-43863757D01*
X202637806Y-43706240D01*
X202630273Y-43699215D01*
X202463139Y-43567222D01*
X202454552Y-43561517D01*
X202268117Y-43458599D01*
X202258705Y-43454369D01*
X202057959Y-43383280D01*
X202047989Y-43380646D01*
X201873394Y-43349547D01*
X201809837Y-43317910D01*
X201773474Y-43256932D01*
X201775850Y-43185975D01*
X201816211Y-43127567D01*
X201881743Y-43100252D01*
X201895490Y-43099500D01*
X218963500Y-43099500D01*
X219031621Y-43119502D01*
X219078114Y-43173158D01*
X219089500Y-43225500D01*
X219089500Y-85372500D01*
X219069498Y-85440621D01*
X219015842Y-85487114D01*
X218963500Y-85498500D01*
X208690045Y-85498500D01*
X208621924Y-85478498D01*
X208575431Y-85424842D01*
X208565327Y-85354568D01*
X208594821Y-85289988D01*
X208603472Y-85280951D01*
X208610501Y-85274304D01*
X208618799Y-85264690D01*
X208722523Y-85116557D01*
X208728720Y-85105469D01*
X208800540Y-84939505D01*
X208804382Y-84927393D01*
X208841677Y-84748866D01*
X208842915Y-84739334D01*
X208843000Y-84736111D01*
X208843000Y-84586115D01*
X208838525Y-84570876D01*
X208837135Y-84569671D01*
X208829452Y-84568000D01*
X199955115Y-84568000D01*
X199939876Y-84572475D01*
X199938671Y-84573865D01*
X199937000Y-84581548D01*
X199937000Y-84689192D01*
X199937323Y-84695567D01*
X199951005Y-84830267D01*
X199953559Y-84842707D01*
X200007635Y-85015264D01*
X200012644Y-85026952D01*
X200100314Y-85185111D01*
X200107561Y-85195538D01*
X200188955Y-85290502D01*
X200218099Y-85355241D01*
X200207617Y-85425460D01*
X200160835Y-85478864D01*
X200093287Y-85498500D01*
X189816500Y-85498500D01*
X189748379Y-85478498D01*
X189701886Y-85424842D01*
X189690500Y-85372500D01*
X189690500Y-83632789D01*
X190085996Y-83632789D01*
X190086196Y-83638118D01*
X190086196Y-83638119D01*
X190087014Y-83659916D01*
X190094913Y-83870295D01*
X190143719Y-84102904D01*
X190145677Y-84107863D01*
X190145678Y-84107865D01*
X190221162Y-84299000D01*
X190231020Y-84323963D01*
X190354319Y-84527153D01*
X190357816Y-84531183D01*
X190500461Y-84695567D01*
X190510090Y-84706664D01*
X190514216Y-84710047D01*
X190514220Y-84710051D01*
X190546003Y-84736111D01*
X190693880Y-84857362D01*
X190698516Y-84860001D01*
X190698519Y-84860003D01*
X190767906Y-84899500D01*
X190900433Y-84974939D01*
X191123844Y-85056034D01*
X191129092Y-85056983D01*
X191353641Y-85097588D01*
X191353648Y-85097589D01*
X191357725Y-85098326D01*
X191375991Y-85099187D01*
X191381131Y-85099430D01*
X191381138Y-85099430D01*
X191382619Y-85099500D01*
X191549680Y-85099500D01*
X191632026Y-85092513D01*
X191721512Y-85084920D01*
X191721516Y-85084919D01*
X191726823Y-85084469D01*
X191731978Y-85083131D01*
X191731984Y-85083130D01*
X191911556Y-85036522D01*
X191956874Y-85024760D01*
X192073327Y-84972302D01*
X192168715Y-84929333D01*
X192168718Y-84929332D01*
X192173576Y-84927143D01*
X192370732Y-84794409D01*
X192418474Y-84748866D01*
X192459162Y-84710051D01*
X192542705Y-84630355D01*
X192684579Y-84439670D01*
X192756099Y-84299000D01*
X195134318Y-84299000D01*
X195154956Y-84455762D01*
X195215464Y-84601841D01*
X195311718Y-84727282D01*
X195318264Y-84732305D01*
X195339847Y-84748866D01*
X195437159Y-84823536D01*
X195583238Y-84884044D01*
X195700639Y-84899500D01*
X195779361Y-84899500D01*
X195896762Y-84884044D01*
X196042841Y-84823536D01*
X196140153Y-84748866D01*
X196161736Y-84732305D01*
X196168282Y-84727282D01*
X196264536Y-84601841D01*
X196325044Y-84455762D01*
X196345682Y-84299000D01*
X196834318Y-84299000D01*
X196854956Y-84455762D01*
X196915464Y-84601841D01*
X197011718Y-84727282D01*
X197018264Y-84732305D01*
X197039847Y-84748866D01*
X197137159Y-84823536D01*
X197283238Y-84884044D01*
X197400639Y-84899500D01*
X197479361Y-84899500D01*
X197596762Y-84884044D01*
X197742841Y-84823536D01*
X197840153Y-84748866D01*
X197861736Y-84732305D01*
X197868282Y-84727282D01*
X197964536Y-84601841D01*
X198025044Y-84455762D01*
X198045682Y-84299000D01*
X210734318Y-84299000D01*
X210754956Y-84455762D01*
X210815464Y-84601841D01*
X210911718Y-84727282D01*
X210918264Y-84732305D01*
X210939847Y-84748866D01*
X211037159Y-84823536D01*
X211183238Y-84884044D01*
X211300639Y-84899500D01*
X211379361Y-84899500D01*
X211496762Y-84884044D01*
X211642841Y-84823536D01*
X211740153Y-84748866D01*
X211761736Y-84732305D01*
X211768282Y-84727282D01*
X211864536Y-84601841D01*
X211925044Y-84455762D01*
X211945682Y-84299000D01*
X211925044Y-84142238D01*
X211864536Y-83996159D01*
X211768282Y-83870718D01*
X211642841Y-83774464D01*
X211496762Y-83713956D01*
X211407553Y-83702211D01*
X211342627Y-83673490D01*
X211303535Y-83614225D01*
X211298000Y-83577290D01*
X211298000Y-83371115D01*
X211293525Y-83355876D01*
X211292135Y-83354671D01*
X211284452Y-83353000D01*
X210762115Y-83353000D01*
X210746876Y-83357475D01*
X210745671Y-83358865D01*
X210744000Y-83366548D01*
X210744000Y-84088884D01*
X210748913Y-84105616D01*
X210752939Y-84157559D01*
X210734318Y-84299000D01*
X198045682Y-84299000D01*
X198025044Y-84142238D01*
X197996662Y-84073718D01*
X197993240Y-84041885D01*
X199937000Y-84041885D01*
X199941475Y-84057124D01*
X199942865Y-84058329D01*
X199950548Y-84060000D01*
X200617885Y-84060000D01*
X200633124Y-84055525D01*
X200634329Y-84054135D01*
X200636000Y-84046452D01*
X200636000Y-84041885D01*
X201144000Y-84041885D01*
X201148475Y-84057124D01*
X201149865Y-84058329D01*
X201157548Y-84060000D01*
X201217885Y-84060000D01*
X201233124Y-84055525D01*
X201234329Y-84054135D01*
X201236000Y-84046452D01*
X201236000Y-84041885D01*
X201744000Y-84041885D01*
X201748475Y-84057124D01*
X201749865Y-84058329D01*
X201757548Y-84060000D01*
X203117885Y-84060000D01*
X203133124Y-84055525D01*
X203134329Y-84054135D01*
X203136000Y-84046452D01*
X203136000Y-84041885D01*
X203644000Y-84041885D01*
X203648475Y-84057124D01*
X203649865Y-84058329D01*
X203657548Y-84060000D01*
X205117885Y-84060000D01*
X205133124Y-84055525D01*
X205134329Y-84054135D01*
X205136000Y-84046452D01*
X205136000Y-84041885D01*
X205644000Y-84041885D01*
X205648475Y-84057124D01*
X205649865Y-84058329D01*
X205657548Y-84060000D01*
X207017885Y-84060000D01*
X207033124Y-84055525D01*
X207034329Y-84054135D01*
X207036000Y-84046452D01*
X207036000Y-84041885D01*
X207544000Y-84041885D01*
X207548475Y-84057124D01*
X207549865Y-84058329D01*
X207557548Y-84060000D01*
X207617885Y-84060000D01*
X207633124Y-84055525D01*
X207634329Y-84054135D01*
X207636000Y-84046452D01*
X207636000Y-84041885D01*
X208144000Y-84041885D01*
X208148475Y-84057124D01*
X208149865Y-84058329D01*
X208157548Y-84060000D01*
X208824885Y-84060000D01*
X208840124Y-84055525D01*
X208841329Y-84054135D01*
X208843000Y-84046452D01*
X208843000Y-83938808D01*
X208842677Y-83932433D01*
X208828995Y-83797733D01*
X208826441Y-83785293D01*
X208782059Y-83643669D01*
X209682001Y-83643669D01*
X209682371Y-83650490D01*
X209687895Y-83701352D01*
X209691521Y-83716604D01*
X209736676Y-83837054D01*
X209745214Y-83852649D01*
X209821715Y-83954724D01*
X209834276Y-83967285D01*
X209936351Y-84043786D01*
X209951946Y-84052324D01*
X210072394Y-84097478D01*
X210087649Y-84101105D01*
X210138514Y-84106631D01*
X210145328Y-84107000D01*
X210217885Y-84107000D01*
X210233124Y-84102525D01*
X210234329Y-84101135D01*
X210236000Y-84093452D01*
X210236000Y-83371115D01*
X210231525Y-83355876D01*
X210230135Y-83354671D01*
X210222452Y-83353000D01*
X209700116Y-83353000D01*
X209684877Y-83357475D01*
X209683672Y-83358865D01*
X209682001Y-83366548D01*
X209682001Y-83643669D01*
X208782059Y-83643669D01*
X208772365Y-83612736D01*
X208767356Y-83601048D01*
X208679686Y-83442889D01*
X208672435Y-83432456D01*
X208554756Y-83295157D01*
X208545547Y-83286388D01*
X208402667Y-83175558D01*
X208391887Y-83168822D01*
X208229626Y-83088981D01*
X208217727Y-83084555D01*
X208161531Y-83069918D01*
X208147436Y-83070352D01*
X208144000Y-83078533D01*
X208144000Y-84041885D01*
X207636000Y-84041885D01*
X207636000Y-83049115D01*
X207631525Y-83033876D01*
X207630135Y-83032671D01*
X207622452Y-83031000D01*
X207562115Y-83031000D01*
X207546876Y-83035475D01*
X207545671Y-83036865D01*
X207544000Y-83044548D01*
X207544000Y-84041885D01*
X207036000Y-84041885D01*
X207036000Y-83049116D01*
X207031525Y-83033877D01*
X207030135Y-83032672D01*
X207022452Y-83031001D01*
X206645331Y-83031001D01*
X206638510Y-83031371D01*
X206587648Y-83036895D01*
X206572394Y-83040522D01*
X206459229Y-83082945D01*
X206388422Y-83088128D01*
X206370771Y-83082945D01*
X206257609Y-83040522D01*
X206242351Y-83036895D01*
X206191486Y-83031369D01*
X206184672Y-83031000D01*
X205662115Y-83031000D01*
X205646876Y-83035475D01*
X205645671Y-83036865D01*
X205644000Y-83044548D01*
X205644000Y-84041885D01*
X205136000Y-84041885D01*
X205136000Y-83049116D01*
X205131525Y-83033877D01*
X205130135Y-83032672D01*
X205122452Y-83031001D01*
X204595331Y-83031001D01*
X204588510Y-83031371D01*
X204537648Y-83036895D01*
X204522396Y-83040521D01*
X204434230Y-83073573D01*
X204363422Y-83078756D01*
X204345770Y-83073573D01*
X204257606Y-83040522D01*
X204242351Y-83036895D01*
X204191486Y-83031369D01*
X204184672Y-83031000D01*
X203662115Y-83031000D01*
X203646876Y-83035475D01*
X203645671Y-83036865D01*
X203644000Y-83044548D01*
X203644000Y-84041885D01*
X203136000Y-84041885D01*
X203136000Y-83049116D01*
X203131525Y-83033877D01*
X203113460Y-83018223D01*
X203075077Y-82958497D01*
X203075077Y-82887501D01*
X203113461Y-82827774D01*
X203115408Y-82826885D01*
X209682000Y-82826885D01*
X209686475Y-82842124D01*
X209687865Y-82843329D01*
X209695548Y-82845000D01*
X210217885Y-82845000D01*
X210233124Y-82840525D01*
X210234329Y-82839135D01*
X210236000Y-82831452D01*
X210236000Y-82826885D01*
X210744000Y-82826885D01*
X210748475Y-82842124D01*
X210749865Y-82843329D01*
X210757548Y-82845000D01*
X211279884Y-82845000D01*
X211295123Y-82840525D01*
X211296328Y-82839135D01*
X211297999Y-82831452D01*
X211297999Y-82554331D01*
X211297629Y-82547510D01*
X211292105Y-82496648D01*
X211288479Y-82481396D01*
X211243324Y-82360946D01*
X211234786Y-82345351D01*
X211158285Y-82243276D01*
X211145724Y-82230715D01*
X211043649Y-82154214D01*
X211028054Y-82145676D01*
X210907606Y-82100522D01*
X210892351Y-82096895D01*
X210841486Y-82091369D01*
X210834672Y-82091000D01*
X210762115Y-82091000D01*
X210746876Y-82095475D01*
X210745671Y-82096865D01*
X210744000Y-82104548D01*
X210744000Y-82826885D01*
X210236000Y-82826885D01*
X210236000Y-82109116D01*
X210231525Y-82093877D01*
X210230135Y-82092672D01*
X210222452Y-82091001D01*
X210145331Y-82091001D01*
X210138510Y-82091371D01*
X210087648Y-82096895D01*
X210072396Y-82100521D01*
X209951946Y-82145676D01*
X209936351Y-82154214D01*
X209834276Y-82230715D01*
X209821715Y-82243276D01*
X209745214Y-82345351D01*
X209736676Y-82360946D01*
X209691522Y-82481394D01*
X209687895Y-82496649D01*
X209682369Y-82547514D01*
X209682000Y-82554328D01*
X209682000Y-82826885D01*
X203115408Y-82826885D01*
X203178042Y-82798281D01*
X203195973Y-82796999D01*
X203334669Y-82796999D01*
X203341490Y-82796629D01*
X203392352Y-82791105D01*
X203407604Y-82787479D01*
X203528054Y-82742324D01*
X203543649Y-82733786D01*
X203645724Y-82657285D01*
X203658284Y-82644725D01*
X203661873Y-82639936D01*
X203718731Y-82597421D01*
X203762700Y-82589500D01*
X203984646Y-82589500D01*
X203988350Y-82589059D01*
X203988353Y-82589059D01*
X204001461Y-82587499D01*
X204001462Y-82587499D01*
X204010846Y-82586382D01*
X204019484Y-82582545D01*
X204028602Y-82580039D01*
X204029400Y-82582942D01*
X204084340Y-82575625D01*
X204101721Y-82580711D01*
X204101865Y-82580183D01*
X204111011Y-82582676D01*
X204119673Y-82586506D01*
X204129082Y-82587603D01*
X204130343Y-82587750D01*
X204145354Y-82589500D01*
X204634646Y-82589500D01*
X204638350Y-82589059D01*
X204638353Y-82589059D01*
X204651461Y-82587499D01*
X204651462Y-82587499D01*
X204660846Y-82586382D01*
X204669484Y-82582545D01*
X204678602Y-82580039D01*
X204679400Y-82582942D01*
X204734340Y-82575625D01*
X204751721Y-82580711D01*
X204751865Y-82580183D01*
X204761011Y-82582676D01*
X204769673Y-82586506D01*
X204779082Y-82587603D01*
X204780343Y-82587750D01*
X204795354Y-82589500D01*
X205284646Y-82589500D01*
X205288350Y-82589059D01*
X205288353Y-82589059D01*
X205301461Y-82587499D01*
X205301462Y-82587499D01*
X205310846Y-82586382D01*
X205319484Y-82582545D01*
X205328602Y-82580039D01*
X205329400Y-82582942D01*
X205384340Y-82575625D01*
X205401721Y-82580711D01*
X205401865Y-82580183D01*
X205411011Y-82582676D01*
X205419673Y-82586506D01*
X205429082Y-82587603D01*
X205430343Y-82587750D01*
X205445354Y-82589500D01*
X205934646Y-82589500D01*
X205938350Y-82589059D01*
X205938353Y-82589059D01*
X205945746Y-82588179D01*
X205960846Y-82586382D01*
X205969512Y-82582533D01*
X206052518Y-82545663D01*
X206063153Y-82540939D01*
X206107292Y-82496723D01*
X206169574Y-82462644D01*
X206240395Y-82467647D01*
X206257943Y-82475757D01*
X206263823Y-82479044D01*
X206435382Y-82553284D01*
X206447485Y-82557123D01*
X206618264Y-82592801D01*
X206632325Y-82591678D01*
X206636000Y-82581571D01*
X206636000Y-82573390D01*
X207144000Y-82573390D01*
X207148216Y-82587750D01*
X207160695Y-82589809D01*
X207232331Y-82582533D01*
X207244770Y-82579979D01*
X207423143Y-82524080D01*
X207434831Y-82519071D01*
X207598320Y-82428447D01*
X207608753Y-82421196D01*
X207750688Y-82299544D01*
X207759441Y-82290353D01*
X207874021Y-82142636D01*
X207880745Y-82131876D01*
X207963281Y-81964140D01*
X207967709Y-81952233D01*
X207985083Y-81885531D01*
X207984649Y-81871436D01*
X207976468Y-81868000D01*
X207162115Y-81868000D01*
X207146876Y-81872475D01*
X207145671Y-81873865D01*
X207144000Y-81881548D01*
X207144000Y-82573390D01*
X206636000Y-82573390D01*
X206636000Y-80654610D01*
X206631784Y-80640250D01*
X206619305Y-80638191D01*
X206547669Y-80645467D01*
X206535230Y-80648021D01*
X206356857Y-80703920D01*
X206345169Y-80708929D01*
X206302586Y-80732533D01*
X206233309Y-80748064D01*
X206166632Y-80723676D01*
X206123726Y-80667112D01*
X206115500Y-80622331D01*
X206115500Y-79871607D01*
X206112437Y-79862180D01*
X206112436Y-79862173D01*
X206108087Y-79848788D01*
X206103473Y-79829569D01*
X206101271Y-79815669D01*
X206101270Y-79815666D01*
X206099719Y-79805874D01*
X206088830Y-79784503D01*
X206081265Y-79766239D01*
X206076915Y-79752852D01*
X206076914Y-79752849D01*
X206073850Y-79743420D01*
X206059744Y-79724006D01*
X206049416Y-79707150D01*
X206046672Y-79701763D01*
X206038528Y-79685780D01*
X205742405Y-79389657D01*
X205708379Y-79327345D01*
X205705500Y-79300562D01*
X205705500Y-78938767D01*
X205725502Y-78870646D01*
X205779158Y-78824153D01*
X205849432Y-78814049D01*
X205914012Y-78843543D01*
X205936082Y-78868491D01*
X205976596Y-78928783D01*
X205976599Y-78928786D01*
X205980830Y-78935083D01*
X205986443Y-78940191D01*
X205986447Y-78940195D01*
X206061364Y-79008364D01*
X206096397Y-79062620D01*
X206096916Y-79064216D01*
X206101528Y-79083429D01*
X206105281Y-79107126D01*
X206109784Y-79115963D01*
X206109784Y-79115964D01*
X206116172Y-79128502D01*
X206123736Y-79146763D01*
X206128085Y-79160147D01*
X206128087Y-79160150D01*
X206131151Y-79169581D01*
X206136980Y-79177604D01*
X206145253Y-79188991D01*
X206155577Y-79205837D01*
X206166472Y-79227220D01*
X206976680Y-80037428D01*
X207010706Y-80099740D01*
X207012507Y-80142967D01*
X207009394Y-80166611D01*
X207027999Y-80335135D01*
X207035867Y-80356634D01*
X207083090Y-80485676D01*
X207086266Y-80494356D01*
X207090502Y-80500659D01*
X207090502Y-80500660D01*
X207123893Y-80550351D01*
X207145285Y-80618048D01*
X207143719Y-80627501D01*
X207144188Y-80627516D01*
X207144000Y-80633473D01*
X207144000Y-81341885D01*
X207148475Y-81357124D01*
X207149865Y-81358329D01*
X207157548Y-81360000D01*
X207975867Y-81360000D01*
X207989398Y-81356027D01*
X207990275Y-81349925D01*
X207930277Y-81186855D01*
X207924705Y-81175431D01*
X207838024Y-81035630D01*
X207819126Y-80967194D01*
X207840228Y-80899406D01*
X207894629Y-80853787D01*
X207916981Y-80846413D01*
X207919324Y-80845876D01*
X207954029Y-80837928D01*
X208105498Y-80761747D01*
X208208859Y-80673468D01*
X208228651Y-80656564D01*
X208228652Y-80656563D01*
X208234423Y-80651634D01*
X208333361Y-80513947D01*
X208341294Y-80494214D01*
X208393766Y-80363687D01*
X208393767Y-80363685D01*
X208396601Y-80356634D01*
X208420490Y-80188778D01*
X208420645Y-80174000D01*
X208400276Y-80005680D01*
X208340345Y-79847077D01*
X208263592Y-79735401D01*
X208248614Y-79713608D01*
X208248613Y-79713607D01*
X208244312Y-79707349D01*
X208238641Y-79702296D01*
X208123392Y-79599612D01*
X208123388Y-79599610D01*
X208117721Y-79594560D01*
X208102450Y-79586474D01*
X208050080Y-79558746D01*
X207967881Y-79515224D01*
X207803441Y-79473919D01*
X207795843Y-79473879D01*
X207795841Y-79473879D01*
X207698216Y-79473368D01*
X207667487Y-79473207D01*
X207599472Y-79452849D01*
X207579052Y-79436304D01*
X207135185Y-78992437D01*
X207101159Y-78930125D01*
X207106224Y-78859310D01*
X207121954Y-78829821D01*
X207133361Y-78813947D01*
X207175779Y-78708430D01*
X207193766Y-78663687D01*
X207193767Y-78663685D01*
X207196601Y-78656634D01*
X207220490Y-78488778D01*
X207220645Y-78474000D01*
X207200276Y-78305680D01*
X207140345Y-78147077D01*
X207108443Y-78100660D01*
X207048614Y-78013608D01*
X207048613Y-78013607D01*
X207044312Y-78007349D01*
X207038119Y-78001831D01*
X206923392Y-77899612D01*
X206923388Y-77899610D01*
X206917721Y-77894560D01*
X206908739Y-77889804D01*
X206850080Y-77858746D01*
X206767881Y-77815224D01*
X206603441Y-77773919D01*
X206595843Y-77773879D01*
X206595841Y-77773879D01*
X206518668Y-77773475D01*
X206433895Y-77773031D01*
X206426508Y-77774805D01*
X206426504Y-77774805D01*
X206283162Y-77809220D01*
X206269032Y-77812612D01*
X206262288Y-77816093D01*
X206262285Y-77816094D01*
X206118369Y-77890375D01*
X206117651Y-77888985D01*
X206058398Y-77908049D01*
X205989786Y-77889804D01*
X205941930Y-77837361D01*
X205937295Y-77826629D01*
X205908029Y-77749180D01*
X205905345Y-77742077D01*
X205900857Y-77735547D01*
X205813614Y-77608608D01*
X205813613Y-77608607D01*
X205809312Y-77602349D01*
X205797514Y-77591837D01*
X205688392Y-77494612D01*
X205688388Y-77494610D01*
X205682721Y-77489560D01*
X205532881Y-77410224D01*
X205368441Y-77368919D01*
X205360843Y-77368879D01*
X205360841Y-77368879D01*
X205283668Y-77368475D01*
X205198895Y-77368031D01*
X205191508Y-77369805D01*
X205191504Y-77369805D01*
X205052680Y-77403135D01*
X205034032Y-77407612D01*
X205027288Y-77411093D01*
X205027285Y-77411094D01*
X204890117Y-77481892D01*
X204883369Y-77485375D01*
X204755604Y-77596831D01*
X204658113Y-77735547D01*
X204596524Y-77893513D01*
X204595532Y-77901046D01*
X204595532Y-77901047D01*
X204575730Y-78051466D01*
X204574394Y-78061611D01*
X204592999Y-78230135D01*
X204651266Y-78389356D01*
X204655502Y-78395659D01*
X204655502Y-78395660D01*
X204741596Y-78523783D01*
X204741599Y-78523786D01*
X204745830Y-78530083D01*
X204801496Y-78580735D01*
X204813300Y-78591476D01*
X204850222Y-78652117D01*
X204854500Y-78684670D01*
X204854500Y-79596393D01*
X204861914Y-79619210D01*
X204866528Y-79638429D01*
X204870281Y-79662126D01*
X204874784Y-79670963D01*
X204874784Y-79670964D01*
X204881172Y-79683502D01*
X204888736Y-79701763D01*
X204893085Y-79715147D01*
X204893087Y-79715150D01*
X204896151Y-79724581D01*
X204901980Y-79732604D01*
X204910253Y-79743991D01*
X204920577Y-79760837D01*
X204931472Y-79782220D01*
X205227595Y-80078343D01*
X205261621Y-80140655D01*
X205264500Y-80167438D01*
X205264500Y-80512500D01*
X205244498Y-80580621D01*
X205190842Y-80627114D01*
X205138500Y-80638500D01*
X204795354Y-80638500D01*
X204791650Y-80638941D01*
X204791647Y-80638941D01*
X204778539Y-80640501D01*
X204778538Y-80640501D01*
X204769154Y-80641618D01*
X204760516Y-80645455D01*
X204751398Y-80647961D01*
X204750600Y-80645058D01*
X204695660Y-80652375D01*
X204678279Y-80647289D01*
X204678135Y-80647817D01*
X204668989Y-80645324D01*
X204660327Y-80641494D01*
X204650918Y-80640397D01*
X204649627Y-80640247D01*
X204634646Y-80638500D01*
X204145354Y-80638500D01*
X204141650Y-80638941D01*
X204141647Y-80638941D01*
X204128539Y-80640501D01*
X204128538Y-80640501D01*
X204119154Y-80641618D01*
X204110516Y-80645455D01*
X204101398Y-80647961D01*
X204100600Y-80645058D01*
X204045660Y-80652375D01*
X204028279Y-80647289D01*
X204028135Y-80647817D01*
X204018989Y-80645324D01*
X204010327Y-80641494D01*
X204000918Y-80640397D01*
X203999627Y-80640247D01*
X203984646Y-80638500D01*
X203762700Y-80638500D01*
X203694579Y-80618498D01*
X203661873Y-80588064D01*
X203658284Y-80583275D01*
X203645724Y-80570715D01*
X203543649Y-80494214D01*
X203528054Y-80485676D01*
X203407606Y-80440522D01*
X203392351Y-80436895D01*
X203341486Y-80431369D01*
X203334672Y-80431000D01*
X203308115Y-80431000D01*
X203292876Y-80435475D01*
X203291671Y-80436865D01*
X203290000Y-80444548D01*
X203290000Y-80734608D01*
X203279240Y-80785556D01*
X203242494Y-80868673D01*
X203239500Y-80894354D01*
X203239500Y-81688000D01*
X203219498Y-81756121D01*
X203165842Y-81802614D01*
X203113500Y-81814000D01*
X203081115Y-81814000D01*
X203065876Y-81818474D01*
X203060645Y-81824512D01*
X203000919Y-81862896D01*
X202965420Y-81868000D01*
X202162115Y-81868000D01*
X202146876Y-81872475D01*
X202145671Y-81873865D01*
X202144000Y-81881548D01*
X202144000Y-82573390D01*
X202148216Y-82587750D01*
X202160695Y-82589809D01*
X202232331Y-82582533D01*
X202244767Y-82579980D01*
X202344694Y-82548664D01*
X202415679Y-82547379D01*
X202476090Y-82584676D01*
X202483201Y-82593334D01*
X202521716Y-82644725D01*
X202534276Y-82657285D01*
X202636351Y-82733786D01*
X202651946Y-82742324D01*
X202771169Y-82787019D01*
X202827933Y-82829661D01*
X202852633Y-82896222D01*
X202837425Y-82965571D01*
X202787139Y-83015689D01*
X202726939Y-83031001D01*
X202595331Y-83031001D01*
X202588510Y-83031371D01*
X202537648Y-83036895D01*
X202522394Y-83040522D01*
X202409229Y-83082945D01*
X202338422Y-83088128D01*
X202320771Y-83082945D01*
X202207609Y-83040522D01*
X202192351Y-83036895D01*
X202141486Y-83031369D01*
X202134672Y-83031000D01*
X201762115Y-83031000D01*
X201746876Y-83035475D01*
X201745671Y-83036865D01*
X201744000Y-83044548D01*
X201744000Y-84041885D01*
X201236000Y-84041885D01*
X201236000Y-83049116D01*
X201231525Y-83033877D01*
X201230135Y-83032672D01*
X201222452Y-83031001D01*
X201162115Y-83031001D01*
X201146876Y-83035476D01*
X201145671Y-83036866D01*
X201144000Y-83044549D01*
X201144000Y-84041885D01*
X200636000Y-84041885D01*
X200636000Y-83080099D01*
X200632027Y-83066568D01*
X200625925Y-83065691D01*
X200476064Y-83120830D01*
X200464658Y-83126392D01*
X200310956Y-83221691D01*
X200300895Y-83229440D01*
X200169504Y-83353690D01*
X200161201Y-83363310D01*
X200057477Y-83511443D01*
X200051280Y-83522531D01*
X199979460Y-83688495D01*
X199975618Y-83700607D01*
X199938323Y-83879134D01*
X199937085Y-83888666D01*
X199937000Y-83891889D01*
X199937000Y-84041885D01*
X197993240Y-84041885D01*
X197989073Y-84003128D01*
X198020852Y-83939641D01*
X198081910Y-83903414D01*
X198113071Y-83899500D01*
X198609646Y-83899500D01*
X198613350Y-83899059D01*
X198613353Y-83899059D01*
X198620746Y-83898179D01*
X198635846Y-83896382D01*
X198645514Y-83892088D01*
X198727518Y-83855663D01*
X198738153Y-83850939D01*
X198817241Y-83771713D01*
X198822478Y-83759869D01*
X198858675Y-83677992D01*
X198862506Y-83669327D01*
X198865500Y-83643646D01*
X198865500Y-83323140D01*
X198885502Y-83255019D01*
X198939158Y-83208526D01*
X199009432Y-83198422D01*
X199051623Y-83212409D01*
X199130235Y-83255092D01*
X199137584Y-83257020D01*
X199286883Y-83296188D01*
X199286885Y-83296188D01*
X199294233Y-83298116D01*
X199380609Y-83299473D01*
X199456161Y-83300660D01*
X199456164Y-83300660D01*
X199463760Y-83300779D01*
X199471165Y-83299083D01*
X199471166Y-83299083D01*
X199531586Y-83285245D01*
X199629029Y-83262928D01*
X199780498Y-83186747D01*
X199894967Y-83088981D01*
X199903651Y-83081564D01*
X199903652Y-83081563D01*
X199909423Y-83076634D01*
X200008361Y-82938947D01*
X200011194Y-82931900D01*
X200068766Y-82788687D01*
X200068767Y-82788685D01*
X200071601Y-82781634D01*
X200091767Y-82639936D01*
X200094909Y-82617862D01*
X200094909Y-82617859D01*
X200095490Y-82613778D01*
X200095645Y-82599000D01*
X200093351Y-82580039D01*
X200091004Y-82560653D01*
X200075276Y-82430680D01*
X200015345Y-82272077D01*
X199997401Y-82245969D01*
X199923614Y-82138608D01*
X199923613Y-82138607D01*
X199919312Y-82132349D01*
X199913119Y-82126831D01*
X199798392Y-82024612D01*
X199798388Y-82024610D01*
X199792721Y-82019560D01*
X199642881Y-81940224D01*
X199478441Y-81898919D01*
X199470843Y-81898879D01*
X199470841Y-81898879D01*
X199393668Y-81898475D01*
X199308895Y-81898031D01*
X199301508Y-81899805D01*
X199301504Y-81899805D01*
X199158162Y-81934220D01*
X199144032Y-81937612D01*
X199137288Y-81941093D01*
X199137285Y-81941094D01*
X199000117Y-82011892D01*
X198993369Y-82015375D01*
X198987647Y-82020367D01*
X198987645Y-82020368D01*
X198871332Y-82121834D01*
X198865604Y-82126831D01*
X198861918Y-82132076D01*
X198801905Y-82169049D01*
X198768713Y-82173500D01*
X198697607Y-82173500D01*
X198688180Y-82176563D01*
X198688173Y-82176564D01*
X198674788Y-82180913D01*
X198655569Y-82185527D01*
X198641672Y-82187728D01*
X198641665Y-82187730D01*
X198631874Y-82189281D01*
X198610498Y-82200173D01*
X198592237Y-82207736D01*
X198569419Y-82215150D01*
X198561397Y-82220979D01*
X198561396Y-82220979D01*
X198550011Y-82229251D01*
X198533156Y-82239581D01*
X198511780Y-82250472D01*
X198500657Y-82261595D01*
X198438345Y-82295621D01*
X198411562Y-82298500D01*
X197920354Y-82298500D01*
X197916650Y-82298941D01*
X197916647Y-82298941D01*
X197911581Y-82299544D01*
X197894154Y-82301618D01*
X197885514Y-82305456D01*
X197885513Y-82305456D01*
X197802482Y-82342337D01*
X197791847Y-82347061D01*
X197783628Y-82355294D01*
X197783627Y-82355295D01*
X197763523Y-82375434D01*
X197712759Y-82426287D01*
X197708056Y-82436924D01*
X197708055Y-82436926D01*
X197690888Y-82475757D01*
X197667494Y-82528673D01*
X197664500Y-82554354D01*
X197664500Y-83579199D01*
X197644498Y-83647320D01*
X197590842Y-83693813D01*
X197522055Y-83704121D01*
X197479361Y-83698500D01*
X197400639Y-83698500D01*
X197396553Y-83699038D01*
X197396552Y-83699038D01*
X197372443Y-83702212D01*
X197283238Y-83713956D01*
X197137159Y-83774464D01*
X197011718Y-83870718D01*
X196915464Y-83996159D01*
X196854956Y-84142238D01*
X196834318Y-84299000D01*
X196345682Y-84299000D01*
X196325044Y-84142238D01*
X196264536Y-83996159D01*
X196168282Y-83870718D01*
X196042841Y-83774464D01*
X195896762Y-83713956D01*
X195807553Y-83702211D01*
X195742627Y-83673490D01*
X195703535Y-83614225D01*
X195698000Y-83577290D01*
X195698000Y-83371115D01*
X195693525Y-83355876D01*
X195692135Y-83354671D01*
X195684452Y-83353000D01*
X195162115Y-83353000D01*
X195146876Y-83357475D01*
X195145671Y-83358865D01*
X195144000Y-83366548D01*
X195144000Y-84088884D01*
X195148913Y-84105616D01*
X195152939Y-84157559D01*
X195134318Y-84299000D01*
X192756099Y-84299000D01*
X192792295Y-84227807D01*
X192816323Y-84150426D01*
X192861193Y-84005919D01*
X192862775Y-84000824D01*
X192880076Y-83870295D01*
X192893304Y-83770494D01*
X192893304Y-83770491D01*
X192894004Y-83765211D01*
X192893804Y-83759869D01*
X192889441Y-83643669D01*
X194082001Y-83643669D01*
X194082371Y-83650490D01*
X194087895Y-83701352D01*
X194091521Y-83716604D01*
X194136676Y-83837054D01*
X194145214Y-83852649D01*
X194221715Y-83954724D01*
X194234276Y-83967285D01*
X194336351Y-84043786D01*
X194351946Y-84052324D01*
X194472394Y-84097478D01*
X194487649Y-84101105D01*
X194538514Y-84106631D01*
X194545328Y-84107000D01*
X194617885Y-84107000D01*
X194633124Y-84102525D01*
X194634329Y-84101135D01*
X194636000Y-84093452D01*
X194636000Y-83371115D01*
X194631525Y-83355876D01*
X194630135Y-83354671D01*
X194622452Y-83353000D01*
X194100116Y-83353000D01*
X194084877Y-83357475D01*
X194083672Y-83358865D01*
X194082001Y-83366548D01*
X194082001Y-83643669D01*
X192889441Y-83643669D01*
X192885287Y-83533036D01*
X192885087Y-83527705D01*
X192836281Y-83295096D01*
X192802093Y-83208526D01*
X192750941Y-83079002D01*
X192750940Y-83079000D01*
X192748980Y-83074037D01*
X192726424Y-83036865D01*
X192628448Y-82875407D01*
X192625681Y-82870847D01*
X192587533Y-82826885D01*
X194082000Y-82826885D01*
X194086475Y-82842124D01*
X194087865Y-82843329D01*
X194095548Y-82845000D01*
X194617885Y-82845000D01*
X194633124Y-82840525D01*
X194634329Y-82839135D01*
X194636000Y-82831452D01*
X194636000Y-82826885D01*
X195144000Y-82826885D01*
X195148475Y-82842124D01*
X195149865Y-82843329D01*
X195157548Y-82845000D01*
X195679884Y-82845000D01*
X195695123Y-82840525D01*
X195696328Y-82839135D01*
X195697999Y-82831452D01*
X195697999Y-82554331D01*
X195697629Y-82547510D01*
X195692105Y-82496648D01*
X195688479Y-82481396D01*
X195643324Y-82360946D01*
X195634786Y-82345351D01*
X195558285Y-82243276D01*
X195545724Y-82230715D01*
X195443649Y-82154214D01*
X195428054Y-82145676D01*
X195307606Y-82100522D01*
X195292351Y-82096895D01*
X195241486Y-82091369D01*
X195234672Y-82091000D01*
X195162115Y-82091000D01*
X195146876Y-82095475D01*
X195145671Y-82096865D01*
X195144000Y-82104548D01*
X195144000Y-82826885D01*
X194636000Y-82826885D01*
X194636000Y-82109116D01*
X194631525Y-82093877D01*
X194630135Y-82092672D01*
X194622452Y-82091001D01*
X194545331Y-82091001D01*
X194538510Y-82091371D01*
X194487648Y-82096895D01*
X194472396Y-82100521D01*
X194351946Y-82145676D01*
X194336351Y-82154214D01*
X194234276Y-82230715D01*
X194221715Y-82243276D01*
X194145214Y-82345351D01*
X194136676Y-82360946D01*
X194091522Y-82481394D01*
X194087895Y-82496649D01*
X194082369Y-82547514D01*
X194082000Y-82554328D01*
X194082000Y-82826885D01*
X192587533Y-82826885D01*
X192469910Y-82691336D01*
X192465784Y-82687953D01*
X192465780Y-82687949D01*
X192326064Y-82573390D01*
X192286120Y-82540638D01*
X192281484Y-82537999D01*
X192281481Y-82537997D01*
X192177911Y-82479042D01*
X192079567Y-82423061D01*
X191856156Y-82341966D01*
X191850908Y-82341017D01*
X191626359Y-82300412D01*
X191626352Y-82300411D01*
X191622275Y-82299674D01*
X191604009Y-82298813D01*
X191598869Y-82298570D01*
X191598862Y-82298570D01*
X191597381Y-82298500D01*
X191430320Y-82298500D01*
X191348342Y-82305456D01*
X191258488Y-82313080D01*
X191258484Y-82313081D01*
X191253177Y-82313531D01*
X191248022Y-82314869D01*
X191248016Y-82314870D01*
X191084456Y-82357322D01*
X191023126Y-82373240D01*
X190925766Y-82417097D01*
X190811285Y-82468667D01*
X190811282Y-82468668D01*
X190806424Y-82470857D01*
X190609268Y-82603591D01*
X190605411Y-82607270D01*
X190605409Y-82607272D01*
X190566148Y-82644725D01*
X190437295Y-82767645D01*
X190295421Y-82958330D01*
X190187705Y-83170193D01*
X190186124Y-83175284D01*
X190186123Y-83175287D01*
X190147984Y-83298116D01*
X190117225Y-83397176D01*
X190116524Y-83402465D01*
X190088457Y-83614225D01*
X190085996Y-83632789D01*
X189690500Y-83632789D01*
X189690500Y-81878075D01*
X200789725Y-81878075D01*
X200849723Y-82041145D01*
X200855297Y-82052573D01*
X200953799Y-82211440D01*
X200961549Y-82221504D01*
X201089986Y-82357322D01*
X201099606Y-82365625D01*
X201252731Y-82472845D01*
X201263820Y-82479042D01*
X201435382Y-82553284D01*
X201447485Y-82557123D01*
X201618264Y-82592801D01*
X201632325Y-82591678D01*
X201636000Y-82581571D01*
X201636000Y-81886115D01*
X201631525Y-81870876D01*
X201630135Y-81869671D01*
X201622452Y-81868000D01*
X200804133Y-81868000D01*
X200790602Y-81871973D01*
X200789725Y-81878075D01*
X189690500Y-81878075D01*
X189690500Y-81342469D01*
X200794917Y-81342469D01*
X200795351Y-81356564D01*
X200803532Y-81360000D01*
X201617885Y-81360000D01*
X201633124Y-81355525D01*
X201634329Y-81354135D01*
X201636000Y-81346452D01*
X201636000Y-81341885D01*
X202144000Y-81341885D01*
X202148475Y-81357124D01*
X202149865Y-81358329D01*
X202157548Y-81360000D01*
X202871885Y-81360000D01*
X202887124Y-81355525D01*
X202888329Y-81354135D01*
X202890000Y-81346452D01*
X202890000Y-80449116D01*
X202885525Y-80433877D01*
X202884135Y-80432672D01*
X202876452Y-80431001D01*
X202845331Y-80431001D01*
X202838510Y-80431371D01*
X202787648Y-80436895D01*
X202772396Y-80440521D01*
X202651946Y-80485676D01*
X202636351Y-80494214D01*
X202534276Y-80570715D01*
X202521715Y-80583276D01*
X202485983Y-80630953D01*
X202429124Y-80673468D01*
X202358305Y-80678494D01*
X202347061Y-80675491D01*
X202332513Y-80670877D01*
X202161736Y-80635199D01*
X202147675Y-80636322D01*
X202144000Y-80646429D01*
X202144000Y-81341885D01*
X201636000Y-81341885D01*
X201636000Y-80654610D01*
X201631784Y-80640250D01*
X201619305Y-80638191D01*
X201547669Y-80645467D01*
X201535230Y-80648021D01*
X201356857Y-80703920D01*
X201345169Y-80708929D01*
X201181680Y-80799553D01*
X201171247Y-80806804D01*
X201029312Y-80928456D01*
X201020559Y-80937647D01*
X200905979Y-81085364D01*
X200899255Y-81096124D01*
X200816719Y-81263860D01*
X200812291Y-81275767D01*
X200794917Y-81342469D01*
X189690500Y-81342469D01*
X189690500Y-64241611D01*
X195334394Y-64241611D01*
X195352999Y-64410135D01*
X195411266Y-64569356D01*
X195505830Y-64710083D01*
X195511442Y-64715190D01*
X195511445Y-64715193D01*
X195625612Y-64819077D01*
X195625616Y-64819080D01*
X195631233Y-64824191D01*
X195637906Y-64827814D01*
X195637910Y-64827817D01*
X195773558Y-64901467D01*
X195773560Y-64901468D01*
X195780235Y-64905092D01*
X195787584Y-64907020D01*
X195936883Y-64946188D01*
X195936885Y-64946188D01*
X195944233Y-64948116D01*
X196029172Y-64949450D01*
X196089422Y-64950397D01*
X196157220Y-64971466D01*
X196176538Y-64987286D01*
X196262595Y-65073343D01*
X196296621Y-65135655D01*
X196299500Y-65162438D01*
X196299500Y-70431393D01*
X196306914Y-70454210D01*
X196311528Y-70473429D01*
X196315281Y-70497126D01*
X196319784Y-70505963D01*
X196319784Y-70505964D01*
X196326172Y-70518502D01*
X196333736Y-70536763D01*
X196338085Y-70550147D01*
X196338087Y-70550150D01*
X196341151Y-70559581D01*
X196353128Y-70576066D01*
X196355253Y-70578991D01*
X196365577Y-70595837D01*
X196376472Y-70617220D01*
X196400446Y-70641194D01*
X196691747Y-70932494D01*
X196951680Y-71192427D01*
X196985706Y-71254739D01*
X196987507Y-71297967D01*
X196984394Y-71321611D01*
X197002999Y-71490135D01*
X197061266Y-71649356D01*
X197065502Y-71655659D01*
X197065502Y-71655660D01*
X197075214Y-71670113D01*
X197155830Y-71790083D01*
X197161442Y-71795190D01*
X197161445Y-71795193D01*
X197275612Y-71899077D01*
X197275616Y-71899080D01*
X197281233Y-71904191D01*
X197287906Y-71907814D01*
X197287910Y-71907817D01*
X197423558Y-71981467D01*
X197423560Y-71981468D01*
X197430235Y-71985092D01*
X197437584Y-71987020D01*
X197586883Y-72026188D01*
X197586885Y-72026188D01*
X197594233Y-72028116D01*
X197680609Y-72029473D01*
X197756161Y-72030660D01*
X197756164Y-72030660D01*
X197763760Y-72030779D01*
X197771165Y-72029083D01*
X197771166Y-72029083D01*
X197831586Y-72015245D01*
X197929029Y-71992928D01*
X198080498Y-71916747D01*
X198200419Y-71814324D01*
X198203651Y-71811564D01*
X198203652Y-71811563D01*
X198209423Y-71806634D01*
X198308361Y-71668947D01*
X198317627Y-71645897D01*
X198368766Y-71518687D01*
X198368767Y-71518685D01*
X198371601Y-71511634D01*
X198388103Y-71395683D01*
X198394909Y-71347862D01*
X198394909Y-71347859D01*
X198395490Y-71343778D01*
X198395645Y-71329000D01*
X198375276Y-71160680D01*
X198339403Y-71065745D01*
X198334035Y-70994952D01*
X198367793Y-70932494D01*
X198429959Y-70898202D01*
X198500795Y-70902964D01*
X198546364Y-70932112D01*
X202886780Y-75272528D01*
X202908156Y-75283419D01*
X202925012Y-75293749D01*
X202944419Y-75307850D01*
X202967237Y-75315264D01*
X202985498Y-75322827D01*
X203006874Y-75333719D01*
X203016665Y-75335270D01*
X203016672Y-75335272D01*
X203030569Y-75337473D01*
X203049788Y-75342087D01*
X203063173Y-75346436D01*
X203063180Y-75346437D01*
X203072607Y-75349500D01*
X204218634Y-75349500D01*
X204286755Y-75369502D01*
X204305331Y-75385631D01*
X204305830Y-75385083D01*
X204425612Y-75494077D01*
X204425616Y-75494080D01*
X204431233Y-75499191D01*
X204437906Y-75502814D01*
X204437910Y-75502817D01*
X204573558Y-75576467D01*
X204573560Y-75576468D01*
X204580235Y-75580092D01*
X204587584Y-75582020D01*
X204736883Y-75621188D01*
X204736885Y-75621188D01*
X204744233Y-75623116D01*
X204830609Y-75624473D01*
X204906161Y-75625660D01*
X204906164Y-75625660D01*
X204913760Y-75625779D01*
X204921165Y-75624083D01*
X204921166Y-75624083D01*
X204981586Y-75610245D01*
X205079029Y-75587928D01*
X205230498Y-75511747D01*
X205359423Y-75401634D01*
X205458361Y-75263947D01*
X205521601Y-75106634D01*
X205545490Y-74938778D01*
X205545645Y-74924000D01*
X205525276Y-74755680D01*
X205465345Y-74597077D01*
X205452772Y-74578783D01*
X205373614Y-74463608D01*
X205373613Y-74463607D01*
X205369312Y-74457349D01*
X205363119Y-74451831D01*
X205248392Y-74349612D01*
X205248388Y-74349610D01*
X205242721Y-74344560D01*
X205092881Y-74265224D01*
X204928441Y-74223919D01*
X204920843Y-74223879D01*
X204920841Y-74223879D01*
X204843668Y-74223475D01*
X204758895Y-74223031D01*
X204751508Y-74224805D01*
X204751504Y-74224805D01*
X204608162Y-74259220D01*
X204594032Y-74262612D01*
X204587288Y-74266093D01*
X204587285Y-74266094D01*
X204536578Y-74292266D01*
X204443369Y-74340375D01*
X204437647Y-74345367D01*
X204437645Y-74345368D01*
X204324173Y-74444356D01*
X204315604Y-74451831D01*
X204311918Y-74457076D01*
X204251905Y-74494049D01*
X204218713Y-74498500D01*
X203368438Y-74498500D01*
X203300317Y-74478498D01*
X203279343Y-74461595D01*
X200782343Y-71964595D01*
X200748317Y-71902283D01*
X200753382Y-71831468D01*
X200795929Y-71774632D01*
X200862449Y-71749821D01*
X200871438Y-71749500D01*
X201243634Y-71749500D01*
X201311755Y-71769502D01*
X201330331Y-71785631D01*
X201330830Y-71785083D01*
X201450612Y-71894077D01*
X201450616Y-71894080D01*
X201456233Y-71899191D01*
X201462906Y-71902814D01*
X201462910Y-71902817D01*
X201598558Y-71976467D01*
X201598560Y-71976468D01*
X201605235Y-71980092D01*
X201612584Y-71982020D01*
X201761883Y-72021188D01*
X201761885Y-72021188D01*
X201769233Y-72023116D01*
X201855609Y-72024473D01*
X201931161Y-72025660D01*
X201931164Y-72025660D01*
X201938760Y-72025779D01*
X201946165Y-72024083D01*
X201946166Y-72024083D01*
X202043551Y-72001779D01*
X202104029Y-71987928D01*
X202255498Y-71911747D01*
X202372797Y-71811564D01*
X202378651Y-71806564D01*
X202378652Y-71806563D01*
X202384423Y-71801634D01*
X202483361Y-71663947D01*
X202490617Y-71645897D01*
X202543766Y-71513687D01*
X202543767Y-71513685D01*
X202546601Y-71506634D01*
X202569197Y-71347862D01*
X202569909Y-71342862D01*
X202569909Y-71342859D01*
X202570490Y-71338778D01*
X202570645Y-71324000D01*
X202550276Y-71155680D01*
X202490345Y-70997077D01*
X202425663Y-70902964D01*
X202398614Y-70863608D01*
X202398613Y-70863607D01*
X202394312Y-70857349D01*
X202377445Y-70842321D01*
X202273392Y-70749612D01*
X202273388Y-70749610D01*
X202267721Y-70744560D01*
X202261013Y-70741008D01*
X202254768Y-70736668D01*
X202256639Y-70733976D01*
X202216391Y-70694697D01*
X202200456Y-70625511D01*
X202224455Y-70558694D01*
X202269033Y-70520702D01*
X202288025Y-70511025D01*
X202357802Y-70497922D01*
X202402427Y-70511025D01*
X202488946Y-70555109D01*
X202498736Y-70556660D01*
X202498737Y-70556660D01*
X202523611Y-70560599D01*
X202579806Y-70569500D01*
X202697827Y-70569500D01*
X202815871Y-70569499D01*
X202820764Y-70568724D01*
X202820765Y-70568724D01*
X202896934Y-70556661D01*
X202896936Y-70556661D01*
X202906732Y-70555109D01*
X202916471Y-70550147D01*
X202993250Y-70511026D01*
X203063027Y-70497922D01*
X203107654Y-70511025D01*
X203194173Y-70555109D01*
X203203963Y-70556660D01*
X203203964Y-70556660D01*
X203228838Y-70560599D01*
X203285033Y-70569500D01*
X203403054Y-70569500D01*
X203521098Y-70569499D01*
X203537084Y-70566967D01*
X203607493Y-70576066D01*
X203661807Y-70621788D01*
X203682793Y-70691416D01*
X203682793Y-71509686D01*
X203690207Y-71532503D01*
X203694821Y-71551722D01*
X203698574Y-71575419D01*
X203703077Y-71584256D01*
X203703077Y-71584257D01*
X203709465Y-71596795D01*
X203717029Y-71615056D01*
X203721378Y-71628440D01*
X203721380Y-71628443D01*
X203724444Y-71637874D01*
X203730273Y-71645897D01*
X203738546Y-71657284D01*
X203748870Y-71674130D01*
X203759765Y-71695513D01*
X203876680Y-71812428D01*
X203910706Y-71874740D01*
X203912507Y-71917967D01*
X203909394Y-71941611D01*
X203927999Y-72110135D01*
X203986266Y-72269356D01*
X203990502Y-72275659D01*
X203990502Y-72275660D01*
X204003574Y-72295113D01*
X204080830Y-72410083D01*
X204086442Y-72415190D01*
X204086445Y-72415193D01*
X204200612Y-72519077D01*
X204200616Y-72519080D01*
X204206233Y-72524191D01*
X204212906Y-72527814D01*
X204212910Y-72527817D01*
X204348558Y-72601467D01*
X204348560Y-72601468D01*
X204355235Y-72605092D01*
X204362584Y-72607020D01*
X204511883Y-72646188D01*
X204511885Y-72646188D01*
X204519233Y-72648116D01*
X204605609Y-72649473D01*
X204681161Y-72650660D01*
X204681164Y-72650660D01*
X204688760Y-72650779D01*
X204696165Y-72649083D01*
X204696166Y-72649083D01*
X204756586Y-72635245D01*
X204854029Y-72612928D01*
X205005498Y-72536747D01*
X205134423Y-72426634D01*
X205233361Y-72288947D01*
X205244105Y-72262222D01*
X205293768Y-72138681D01*
X205296601Y-72131634D01*
X205297342Y-72131932D01*
X205331144Y-72076477D01*
X205395006Y-72045456D01*
X205447871Y-72047836D01*
X205536883Y-72071188D01*
X205536885Y-72071188D01*
X205544233Y-72073116D01*
X205630609Y-72074473D01*
X205706161Y-72075660D01*
X205706164Y-72075660D01*
X205713760Y-72075779D01*
X205721165Y-72074083D01*
X205721166Y-72074083D01*
X205781586Y-72060245D01*
X205879029Y-72037928D01*
X206030498Y-71961747D01*
X206122914Y-71882816D01*
X206153651Y-71856564D01*
X206153652Y-71856563D01*
X206159423Y-71851634D01*
X206258361Y-71713947D01*
X206262952Y-71702527D01*
X206318766Y-71563687D01*
X206318767Y-71563685D01*
X206321601Y-71556634D01*
X206340650Y-71422786D01*
X206344909Y-71392862D01*
X206344909Y-71392859D01*
X206345490Y-71388778D01*
X206345645Y-71374000D01*
X206325276Y-71205680D01*
X206265345Y-71047077D01*
X206169312Y-70907349D01*
X206045992Y-70797475D01*
X206045991Y-70797473D01*
X206042721Y-70794560D01*
X206043207Y-70794015D01*
X206002333Y-70743237D01*
X205994781Y-70672644D01*
X206029675Y-70605982D01*
X206035994Y-70599664D01*
X206121392Y-70488370D01*
X206129579Y-70474189D01*
X206183263Y-70344586D01*
X206187501Y-70328769D01*
X206201212Y-70224622D01*
X206201750Y-70216413D01*
X206201750Y-69546198D01*
X206221752Y-69478077D01*
X206275408Y-69431584D01*
X206345682Y-69421480D01*
X206359723Y-69424322D01*
X206446883Y-69447188D01*
X206446885Y-69447188D01*
X206454233Y-69449116D01*
X206540609Y-69450473D01*
X206616161Y-69451660D01*
X206616164Y-69451660D01*
X206623760Y-69451779D01*
X206631165Y-69450083D01*
X206631166Y-69450083D01*
X206691586Y-69436245D01*
X206789029Y-69413928D01*
X206940498Y-69337747D01*
X207069423Y-69227634D01*
X207168361Y-69089947D01*
X207231601Y-68932634D01*
X207255490Y-68764778D01*
X207255645Y-68750000D01*
X207235276Y-68581680D01*
X207175345Y-68423077D01*
X207079312Y-68283349D01*
X207017679Y-68228436D01*
X206980125Y-68168186D01*
X206975500Y-68134361D01*
X206975500Y-64307607D01*
X206968086Y-64284790D01*
X206963472Y-64265570D01*
X206962535Y-64259653D01*
X206959719Y-64241874D01*
X206948828Y-64220498D01*
X206941264Y-64202237D01*
X206936915Y-64188853D01*
X206936913Y-64188850D01*
X206933849Y-64179419D01*
X206919747Y-64160009D01*
X206909423Y-64143163D01*
X206898528Y-64121780D01*
X206078220Y-63301472D01*
X206056837Y-63290577D01*
X206039991Y-63280253D01*
X206028604Y-63271980D01*
X206020581Y-63266151D01*
X206011150Y-63263087D01*
X206011147Y-63263085D01*
X205997763Y-63258736D01*
X205979502Y-63251172D01*
X205966964Y-63244784D01*
X205966963Y-63244784D01*
X205958126Y-63240281D01*
X205934429Y-63236528D01*
X205915210Y-63231914D01*
X205892393Y-63224500D01*
X205671266Y-63224500D01*
X205603145Y-63204498D01*
X205580445Y-63184998D01*
X205579312Y-63183349D01*
X205552354Y-63159330D01*
X205458392Y-63075612D01*
X205458388Y-63075610D01*
X205452721Y-63070560D01*
X205302881Y-62991224D01*
X205138441Y-62949919D01*
X205130843Y-62949879D01*
X205130841Y-62949879D01*
X205053668Y-62949475D01*
X204968895Y-62949031D01*
X204961507Y-62950805D01*
X204961505Y-62950805D01*
X204929399Y-62958513D01*
X204872821Y-62972097D01*
X204801914Y-62968551D01*
X204744180Y-62927232D01*
X204739578Y-62920961D01*
X204658445Y-62802912D01*
X204648614Y-62788608D01*
X204648613Y-62788607D01*
X204644312Y-62782349D01*
X204638641Y-62777296D01*
X204523392Y-62674612D01*
X204523388Y-62674610D01*
X204517721Y-62669560D01*
X204367881Y-62590224D01*
X204203441Y-62548919D01*
X204195843Y-62548879D01*
X204195841Y-62548879D01*
X204118668Y-62548475D01*
X204033895Y-62548031D01*
X204011154Y-62553491D01*
X203940249Y-62549944D01*
X203882515Y-62508624D01*
X203863876Y-62475510D01*
X203818029Y-62354180D01*
X203815345Y-62347077D01*
X203719312Y-62207349D01*
X203682881Y-62174890D01*
X203598392Y-62099612D01*
X203598388Y-62099610D01*
X203592721Y-62094560D01*
X203442881Y-62015224D01*
X203278441Y-61973919D01*
X203270843Y-61973879D01*
X203270841Y-61973879D01*
X203193668Y-61973475D01*
X203108895Y-61973031D01*
X203101508Y-61974805D01*
X203101504Y-61974805D01*
X203034050Y-61991000D01*
X202968819Y-62006661D01*
X202897913Y-62003115D01*
X202840179Y-61961796D01*
X202813948Y-61895823D01*
X202827550Y-61826141D01*
X202843398Y-61803510D01*
X202844423Y-61802634D01*
X202943361Y-61664947D01*
X203006601Y-61507634D01*
X203016566Y-61437612D01*
X203029909Y-61343862D01*
X203029909Y-61343859D01*
X203030490Y-61339778D01*
X203030645Y-61325000D01*
X203010276Y-61156680D01*
X202950345Y-60998077D01*
X202914725Y-60946250D01*
X202858614Y-60864608D01*
X202858613Y-60864607D01*
X202854312Y-60858349D01*
X202848119Y-60852831D01*
X202733392Y-60750612D01*
X202733388Y-60750610D01*
X202727721Y-60745560D01*
X202577881Y-60666224D01*
X202413441Y-60624919D01*
X202405843Y-60624879D01*
X202405841Y-60624879D01*
X202328668Y-60624475D01*
X202243895Y-60624031D01*
X202236508Y-60625805D01*
X202236504Y-60625805D01*
X202094922Y-60659797D01*
X202079032Y-60663612D01*
X202072288Y-60667093D01*
X202072285Y-60667094D01*
X202023012Y-60692526D01*
X201928369Y-60741375D01*
X201800604Y-60852831D01*
X201796918Y-60858076D01*
X201736905Y-60895049D01*
X201703713Y-60899500D01*
X201003438Y-60899500D01*
X200935317Y-60879498D01*
X200914343Y-60862595D01*
X199038925Y-58987177D01*
X199004899Y-58924865D01*
X199003277Y-58880329D01*
X199004909Y-58868863D01*
X199004909Y-58868857D01*
X199005490Y-58864778D01*
X199005645Y-58850000D01*
X199004220Y-58838220D01*
X198993563Y-58750161D01*
X198992649Y-58742611D01*
X203619394Y-58742611D01*
X203637999Y-58911135D01*
X203664999Y-58984916D01*
X203691888Y-59058392D01*
X203696266Y-59070356D01*
X203700502Y-59076659D01*
X203700502Y-59076660D01*
X203713574Y-59096113D01*
X203790830Y-59211083D01*
X203796442Y-59216190D01*
X203796445Y-59216193D01*
X203910612Y-59320077D01*
X203910616Y-59320080D01*
X203916233Y-59325191D01*
X203922906Y-59328814D01*
X203922910Y-59328817D01*
X204058558Y-59402467D01*
X204058560Y-59402468D01*
X204065235Y-59406092D01*
X204072584Y-59408020D01*
X204221883Y-59447188D01*
X204221885Y-59447188D01*
X204229233Y-59449116D01*
X204315609Y-59450473D01*
X204391161Y-59451660D01*
X204391164Y-59451660D01*
X204398760Y-59451779D01*
X204406165Y-59450083D01*
X204406166Y-59450083D01*
X204514851Y-59425191D01*
X204564029Y-59413928D01*
X204715498Y-59337747D01*
X204794713Y-59270090D01*
X204838651Y-59232564D01*
X204838652Y-59232563D01*
X204844423Y-59227634D01*
X204943361Y-59089947D01*
X204948703Y-59076660D01*
X204953878Y-59063786D01*
X204997844Y-59008041D01*
X205064969Y-58984916D01*
X205133941Y-59001753D01*
X205182860Y-59053205D01*
X205196024Y-59096956D01*
X205202999Y-59160135D01*
X205261266Y-59319356D01*
X205265502Y-59325659D01*
X205265502Y-59325660D01*
X205275917Y-59341159D01*
X205355830Y-59460083D01*
X205361442Y-59465190D01*
X205361445Y-59465193D01*
X205475612Y-59569077D01*
X205475616Y-59569080D01*
X205481233Y-59574191D01*
X205487906Y-59577814D01*
X205487910Y-59577817D01*
X205623558Y-59651467D01*
X205623560Y-59651468D01*
X205630235Y-59655092D01*
X205637584Y-59657020D01*
X205786883Y-59696188D01*
X205786885Y-59696188D01*
X205794233Y-59698116D01*
X205880609Y-59699473D01*
X205956161Y-59700660D01*
X205956164Y-59700660D01*
X205963760Y-59700779D01*
X205971165Y-59699083D01*
X205971166Y-59699083D01*
X206031586Y-59685245D01*
X206129029Y-59662928D01*
X206280498Y-59586747D01*
X206409423Y-59476634D01*
X206508361Y-59338947D01*
X206517508Y-59316193D01*
X206568766Y-59188687D01*
X206568767Y-59188685D01*
X206571601Y-59181634D01*
X206589879Y-59053205D01*
X206594909Y-59017862D01*
X206594909Y-59017859D01*
X206595490Y-59013778D01*
X206595645Y-58999000D01*
X206575276Y-58830680D01*
X206515345Y-58672077D01*
X206505099Y-58657169D01*
X206423614Y-58538608D01*
X206423613Y-58538607D01*
X206419312Y-58532349D01*
X206357679Y-58477436D01*
X206320125Y-58417186D01*
X206315500Y-58383361D01*
X206315500Y-56388311D01*
X206335502Y-56320190D01*
X206389158Y-56273697D01*
X206459432Y-56263593D01*
X206473465Y-56266433D01*
X206594233Y-56298116D01*
X206680609Y-56299473D01*
X206756161Y-56300660D01*
X206756164Y-56300660D01*
X206763760Y-56300779D01*
X206771165Y-56299083D01*
X206771166Y-56299083D01*
X206882008Y-56273697D01*
X206929029Y-56262928D01*
X207080498Y-56186747D01*
X207209423Y-56076634D01*
X207213854Y-56070467D01*
X207218684Y-56065215D01*
X207279516Y-56028609D01*
X207311433Y-56024500D01*
X208076065Y-56024500D01*
X208144186Y-56044502D01*
X208190679Y-56098158D01*
X208200783Y-56168432D01*
X208171289Y-56233012D01*
X208158894Y-56245449D01*
X208134366Y-56266846D01*
X208065604Y-56326831D01*
X207968113Y-56465547D01*
X207906524Y-56623513D01*
X207884394Y-56791611D01*
X207902999Y-56960135D01*
X207961266Y-57119356D01*
X207965502Y-57125659D01*
X207965502Y-57125660D01*
X208051596Y-57253783D01*
X208051599Y-57253786D01*
X208055830Y-57260083D01*
X208061444Y-57265191D01*
X208123300Y-57321476D01*
X208160222Y-57382117D01*
X208164500Y-57414670D01*
X208164500Y-64666393D01*
X208171914Y-64689210D01*
X208176528Y-64708429D01*
X208180281Y-64732126D01*
X208184784Y-64740963D01*
X208184784Y-64740964D01*
X208191172Y-64753502D01*
X208198736Y-64771763D01*
X208203085Y-64785147D01*
X208203087Y-64785150D01*
X208206151Y-64794581D01*
X208211980Y-64802604D01*
X208220253Y-64813991D01*
X208230577Y-64830837D01*
X208241472Y-64852220D01*
X212052595Y-68663343D01*
X212086621Y-68725655D01*
X212089500Y-68752438D01*
X212089500Y-73295563D01*
X212069498Y-73363684D01*
X212052595Y-73384658D01*
X212050461Y-73386792D01*
X211988149Y-73420818D01*
X211960706Y-73423695D01*
X211904350Y-73423400D01*
X211833895Y-73423031D01*
X211826508Y-73424805D01*
X211826504Y-73424805D01*
X211683162Y-73459220D01*
X211669032Y-73462612D01*
X211662288Y-73466093D01*
X211662285Y-73466094D01*
X211525117Y-73536892D01*
X211518369Y-73540375D01*
X211390604Y-73651831D01*
X211386237Y-73658045D01*
X211312908Y-73762382D01*
X211293113Y-73790547D01*
X211231524Y-73948513D01*
X211230532Y-73956046D01*
X211230532Y-73956047D01*
X211212609Y-74092191D01*
X211209394Y-74116611D01*
X211227999Y-74285135D01*
X211286266Y-74444356D01*
X211290502Y-74450659D01*
X211290502Y-74450660D01*
X211303574Y-74470113D01*
X211380830Y-74585083D01*
X211386442Y-74590190D01*
X211386445Y-74590193D01*
X211500612Y-74694077D01*
X211500616Y-74694080D01*
X211506233Y-74699191D01*
X211512906Y-74702814D01*
X211512910Y-74702817D01*
X211648558Y-74776467D01*
X211648560Y-74776468D01*
X211655235Y-74780092D01*
X211662584Y-74782020D01*
X211811883Y-74821188D01*
X211811885Y-74821188D01*
X211819233Y-74823116D01*
X211905609Y-74824473D01*
X211981161Y-74825660D01*
X211981164Y-74825660D01*
X211988760Y-74825779D01*
X211996165Y-74824083D01*
X211996166Y-74824083D01*
X212056586Y-74810245D01*
X212154029Y-74787928D01*
X212305498Y-74711747D01*
X212434423Y-74601634D01*
X212533361Y-74463947D01*
X212536194Y-74456900D01*
X212593766Y-74313687D01*
X212593767Y-74313685D01*
X212596601Y-74306634D01*
X212620490Y-74138778D01*
X212620645Y-74124000D01*
X212616795Y-74092189D01*
X212628469Y-74022160D01*
X212652788Y-73987959D01*
X212768216Y-73872531D01*
X212768219Y-73872529D01*
X212849405Y-73791343D01*
X212911717Y-73757317D01*
X212982532Y-73762382D01*
X213039368Y-73804929D01*
X213064179Y-73871449D01*
X213064500Y-73880438D01*
X213064500Y-78666393D01*
X213071914Y-78689210D01*
X213076528Y-78708429D01*
X213080281Y-78732126D01*
X213084784Y-78740963D01*
X213084784Y-78740964D01*
X213091172Y-78753502D01*
X213098736Y-78771763D01*
X213103085Y-78785147D01*
X213103087Y-78785150D01*
X213106151Y-78794581D01*
X213111980Y-78802604D01*
X213120253Y-78813991D01*
X213130577Y-78830837D01*
X213141472Y-78852220D01*
X214527595Y-80238343D01*
X214561621Y-80300655D01*
X214564500Y-80327438D01*
X214564500Y-82050287D01*
X214544498Y-82118408D01*
X214496290Y-82162253D01*
X214408169Y-82207736D01*
X214393369Y-82215375D01*
X214387647Y-82220367D01*
X214387645Y-82220368D01*
X214329679Y-82270934D01*
X214265197Y-82300641D01*
X214232265Y-82301137D01*
X214209646Y-82298500D01*
X213520354Y-82298500D01*
X213516650Y-82298941D01*
X213516647Y-82298941D01*
X213511581Y-82299544D01*
X213494154Y-82301618D01*
X213485514Y-82305456D01*
X213485513Y-82305456D01*
X213402482Y-82342337D01*
X213391847Y-82347061D01*
X213383628Y-82355294D01*
X213383627Y-82355295D01*
X213363523Y-82375434D01*
X213312759Y-82426287D01*
X213308056Y-82436924D01*
X213308055Y-82436926D01*
X213290888Y-82475757D01*
X213267494Y-82528673D01*
X213264500Y-82554354D01*
X213264500Y-83579199D01*
X213244498Y-83647320D01*
X213190842Y-83693813D01*
X213122055Y-83704121D01*
X213079361Y-83698500D01*
X213000639Y-83698500D01*
X212996553Y-83699038D01*
X212996552Y-83699038D01*
X212972443Y-83702212D01*
X212883238Y-83713956D01*
X212737159Y-83774464D01*
X212611718Y-83870718D01*
X212515464Y-83996159D01*
X212454956Y-84142238D01*
X212434318Y-84299000D01*
X212454956Y-84455762D01*
X212515464Y-84601841D01*
X212611718Y-84727282D01*
X212618264Y-84732305D01*
X212639847Y-84748866D01*
X212737159Y-84823536D01*
X212883238Y-84884044D01*
X213000639Y-84899500D01*
X213079361Y-84899500D01*
X213196762Y-84884044D01*
X213342841Y-84823536D01*
X213440153Y-84748866D01*
X213461736Y-84732305D01*
X213468282Y-84727282D01*
X213564536Y-84601841D01*
X213625044Y-84455762D01*
X213645682Y-84299000D01*
X213625044Y-84142238D01*
X213596662Y-84073718D01*
X213589073Y-84003128D01*
X213620852Y-83939641D01*
X213681910Y-83903414D01*
X213713071Y-83899500D01*
X214209646Y-83899500D01*
X214213350Y-83899059D01*
X214213353Y-83899059D01*
X214220746Y-83898179D01*
X214235846Y-83896382D01*
X214245514Y-83892088D01*
X214327518Y-83855663D01*
X214338153Y-83850939D01*
X214417241Y-83771713D01*
X214422478Y-83759869D01*
X214458675Y-83677992D01*
X214462506Y-83669327D01*
X214465500Y-83643646D01*
X214465500Y-83632789D01*
X215885996Y-83632789D01*
X215886196Y-83638118D01*
X215886196Y-83638119D01*
X215887014Y-83659916D01*
X215894913Y-83870295D01*
X215943719Y-84102904D01*
X215945677Y-84107863D01*
X215945678Y-84107865D01*
X216021162Y-84299000D01*
X216031020Y-84323963D01*
X216154319Y-84527153D01*
X216157816Y-84531183D01*
X216300461Y-84695567D01*
X216310090Y-84706664D01*
X216314216Y-84710047D01*
X216314220Y-84710051D01*
X216346003Y-84736111D01*
X216493880Y-84857362D01*
X216498516Y-84860001D01*
X216498519Y-84860003D01*
X216567906Y-84899500D01*
X216700433Y-84974939D01*
X216923844Y-85056034D01*
X216929092Y-85056983D01*
X217153641Y-85097588D01*
X217153648Y-85097589D01*
X217157725Y-85098326D01*
X217175991Y-85099187D01*
X217181131Y-85099430D01*
X217181138Y-85099430D01*
X217182619Y-85099500D01*
X217349680Y-85099500D01*
X217432026Y-85092513D01*
X217521512Y-85084920D01*
X217521516Y-85084919D01*
X217526823Y-85084469D01*
X217531978Y-85083131D01*
X217531984Y-85083130D01*
X217711556Y-85036522D01*
X217756874Y-85024760D01*
X217873327Y-84972302D01*
X217968715Y-84929333D01*
X217968718Y-84929332D01*
X217973576Y-84927143D01*
X218170732Y-84794409D01*
X218218474Y-84748866D01*
X218259162Y-84710051D01*
X218342705Y-84630355D01*
X218484579Y-84439670D01*
X218592295Y-84227807D01*
X218616323Y-84150426D01*
X218661193Y-84005919D01*
X218662775Y-84000824D01*
X218680076Y-83870295D01*
X218693304Y-83770494D01*
X218693304Y-83770491D01*
X218694004Y-83765211D01*
X218693804Y-83759869D01*
X218685287Y-83533036D01*
X218685087Y-83527705D01*
X218636281Y-83295096D01*
X218602093Y-83208526D01*
X218550941Y-83079002D01*
X218550940Y-83079000D01*
X218548980Y-83074037D01*
X218526424Y-83036865D01*
X218428448Y-82875407D01*
X218425681Y-82870847D01*
X218269910Y-82691336D01*
X218265784Y-82687953D01*
X218265780Y-82687949D01*
X218126064Y-82573390D01*
X218086120Y-82540638D01*
X218081484Y-82537999D01*
X218081481Y-82537997D01*
X217977911Y-82479042D01*
X217879567Y-82423061D01*
X217656156Y-82341966D01*
X217650908Y-82341017D01*
X217426359Y-82300412D01*
X217426352Y-82300411D01*
X217422275Y-82299674D01*
X217404009Y-82298813D01*
X217398869Y-82298570D01*
X217398862Y-82298570D01*
X217397381Y-82298500D01*
X217230320Y-82298500D01*
X217148342Y-82305456D01*
X217058488Y-82313080D01*
X217058484Y-82313081D01*
X217053177Y-82313531D01*
X217048022Y-82314869D01*
X217048016Y-82314870D01*
X216884456Y-82357322D01*
X216823126Y-82373240D01*
X216725766Y-82417097D01*
X216611285Y-82468667D01*
X216611282Y-82468668D01*
X216606424Y-82470857D01*
X216409268Y-82603591D01*
X216405411Y-82607270D01*
X216405409Y-82607272D01*
X216366148Y-82644725D01*
X216237295Y-82767645D01*
X216095421Y-82958330D01*
X215987705Y-83170193D01*
X215986124Y-83175284D01*
X215986123Y-83175287D01*
X215947984Y-83298116D01*
X215917225Y-83397176D01*
X215916524Y-83402465D01*
X215888457Y-83614225D01*
X215885996Y-83632789D01*
X214465500Y-83632789D01*
X214465500Y-83601428D01*
X214485502Y-83533307D01*
X214539158Y-83486814D01*
X214609432Y-83476710D01*
X214623461Y-83479549D01*
X214694233Y-83498116D01*
X214780609Y-83499473D01*
X214856161Y-83500660D01*
X214856164Y-83500660D01*
X214863760Y-83500779D01*
X214871165Y-83499083D01*
X214871166Y-83499083D01*
X214931586Y-83485245D01*
X215029029Y-83462928D01*
X215180498Y-83386747D01*
X215286528Y-83296188D01*
X215303651Y-83281564D01*
X215303652Y-83281563D01*
X215309423Y-83276634D01*
X215408361Y-83138947D01*
X215423918Y-83100248D01*
X215468766Y-82988687D01*
X215468767Y-82988685D01*
X215471601Y-82981634D01*
X215491047Y-82845000D01*
X215494909Y-82817862D01*
X215494909Y-82817859D01*
X215495490Y-82813778D01*
X215495645Y-82799000D01*
X215493544Y-82781634D01*
X215482206Y-82687949D01*
X215475276Y-82630680D01*
X215423634Y-82494013D01*
X215415500Y-82449475D01*
X215415500Y-80031607D01*
X215408086Y-80008790D01*
X215403472Y-79989570D01*
X215401270Y-79975668D01*
X215399719Y-79965874D01*
X215388828Y-79944498D01*
X215381264Y-79926237D01*
X215376915Y-79912853D01*
X215376913Y-79912850D01*
X215373849Y-79903419D01*
X215359747Y-79884009D01*
X215349423Y-79867163D01*
X215338528Y-79845780D01*
X213952405Y-78459657D01*
X213918379Y-78397345D01*
X213915500Y-78370562D01*
X213915500Y-78150288D01*
X213935502Y-78082167D01*
X213989158Y-78035674D01*
X214059432Y-78025570D01*
X214101620Y-78039556D01*
X214123556Y-78051466D01*
X214123559Y-78051467D01*
X214130235Y-78055092D01*
X214137584Y-78057020D01*
X214286883Y-78096188D01*
X214286885Y-78096188D01*
X214294233Y-78098116D01*
X214380609Y-78099473D01*
X214456161Y-78100660D01*
X214456164Y-78100660D01*
X214463760Y-78100779D01*
X214471165Y-78099083D01*
X214471166Y-78099083D01*
X214531586Y-78085245D01*
X214629029Y-78062928D01*
X214780498Y-77986747D01*
X214881269Y-77900680D01*
X214903651Y-77881564D01*
X214903652Y-77881563D01*
X214909423Y-77876634D01*
X215008361Y-77738947D01*
X215033353Y-77676779D01*
X215068766Y-77588687D01*
X215068767Y-77588685D01*
X215071601Y-77581634D01*
X215084705Y-77489560D01*
X215094909Y-77417862D01*
X215094909Y-77417859D01*
X215095490Y-77413778D01*
X215095645Y-77399000D01*
X215075276Y-77230680D01*
X215015345Y-77072077D01*
X214955947Y-76985653D01*
X214923614Y-76938608D01*
X214923613Y-76938607D01*
X214919312Y-76932349D01*
X214857679Y-76877436D01*
X214820125Y-76817186D01*
X214815500Y-76783361D01*
X214815500Y-71490907D01*
X214835502Y-71422786D01*
X214889158Y-71376293D01*
X214959432Y-71366189D01*
X215024012Y-71395683D01*
X215062872Y-71459987D01*
X215062999Y-71461135D01*
X215065609Y-71468267D01*
X215108056Y-71584257D01*
X215121266Y-71620356D01*
X215125502Y-71626659D01*
X215125502Y-71626660D01*
X215135959Y-71642222D01*
X215215830Y-71761083D01*
X215221442Y-71766190D01*
X215221445Y-71766193D01*
X215335612Y-71870077D01*
X215335616Y-71870080D01*
X215341233Y-71875191D01*
X215347906Y-71878814D01*
X215347910Y-71878817D01*
X215483558Y-71952467D01*
X215483560Y-71952468D01*
X215490235Y-71956092D01*
X215497584Y-71958020D01*
X215646883Y-71997188D01*
X215646885Y-71997188D01*
X215654233Y-71999116D01*
X215740609Y-72000473D01*
X215816161Y-72001660D01*
X215816164Y-72001660D01*
X215823760Y-72001779D01*
X215831165Y-72000083D01*
X215831166Y-72000083D01*
X215891586Y-71986245D01*
X215989029Y-71963928D01*
X216140498Y-71887747D01*
X216229894Y-71811395D01*
X216294684Y-71782364D01*
X216364884Y-71792969D01*
X216396524Y-71814012D01*
X216421939Y-71837138D01*
X216485612Y-71895077D01*
X216485616Y-71895080D01*
X216491233Y-71900191D01*
X216497906Y-71903814D01*
X216497910Y-71903817D01*
X216581425Y-71949161D01*
X216640235Y-71981092D01*
X216644229Y-71982140D01*
X216699036Y-72024903D01*
X216722513Y-72091905D01*
X216706039Y-72160964D01*
X216685775Y-72187477D01*
X216176472Y-72696780D01*
X216165577Y-72718163D01*
X216155253Y-72735009D01*
X216141151Y-72754419D01*
X216138087Y-72763850D01*
X216138085Y-72763853D01*
X216133736Y-72777237D01*
X216126172Y-72795498D01*
X216115281Y-72816874D01*
X216113730Y-72826668D01*
X216111528Y-72840570D01*
X216106914Y-72859790D01*
X216099500Y-72882607D01*
X216099500Y-76359270D01*
X216079498Y-76427391D01*
X216056329Y-76454219D01*
X216000604Y-76502831D01*
X215903113Y-76641547D01*
X215841524Y-76799513D01*
X215819394Y-76967611D01*
X215837999Y-77136135D01*
X215896266Y-77295356D01*
X215900502Y-77301659D01*
X215900502Y-77301660D01*
X215913574Y-77321113D01*
X215990830Y-77436083D01*
X215996442Y-77441190D01*
X215996445Y-77441193D01*
X216110612Y-77545077D01*
X216110616Y-77545080D01*
X216116233Y-77550191D01*
X216122906Y-77553814D01*
X216122910Y-77553817D01*
X216258558Y-77627467D01*
X216258560Y-77627468D01*
X216265235Y-77631092D01*
X216272584Y-77633020D01*
X216421883Y-77672188D01*
X216421885Y-77672188D01*
X216429233Y-77674116D01*
X216515609Y-77675473D01*
X216591161Y-77676660D01*
X216591164Y-77676660D01*
X216598760Y-77676779D01*
X216606165Y-77675083D01*
X216606166Y-77675083D01*
X216666586Y-77661245D01*
X216764029Y-77638928D01*
X216915498Y-77562747D01*
X217000242Y-77490368D01*
X217038651Y-77457564D01*
X217038652Y-77457563D01*
X217044423Y-77452634D01*
X217143361Y-77314947D01*
X217151237Y-77295356D01*
X217203766Y-77164687D01*
X217203767Y-77164685D01*
X217206601Y-77157634D01*
X217213877Y-77106511D01*
X217229909Y-76993862D01*
X217229909Y-76993859D01*
X217230490Y-76989778D01*
X217230645Y-76975000D01*
X217228840Y-76960080D01*
X217224873Y-76927300D01*
X217210276Y-76806680D01*
X217150345Y-76648077D01*
X217054312Y-76508349D01*
X216992679Y-76453436D01*
X216955125Y-76393186D01*
X216950500Y-76359361D01*
X216950500Y-73178438D01*
X216970502Y-73110317D01*
X216987405Y-73089343D01*
X218086028Y-71990720D01*
X218096923Y-71969337D01*
X218107247Y-71952491D01*
X218115520Y-71941104D01*
X218121349Y-71933081D01*
X218124413Y-71923650D01*
X218124415Y-71923647D01*
X218128764Y-71910263D01*
X218136328Y-71892002D01*
X218142716Y-71879464D01*
X218142716Y-71879463D01*
X218147219Y-71870626D01*
X218150972Y-71846929D01*
X218155586Y-71827710D01*
X218163000Y-71804893D01*
X218163000Y-69920107D01*
X218159937Y-69910680D01*
X218159936Y-69910673D01*
X218155587Y-69897288D01*
X218150973Y-69878069D01*
X218148772Y-69864172D01*
X218148770Y-69864165D01*
X218147219Y-69854374D01*
X218136327Y-69832998D01*
X218128764Y-69814737D01*
X218124414Y-69801350D01*
X218121350Y-69791919D01*
X218107249Y-69772511D01*
X218096917Y-69755652D01*
X218090531Y-69743118D01*
X218086028Y-69734280D01*
X212512405Y-64160657D01*
X212478379Y-64098345D01*
X212475500Y-64071562D01*
X212475500Y-60682607D01*
X212468086Y-60659790D01*
X212463472Y-60640570D01*
X212461270Y-60626668D01*
X212459719Y-60616874D01*
X212448828Y-60595498D01*
X212441264Y-60577237D01*
X212436915Y-60563853D01*
X212436913Y-60563850D01*
X212433849Y-60554419D01*
X212419747Y-60535009D01*
X212409423Y-60518163D01*
X212398528Y-60496780D01*
X211213167Y-59311419D01*
X211179141Y-59249107D01*
X211177177Y-59237477D01*
X211175456Y-59223253D01*
X211115525Y-59064650D01*
X211083368Y-59017862D01*
X211023794Y-58931181D01*
X211023793Y-58931180D01*
X211019492Y-58924922D01*
X211004018Y-58911135D01*
X210898572Y-58817185D01*
X210898568Y-58817183D01*
X210892901Y-58812133D01*
X210886192Y-58808581D01*
X210886188Y-58808578D01*
X210824463Y-58775896D01*
X210773620Y-58726343D01*
X210757639Y-58657169D01*
X210781593Y-58590335D01*
X210801592Y-58568731D01*
X210903651Y-58481564D01*
X210903652Y-58481563D01*
X210909423Y-58476634D01*
X211008361Y-58338947D01*
X211039048Y-58262611D01*
X211068766Y-58188687D01*
X211068767Y-58188685D01*
X211071601Y-58181634D01*
X211090064Y-58051905D01*
X211094909Y-58017862D01*
X211094909Y-58017859D01*
X211095490Y-58013778D01*
X211095645Y-57999000D01*
X211082649Y-57891611D01*
X216284394Y-57891611D01*
X216302999Y-58060135D01*
X216335531Y-58149031D01*
X216350043Y-58188687D01*
X216361266Y-58219356D01*
X216365502Y-58225659D01*
X216365502Y-58225660D01*
X216378574Y-58245113D01*
X216455830Y-58360083D01*
X216461442Y-58365190D01*
X216461445Y-58365193D01*
X216575612Y-58469077D01*
X216575616Y-58469080D01*
X216581233Y-58474191D01*
X216587906Y-58477814D01*
X216587910Y-58477817D01*
X216723558Y-58551467D01*
X216723560Y-58551468D01*
X216730235Y-58555092D01*
X216737584Y-58557020D01*
X216886883Y-58596188D01*
X216886885Y-58596188D01*
X216894233Y-58598116D01*
X216980609Y-58599473D01*
X217056161Y-58600660D01*
X217056164Y-58600660D01*
X217063760Y-58600779D01*
X217071165Y-58599083D01*
X217071166Y-58599083D01*
X217131586Y-58585245D01*
X217229029Y-58562928D01*
X217380498Y-58486747D01*
X217469970Y-58410330D01*
X217503651Y-58381564D01*
X217503652Y-58381563D01*
X217509423Y-58376634D01*
X217608361Y-58238947D01*
X217619094Y-58212248D01*
X217668766Y-58088687D01*
X217668767Y-58088685D01*
X217671601Y-58081634D01*
X217681258Y-58013778D01*
X217694909Y-57917862D01*
X217694909Y-57917859D01*
X217695490Y-57913778D01*
X217695645Y-57899000D01*
X217693840Y-57884080D01*
X217676188Y-57738220D01*
X217675276Y-57730680D01*
X217615345Y-57572077D01*
X217588041Y-57532349D01*
X217523614Y-57438608D01*
X217523613Y-57438607D01*
X217519312Y-57432349D01*
X217457679Y-57377436D01*
X217420125Y-57317186D01*
X217415500Y-57283361D01*
X217415500Y-53814939D01*
X217435502Y-53746818D01*
X217459669Y-53719128D01*
X217503651Y-53681564D01*
X217503652Y-53681563D01*
X217509423Y-53676634D01*
X217608361Y-53538947D01*
X217616237Y-53519356D01*
X217668766Y-53388687D01*
X217668767Y-53388685D01*
X217671601Y-53381634D01*
X217695490Y-53213778D01*
X217695645Y-53199000D01*
X217693840Y-53184080D01*
X217676188Y-53038220D01*
X217675276Y-53030680D01*
X217615345Y-52872077D01*
X217519312Y-52732349D01*
X217507514Y-52721837D01*
X217398392Y-52624612D01*
X217398388Y-52624610D01*
X217392721Y-52619560D01*
X217242881Y-52540224D01*
X217078441Y-52498919D01*
X217070843Y-52498879D01*
X217070841Y-52498879D01*
X216993668Y-52498475D01*
X216908895Y-52498031D01*
X216901508Y-52499805D01*
X216901504Y-52499805D01*
X216758162Y-52534220D01*
X216744032Y-52537612D01*
X216737288Y-52541093D01*
X216737285Y-52541094D01*
X216732089Y-52543776D01*
X216593369Y-52615375D01*
X216465604Y-52726831D01*
X216368113Y-52865547D01*
X216306524Y-53023513D01*
X216284394Y-53191611D01*
X216302999Y-53360135D01*
X216361266Y-53519356D01*
X216365502Y-53525659D01*
X216365502Y-53525660D01*
X216451596Y-53653783D01*
X216451599Y-53653786D01*
X216455830Y-53660083D01*
X216488448Y-53689763D01*
X216523300Y-53721476D01*
X216560222Y-53782117D01*
X216564500Y-53814670D01*
X216564500Y-57283270D01*
X216544498Y-57351391D01*
X216521329Y-57378219D01*
X216465604Y-57426831D01*
X216368113Y-57565547D01*
X216306524Y-57723513D01*
X216305532Y-57731046D01*
X216305532Y-57731047D01*
X216292416Y-57830680D01*
X216284394Y-57891611D01*
X211082649Y-57891611D01*
X211075276Y-57830680D01*
X211015345Y-57672077D01*
X210951498Y-57579180D01*
X210923614Y-57538608D01*
X210923613Y-57538607D01*
X210919312Y-57532349D01*
X210857679Y-57477436D01*
X210820125Y-57417186D01*
X210815500Y-57383361D01*
X210815500Y-52327438D01*
X210835502Y-52259317D01*
X210852405Y-52238343D01*
X212669053Y-50421695D01*
X212669053Y-50421694D01*
X212728344Y-50362404D01*
X212790657Y-50328379D01*
X212817439Y-50325500D01*
X214303634Y-50325500D01*
X214371755Y-50345502D01*
X214390331Y-50361631D01*
X214390830Y-50361083D01*
X214510612Y-50470077D01*
X214510616Y-50470080D01*
X214516233Y-50475191D01*
X214522906Y-50478814D01*
X214522910Y-50478817D01*
X214658558Y-50552467D01*
X214658560Y-50552468D01*
X214665235Y-50556092D01*
X214672584Y-50558020D01*
X214821883Y-50597188D01*
X214821885Y-50597188D01*
X214829233Y-50599116D01*
X214915609Y-50600473D01*
X214991161Y-50601660D01*
X214991164Y-50601660D01*
X214998760Y-50601779D01*
X215006165Y-50600083D01*
X215006166Y-50600083D01*
X215066586Y-50586245D01*
X215164029Y-50563928D01*
X215315498Y-50487747D01*
X215414921Y-50402831D01*
X215438651Y-50382564D01*
X215438652Y-50382563D01*
X215444423Y-50377634D01*
X215543361Y-50239947D01*
X215569988Y-50173711D01*
X215613955Y-50117968D01*
X215681081Y-50094843D01*
X215750052Y-50111680D01*
X215791477Y-50150434D01*
X215861594Y-50254780D01*
X215861597Y-50254783D01*
X215865830Y-50261083D01*
X215871442Y-50266190D01*
X215871445Y-50266193D01*
X215985612Y-50370077D01*
X215985616Y-50370080D01*
X215991233Y-50375191D01*
X215997906Y-50378814D01*
X215997910Y-50378817D01*
X216133558Y-50452467D01*
X216133560Y-50452468D01*
X216140235Y-50456092D01*
X216147584Y-50458020D01*
X216296883Y-50497188D01*
X216296885Y-50497188D01*
X216304233Y-50499116D01*
X216390609Y-50500473D01*
X216466161Y-50501660D01*
X216466164Y-50501660D01*
X216473760Y-50501779D01*
X216481165Y-50500083D01*
X216481166Y-50500083D01*
X216589851Y-50475191D01*
X216639029Y-50463928D01*
X216790498Y-50387747D01*
X216869713Y-50320090D01*
X216913651Y-50282564D01*
X216913652Y-50282563D01*
X216919423Y-50277634D01*
X217018361Y-50139947D01*
X217081601Y-49982634D01*
X217093361Y-49900000D01*
X217104909Y-49818862D01*
X217104909Y-49818859D01*
X217105490Y-49814778D01*
X217105645Y-49800000D01*
X217085276Y-49631680D01*
X217025345Y-49473077D01*
X216929312Y-49333349D01*
X216923641Y-49328296D01*
X216808392Y-49225612D01*
X216808388Y-49225610D01*
X216802721Y-49220560D01*
X216652881Y-49141224D01*
X216488441Y-49099919D01*
X216480843Y-49099879D01*
X216480841Y-49099879D01*
X216383216Y-49099368D01*
X216352487Y-49099207D01*
X216284472Y-49078849D01*
X216264052Y-49062304D01*
X216028220Y-48826472D01*
X216006837Y-48815577D01*
X215989991Y-48805253D01*
X215978604Y-48796980D01*
X215970581Y-48791151D01*
X215961150Y-48788087D01*
X215961147Y-48788085D01*
X215947763Y-48783736D01*
X215929502Y-48776172D01*
X215916964Y-48769784D01*
X215916963Y-48769784D01*
X215908126Y-48765281D01*
X215884429Y-48761528D01*
X215865210Y-48756914D01*
X215842393Y-48749500D01*
X212575437Y-48749500D01*
X212507316Y-48729498D01*
X212460823Y-48675842D01*
X212450719Y-48605568D01*
X212480213Y-48540988D01*
X212486342Y-48534405D01*
X212629588Y-48391159D01*
X212691900Y-48357133D01*
X212768422Y-48364487D01*
X212787953Y-48372878D01*
X212849992Y-48386916D01*
X212988550Y-48418269D01*
X212988553Y-48418269D01*
X212994186Y-48419544D01*
X212999957Y-48419771D01*
X212999959Y-48419771D01*
X213061989Y-48422208D01*
X213205470Y-48427846D01*
X213211179Y-48427018D01*
X213211183Y-48427018D01*
X213409015Y-48398333D01*
X213409019Y-48398332D01*
X213414730Y-48397504D01*
X213501579Y-48368023D01*
X213609483Y-48331395D01*
X213609488Y-48331393D01*
X213614955Y-48329537D01*
X213658103Y-48305373D01*
X213794395Y-48229046D01*
X213794399Y-48229043D01*
X213799442Y-48226219D01*
X213962012Y-48091012D01*
X214097219Y-47928442D01*
X214100043Y-47923399D01*
X214100046Y-47923395D01*
X214197713Y-47748998D01*
X214197714Y-47748996D01*
X214200537Y-47743955D01*
X214202393Y-47738488D01*
X214202395Y-47738483D01*
X214266647Y-47549200D01*
X214268504Y-47543730D01*
X214298846Y-47334470D01*
X214300429Y-47274000D01*
X214281081Y-47063440D01*
X214275881Y-47045000D01*
X214225255Y-46865496D01*
X214223686Y-46859931D01*
X214214692Y-46841692D01*
X214132719Y-46675469D01*
X214130165Y-46670290D01*
X214003651Y-46500867D01*
X213876236Y-46383086D01*
X213852622Y-46361257D01*
X213852620Y-46361255D01*
X213848381Y-46357337D01*
X213756715Y-46299500D01*
X213674434Y-46247584D01*
X213674433Y-46247584D01*
X213669554Y-46244505D01*
X213473160Y-46166152D01*
X213467503Y-46165027D01*
X213467497Y-46165025D01*
X213274407Y-46126618D01*
X213270234Y-46125788D01*
X213207324Y-46092881D01*
X213172192Y-46031186D01*
X213175992Y-45960291D01*
X213217517Y-45902705D01*
X213276734Y-45877513D01*
X213409015Y-45858333D01*
X213409019Y-45858332D01*
X213414730Y-45857504D01*
X213494709Y-45830355D01*
X213609483Y-45791395D01*
X213609488Y-45791393D01*
X213614955Y-45789537D01*
X213619998Y-45786713D01*
X213794395Y-45689046D01*
X213794399Y-45689043D01*
X213799442Y-45686219D01*
X213962012Y-45551012D01*
X214097219Y-45388442D01*
X214100043Y-45383399D01*
X214100046Y-45383395D01*
X214197713Y-45208998D01*
X214197714Y-45208996D01*
X214200537Y-45203955D01*
X214202393Y-45198488D01*
X214202395Y-45198483D01*
X214266647Y-45009200D01*
X214268504Y-45003730D01*
X214278618Y-44933982D01*
X214293290Y-44832789D01*
X215885996Y-44832789D01*
X215894913Y-45070295D01*
X215943719Y-45302904D01*
X215945677Y-45307863D01*
X215945678Y-45307865D01*
X216026856Y-45513418D01*
X216031020Y-45523963D01*
X216033787Y-45528522D01*
X216033788Y-45528525D01*
X216059911Y-45571574D01*
X216154319Y-45727153D01*
X216157816Y-45731183D01*
X216293761Y-45887846D01*
X216310090Y-45906664D01*
X216314216Y-45910047D01*
X216314220Y-45910051D01*
X216399003Y-45979568D01*
X216493880Y-46057362D01*
X216498516Y-46060001D01*
X216498519Y-46060003D01*
X216534905Y-46080715D01*
X216700433Y-46174939D01*
X216923844Y-46256034D01*
X216929092Y-46256983D01*
X217153641Y-46297588D01*
X217153648Y-46297589D01*
X217157725Y-46298326D01*
X217175991Y-46299187D01*
X217181131Y-46299430D01*
X217181138Y-46299430D01*
X217182619Y-46299500D01*
X217349680Y-46299500D01*
X217432026Y-46292513D01*
X217521512Y-46284920D01*
X217521516Y-46284919D01*
X217526823Y-46284469D01*
X217531978Y-46283131D01*
X217531984Y-46283130D01*
X217732343Y-46231127D01*
X217756874Y-46224760D01*
X217874532Y-46171759D01*
X217968715Y-46129333D01*
X217968718Y-46129332D01*
X217973576Y-46127143D01*
X217986352Y-46118542D01*
X218082253Y-46053977D01*
X218170732Y-45994409D01*
X218186290Y-45979568D01*
X218259162Y-45910051D01*
X218342705Y-45830355D01*
X218484579Y-45639670D01*
X218592295Y-45427807D01*
X218596756Y-45413442D01*
X218661193Y-45205919D01*
X218662775Y-45200824D01*
X218685585Y-45028730D01*
X218693304Y-44970494D01*
X218693304Y-44970491D01*
X218694004Y-44965211D01*
X218685087Y-44727705D01*
X218636281Y-44495096D01*
X218634322Y-44490135D01*
X218550941Y-44279002D01*
X218550940Y-44279000D01*
X218548980Y-44274037D01*
X218539902Y-44259076D01*
X218428448Y-44075407D01*
X218425681Y-44070847D01*
X218355952Y-43990491D01*
X218273410Y-43895369D01*
X218273408Y-43895367D01*
X218269910Y-43891336D01*
X218265784Y-43887953D01*
X218265780Y-43887949D01*
X218114902Y-43764238D01*
X218086120Y-43740638D01*
X218081484Y-43737999D01*
X218081481Y-43737997D01*
X217957400Y-43667366D01*
X217879567Y-43623061D01*
X217656156Y-43541966D01*
X217650908Y-43541017D01*
X217426359Y-43500412D01*
X217426352Y-43500411D01*
X217422275Y-43499674D01*
X217404009Y-43498813D01*
X217398869Y-43498570D01*
X217398862Y-43498570D01*
X217397381Y-43498500D01*
X217230320Y-43498500D01*
X217147974Y-43505487D01*
X217058488Y-43513080D01*
X217058484Y-43513081D01*
X217053177Y-43513531D01*
X217048022Y-43514869D01*
X217048016Y-43514870D01*
X216892150Y-43555325D01*
X216823126Y-43573240D01*
X216739240Y-43611028D01*
X216611285Y-43668667D01*
X216611282Y-43668668D01*
X216606424Y-43670857D01*
X216602000Y-43673836D01*
X216601999Y-43673836D01*
X216587276Y-43683748D01*
X216409268Y-43803591D01*
X216237295Y-43967645D01*
X216095421Y-44158330D01*
X215987705Y-44370193D01*
X215986124Y-44375284D01*
X215986123Y-44375287D01*
X215932358Y-44548440D01*
X215917225Y-44597176D01*
X215916524Y-44602465D01*
X215888253Y-44815763D01*
X215885996Y-44832789D01*
X214293290Y-44832789D01*
X214298314Y-44798140D01*
X214298314Y-44798138D01*
X214298846Y-44794470D01*
X214300429Y-44734000D01*
X214281081Y-44523440D01*
X214223686Y-44319931D01*
X214212553Y-44297354D01*
X214132719Y-44135469D01*
X214130165Y-44130290D01*
X214003651Y-43960867D01*
X213859968Y-43828048D01*
X213852622Y-43821257D01*
X213852620Y-43821255D01*
X213848381Y-43817337D01*
X213802018Y-43788084D01*
X213674434Y-43707584D01*
X213674433Y-43707584D01*
X213669554Y-43704505D01*
X213473160Y-43626152D01*
X213467503Y-43625027D01*
X213467497Y-43625025D01*
X213271442Y-43586028D01*
X213271440Y-43586028D01*
X213265775Y-43584901D01*
X213260000Y-43584825D01*
X213259996Y-43584825D01*
X213153976Y-43583437D01*
X213054346Y-43582133D01*
X213048649Y-43583112D01*
X213048648Y-43583112D01*
X212851650Y-43616962D01*
X212851649Y-43616962D01*
X212845953Y-43617941D01*
X212647575Y-43691127D01*
X212642614Y-43694079D01*
X212642613Y-43694079D01*
X212605554Y-43716127D01*
X212465856Y-43799238D01*
X212306881Y-43938655D01*
X212175976Y-44104708D01*
X212173287Y-44109819D01*
X212173285Y-44109822D01*
X212145260Y-44163090D01*
X212077523Y-44291836D01*
X212014820Y-44493773D01*
X212014141Y-44499510D01*
X212000088Y-44618239D01*
X211972217Y-44683537D01*
X211913469Y-44723401D01*
X211842494Y-44725174D01*
X211781828Y-44688295D01*
X211750730Y-44624471D01*
X211749490Y-44614958D01*
X211741610Y-44529197D01*
X211741081Y-44523440D01*
X211683686Y-44319931D01*
X211672553Y-44297354D01*
X211592719Y-44135469D01*
X211590165Y-44130290D01*
X211463651Y-43960867D01*
X211319968Y-43828048D01*
X211312622Y-43821257D01*
X211312620Y-43821255D01*
X211308381Y-43817337D01*
X211262018Y-43788084D01*
X211134434Y-43707584D01*
X211134433Y-43707584D01*
X211129554Y-43704505D01*
X210933160Y-43626152D01*
X210927503Y-43625027D01*
X210927497Y-43625025D01*
X210731442Y-43586028D01*
X210731440Y-43586028D01*
X210725775Y-43584901D01*
X210720000Y-43584825D01*
X210719996Y-43584825D01*
X210613976Y-43583437D01*
X210514346Y-43582133D01*
X210508649Y-43583112D01*
X210508648Y-43583112D01*
X210311650Y-43616962D01*
X210311649Y-43616962D01*
X210305953Y-43617941D01*
X210107575Y-43691127D01*
X210102614Y-43694079D01*
X210102613Y-43694079D01*
X210065554Y-43716127D01*
X209925856Y-43799238D01*
X209766881Y-43938655D01*
X209635976Y-44104708D01*
X209633287Y-44109819D01*
X209633285Y-44109822D01*
X209605260Y-44163090D01*
X209537523Y-44291836D01*
X209474820Y-44493773D01*
X209474141Y-44499510D01*
X209460088Y-44618239D01*
X209432217Y-44683537D01*
X209373469Y-44723401D01*
X209302494Y-44725174D01*
X209241828Y-44688295D01*
X209210730Y-44624471D01*
X209209490Y-44614958D01*
X209201610Y-44529197D01*
X209201081Y-44523440D01*
X209143686Y-44319931D01*
X209132553Y-44297354D01*
X209052719Y-44135469D01*
X209050165Y-44130290D01*
X208923651Y-43960867D01*
X208779968Y-43828048D01*
X208772622Y-43821257D01*
X208772620Y-43821255D01*
X208768381Y-43817337D01*
X208722018Y-43788084D01*
X208594434Y-43707584D01*
X208594433Y-43707584D01*
X208589554Y-43704505D01*
X208393160Y-43626152D01*
X208387503Y-43625027D01*
X208387497Y-43625025D01*
X208191442Y-43586028D01*
X208191440Y-43586028D01*
X208185775Y-43584901D01*
X208180000Y-43584825D01*
X208179996Y-43584825D01*
X208073976Y-43583437D01*
X207974346Y-43582133D01*
X207968649Y-43583112D01*
X207968648Y-43583112D01*
X207771650Y-43616962D01*
X207771649Y-43616962D01*
X207765953Y-43617941D01*
X207567575Y-43691127D01*
X207562614Y-43694079D01*
X207562613Y-43694079D01*
X207525554Y-43716127D01*
X207385856Y-43799238D01*
X207226881Y-43938655D01*
X207095976Y-44104708D01*
X207093287Y-44109819D01*
X207093285Y-44109822D01*
X207065260Y-44163090D01*
X206997523Y-44291836D01*
X206934820Y-44493773D01*
X206909967Y-44703754D01*
X206923796Y-44914749D01*
X206925217Y-44920345D01*
X206925218Y-44920350D01*
X206947784Y-45009200D01*
X206975845Y-45119690D01*
X207064369Y-45311714D01*
X207186405Y-45484391D01*
X207190539Y-45488418D01*
X207302364Y-45597353D01*
X207337865Y-45631937D01*
X207342661Y-45635142D01*
X207342664Y-45635144D01*
X207456302Y-45711074D01*
X207513677Y-45749411D01*
X207518985Y-45751692D01*
X207518986Y-45751692D01*
X207702650Y-45830600D01*
X207702653Y-45830601D01*
X207707953Y-45832878D01*
X207713582Y-45834152D01*
X207713583Y-45834152D01*
X207892368Y-45874607D01*
X207954395Y-45909150D01*
X207987899Y-45971743D01*
X207982245Y-46042514D01*
X207939226Y-46098994D01*
X207872501Y-46123249D01*
X207864560Y-46123500D01*
X207170354Y-46123500D01*
X207166650Y-46123941D01*
X207166647Y-46123941D01*
X207159254Y-46124821D01*
X207144154Y-46126618D01*
X207135514Y-46130456D01*
X207135513Y-46130456D01*
X207069131Y-46159942D01*
X207041847Y-46172061D01*
X207033628Y-46180294D01*
X207033627Y-46180295D01*
X207003030Y-46210946D01*
X206962759Y-46251287D01*
X206958056Y-46261924D01*
X206958055Y-46261926D01*
X206948681Y-46283130D01*
X206917494Y-46353673D01*
X206914500Y-46379354D01*
X206914500Y-48168646D01*
X206917618Y-48194846D01*
X206921456Y-48203486D01*
X206921456Y-48203487D01*
X206958140Y-48286074D01*
X206963061Y-48297153D01*
X206971294Y-48305372D01*
X206971295Y-48305373D01*
X206996747Y-48330780D01*
X207042287Y-48376241D01*
X207052924Y-48380944D01*
X207052926Y-48380945D01*
X207090382Y-48397504D01*
X207144673Y-48421506D01*
X207170354Y-48424500D01*
X208959646Y-48424500D01*
X208963350Y-48424059D01*
X208963353Y-48424059D01*
X208970746Y-48423179D01*
X208985846Y-48421382D01*
X209088153Y-48375939D01*
X209167241Y-48296713D01*
X209180552Y-48266606D01*
X209198265Y-48226538D01*
X209212506Y-48194327D01*
X209215500Y-48168646D01*
X209215500Y-48052493D01*
X209235502Y-47984372D01*
X209289158Y-47937879D01*
X209359432Y-47927775D01*
X209424012Y-47957269D01*
X209448933Y-47986658D01*
X209502694Y-48074388D01*
X209508777Y-48082699D01*
X209648213Y-48243667D01*
X209655580Y-48250883D01*
X209819434Y-48386916D01*
X209827881Y-48392831D01*
X210011756Y-48500279D01*
X210021042Y-48504729D01*
X210220001Y-48580703D01*
X210229899Y-48583579D01*
X210333250Y-48604606D01*
X210347299Y-48603410D01*
X210351000Y-48593065D01*
X210351000Y-47146000D01*
X210371002Y-47077879D01*
X210424658Y-47031386D01*
X210477000Y-47020000D01*
X210733000Y-47020000D01*
X210801121Y-47040002D01*
X210847614Y-47093658D01*
X210859000Y-47146000D01*
X210859000Y-48592517D01*
X210863064Y-48606359D01*
X210876478Y-48608393D01*
X210888312Y-48606877D01*
X210888500Y-48608344D01*
X210952574Y-48613230D01*
X211009209Y-48656044D01*
X211033706Y-48722680D01*
X211018288Y-48791983D01*
X210997081Y-48820171D01*
X204901472Y-54915780D01*
X204890577Y-54937163D01*
X204880253Y-54954009D01*
X204866151Y-54973419D01*
X204863087Y-54982850D01*
X204863085Y-54982853D01*
X204858736Y-54996237D01*
X204851172Y-55014498D01*
X204846019Y-55024612D01*
X204840281Y-55035874D01*
X204838730Y-55045668D01*
X204836528Y-55059570D01*
X204831914Y-55078790D01*
X204824500Y-55101607D01*
X204824500Y-57596562D01*
X204804498Y-57664683D01*
X204787595Y-57685657D01*
X204460460Y-58012792D01*
X204398148Y-58046818D01*
X204370705Y-58049695D01*
X204315253Y-58049405D01*
X204243895Y-58049031D01*
X204236508Y-58050805D01*
X204236504Y-58050805D01*
X204139444Y-58074108D01*
X204079032Y-58088612D01*
X204072288Y-58092093D01*
X204072285Y-58092094D01*
X203935117Y-58162892D01*
X203928369Y-58166375D01*
X203922647Y-58171367D01*
X203922645Y-58171368D01*
X203867635Y-58219356D01*
X203800604Y-58277831D01*
X203796237Y-58284045D01*
X203725956Y-58384045D01*
X203703113Y-58416547D01*
X203641524Y-58574513D01*
X203640532Y-58582046D01*
X203640532Y-58582047D01*
X203620479Y-58734372D01*
X203619394Y-58742611D01*
X198992649Y-58742611D01*
X198985276Y-58681680D01*
X198925345Y-58523077D01*
X198896814Y-58481564D01*
X198833614Y-58389608D01*
X198833613Y-58389607D01*
X198829312Y-58383349D01*
X198823119Y-58377831D01*
X198708392Y-58275612D01*
X198708388Y-58275610D01*
X198702721Y-58270560D01*
X198552881Y-58191224D01*
X198388441Y-58149919D01*
X198380843Y-58149879D01*
X198380841Y-58149879D01*
X198303668Y-58149475D01*
X198218895Y-58149031D01*
X198211508Y-58150805D01*
X198211504Y-58150805D01*
X198114444Y-58174108D01*
X198054032Y-58188612D01*
X198047288Y-58192093D01*
X198047285Y-58192094D01*
X197910117Y-58262892D01*
X197903369Y-58266375D01*
X197897647Y-58271367D01*
X197897645Y-58271368D01*
X197883113Y-58284045D01*
X197775604Y-58377831D01*
X197748394Y-58416547D01*
X197696659Y-58490159D01*
X197678113Y-58516547D01*
X197616524Y-58674513D01*
X197615532Y-58682046D01*
X197615532Y-58682047D01*
X197595965Y-58830680D01*
X197594394Y-58842611D01*
X197612999Y-59011135D01*
X197615609Y-59018266D01*
X197667526Y-59160135D01*
X197671266Y-59170356D01*
X197765830Y-59311083D01*
X197771442Y-59316190D01*
X197771445Y-59316193D01*
X197885612Y-59420077D01*
X197885616Y-59420080D01*
X197891233Y-59425191D01*
X197897906Y-59428814D01*
X197897910Y-59428817D01*
X198033558Y-59502467D01*
X198033560Y-59502468D01*
X198040235Y-59506092D01*
X198047584Y-59508020D01*
X198196883Y-59547188D01*
X198196885Y-59547188D01*
X198204233Y-59549116D01*
X198289172Y-59550450D01*
X198349422Y-59551397D01*
X198417220Y-59572466D01*
X198436538Y-59588286D01*
X200521780Y-61673528D01*
X200543154Y-61684418D01*
X200560006Y-61694744D01*
X200579420Y-61708850D01*
X200588849Y-61711914D01*
X200588852Y-61711915D01*
X200602239Y-61716265D01*
X200620503Y-61723830D01*
X200641874Y-61734719D01*
X200651666Y-61736270D01*
X200651669Y-61736271D01*
X200665569Y-61738473D01*
X200684788Y-61743087D01*
X200698173Y-61747436D01*
X200698180Y-61747437D01*
X200707607Y-61750500D01*
X201703634Y-61750500D01*
X201771755Y-61770502D01*
X201790331Y-61786631D01*
X201790830Y-61786083D01*
X201910612Y-61895077D01*
X201910616Y-61895080D01*
X201916233Y-61900191D01*
X201922906Y-61903814D01*
X201922910Y-61903817D01*
X202058558Y-61977467D01*
X202058560Y-61977468D01*
X202065235Y-61981092D01*
X202072584Y-61983020D01*
X202221883Y-62022188D01*
X202221885Y-62022188D01*
X202229233Y-62024116D01*
X202315609Y-62025473D01*
X202391161Y-62026660D01*
X202391164Y-62026660D01*
X202398760Y-62026779D01*
X202406165Y-62025083D01*
X202406166Y-62025083D01*
X202439486Y-62017452D01*
X202546690Y-61992899D01*
X202617554Y-61997188D01*
X202674853Y-62039110D01*
X202700390Y-62105355D01*
X202686059Y-62174890D01*
X202669686Y-62198270D01*
X202665604Y-62201831D01*
X202568113Y-62340547D01*
X202506524Y-62498513D01*
X202505532Y-62506046D01*
X202505532Y-62506047D01*
X202493983Y-62593776D01*
X202484394Y-62666611D01*
X202485227Y-62674157D01*
X202485148Y-62681714D01*
X202464433Y-62749622D01*
X202410293Y-62795549D01*
X202388583Y-62802908D01*
X202244032Y-62837612D01*
X202237288Y-62841093D01*
X202237285Y-62841094D01*
X202100117Y-62911892D01*
X202093369Y-62915375D01*
X202087647Y-62920367D01*
X202087645Y-62920368D01*
X202051648Y-62951770D01*
X201965604Y-63026831D01*
X201868113Y-63165547D01*
X201806524Y-63323513D01*
X201784394Y-63491611D01*
X201785228Y-63499163D01*
X201788815Y-63531661D01*
X201776409Y-63601565D01*
X201752671Y-63634581D01*
X201644084Y-63743168D01*
X201633189Y-63764551D01*
X201622865Y-63781397D01*
X201608763Y-63800807D01*
X201605699Y-63810238D01*
X201605697Y-63810241D01*
X201601348Y-63823625D01*
X201593784Y-63841886D01*
X201582893Y-63863262D01*
X201581342Y-63873056D01*
X201579140Y-63886958D01*
X201574526Y-63906178D01*
X201567112Y-63928995D01*
X201567112Y-64648340D01*
X201547110Y-64716461D01*
X201493454Y-64762954D01*
X201466419Y-64771067D01*
X201462385Y-64785113D01*
X201462385Y-67818000D01*
X201442383Y-67886121D01*
X201388727Y-67932614D01*
X201336385Y-67944000D01*
X200533158Y-67944000D01*
X200465037Y-67923998D01*
X200418544Y-67870342D01*
X200407158Y-67818000D01*
X200407158Y-67575885D01*
X200757158Y-67575885D01*
X200761633Y-67591124D01*
X200763023Y-67592329D01*
X200770706Y-67594000D01*
X201094270Y-67594000D01*
X201109509Y-67589525D01*
X201110714Y-67588135D01*
X201112385Y-67580452D01*
X201112385Y-64785496D01*
X201108341Y-64771725D01*
X201094802Y-64769696D01*
X201052615Y-64775249D01*
X201036800Y-64779487D01*
X200982989Y-64801776D01*
X200912400Y-64809365D01*
X200886552Y-64801775D01*
X200832749Y-64779489D01*
X200816926Y-64775249D01*
X200775118Y-64769745D01*
X200760936Y-64771956D01*
X200757158Y-64785113D01*
X200757158Y-67575885D01*
X200407158Y-67575885D01*
X200407158Y-64785496D01*
X200403114Y-64771725D01*
X200389575Y-64769696D01*
X200347388Y-64775249D01*
X200331573Y-64779487D01*
X200201968Y-64833171D01*
X200187785Y-64841360D01*
X200076494Y-64926756D01*
X200071650Y-64931600D01*
X200009336Y-64965622D01*
X199982560Y-64968500D01*
X199826282Y-64968501D01*
X199758899Y-64968501D01*
X199754006Y-64969276D01*
X199754005Y-64969276D01*
X199677836Y-64981339D01*
X199677834Y-64981339D01*
X199668038Y-64982891D01*
X199581519Y-65026974D01*
X199511744Y-65040078D01*
X199467115Y-65026974D01*
X199463424Y-65025093D01*
X199380597Y-64982891D01*
X199370807Y-64981340D01*
X199370806Y-64981340D01*
X199345932Y-64977401D01*
X199289737Y-64968500D01*
X199171716Y-64968500D01*
X199053672Y-64968501D01*
X199048779Y-64969276D01*
X199048778Y-64969276D01*
X198972609Y-64981339D01*
X198972607Y-64981339D01*
X198962811Y-64982891D01*
X198876292Y-65026974D01*
X198806517Y-65040078D01*
X198761888Y-65026974D01*
X198758197Y-65025093D01*
X198675370Y-64982891D01*
X198665580Y-64981340D01*
X198665579Y-64981340D01*
X198640705Y-64977401D01*
X198584510Y-64968500D01*
X198517144Y-64968500D01*
X198360851Y-64968501D01*
X198292730Y-64948499D01*
X198271755Y-64931596D01*
X198266920Y-64926761D01*
X198155620Y-64841358D01*
X198141439Y-64833171D01*
X198011838Y-64779488D01*
X197996018Y-64775249D01*
X197954210Y-64769745D01*
X197940028Y-64771956D01*
X197936250Y-64785113D01*
X197936250Y-67818000D01*
X197916248Y-67886121D01*
X197862592Y-67932614D01*
X197810250Y-67944000D01*
X197712250Y-67944000D01*
X197644129Y-67923998D01*
X197597636Y-67870342D01*
X197586250Y-67818000D01*
X197586250Y-64785496D01*
X197582206Y-64771725D01*
X197568667Y-64769696D01*
X197526480Y-64775249D01*
X197510665Y-64779487D01*
X197381060Y-64833171D01*
X197366881Y-64841357D01*
X197331718Y-64868339D01*
X197265498Y-64893940D01*
X197195949Y-64879676D01*
X197145152Y-64830075D01*
X197136055Y-64809311D01*
X197134719Y-64800874D01*
X197130218Y-64792040D01*
X197130217Y-64792037D01*
X197123828Y-64779498D01*
X197116264Y-64761237D01*
X197111915Y-64747853D01*
X197111913Y-64747850D01*
X197108849Y-64738419D01*
X197094747Y-64719009D01*
X197084423Y-64702163D01*
X197073528Y-64680780D01*
X196778925Y-64386177D01*
X196744899Y-64323865D01*
X196743277Y-64279329D01*
X196744909Y-64267863D01*
X196744909Y-64267857D01*
X196745490Y-64263778D01*
X196745645Y-64249000D01*
X196743840Y-64234080D01*
X196732836Y-64143151D01*
X196725276Y-64080680D01*
X196665345Y-63922077D01*
X196604159Y-63833051D01*
X196573614Y-63788608D01*
X196573613Y-63788607D01*
X196569312Y-63782349D01*
X196563119Y-63776831D01*
X196448392Y-63674612D01*
X196448388Y-63674610D01*
X196442721Y-63669560D01*
X196292881Y-63590224D01*
X196128441Y-63548919D01*
X196120843Y-63548879D01*
X196120841Y-63548879D01*
X196043668Y-63548475D01*
X195958895Y-63548031D01*
X195951508Y-63549805D01*
X195951504Y-63549805D01*
X195808162Y-63584220D01*
X195794032Y-63587612D01*
X195787288Y-63591093D01*
X195787285Y-63591094D01*
X195703031Y-63634581D01*
X195643369Y-63665375D01*
X195515604Y-63776831D01*
X195492123Y-63810241D01*
X195424693Y-63906185D01*
X195418113Y-63915547D01*
X195356524Y-64073513D01*
X195355532Y-64081046D01*
X195355532Y-64081047D01*
X195335523Y-64233036D01*
X195334394Y-64241611D01*
X189690500Y-64241611D01*
X189690500Y-50867611D01*
X201419394Y-50867611D01*
X201437999Y-51036135D01*
X201496266Y-51195356D01*
X201561083Y-51291814D01*
X201582500Y-51362088D01*
X201582500Y-53584393D01*
X201589914Y-53607210D01*
X201594528Y-53626429D01*
X201598281Y-53650126D01*
X201602784Y-53658963D01*
X201602784Y-53658964D01*
X201609172Y-53671502D01*
X201616736Y-53689763D01*
X201621085Y-53703147D01*
X201621087Y-53703150D01*
X201624151Y-53712581D01*
X201638253Y-53731991D01*
X201648577Y-53748837D01*
X201659472Y-53770220D01*
X201683446Y-53794194D01*
X202951680Y-55062427D01*
X202985706Y-55124739D01*
X202987507Y-55167967D01*
X202984394Y-55191611D01*
X203002999Y-55360135D01*
X203061266Y-55519356D01*
X203065502Y-55525659D01*
X203065502Y-55525660D01*
X203078574Y-55545113D01*
X203155830Y-55660083D01*
X203161442Y-55665190D01*
X203161445Y-55665193D01*
X203275612Y-55769077D01*
X203275616Y-55769080D01*
X203281233Y-55774191D01*
X203287906Y-55777814D01*
X203287910Y-55777817D01*
X203423558Y-55851467D01*
X203423560Y-55851468D01*
X203430235Y-55855092D01*
X203437584Y-55857020D01*
X203586883Y-55896188D01*
X203586885Y-55896188D01*
X203594233Y-55898116D01*
X203680609Y-55899473D01*
X203756161Y-55900660D01*
X203756164Y-55900660D01*
X203763760Y-55900779D01*
X203771165Y-55899083D01*
X203771166Y-55899083D01*
X203831586Y-55885245D01*
X203929029Y-55862928D01*
X204080498Y-55786747D01*
X204209423Y-55676634D01*
X204308361Y-55538947D01*
X204316237Y-55519356D01*
X204368766Y-55388687D01*
X204368767Y-55388685D01*
X204371601Y-55381634D01*
X204390908Y-55245972D01*
X204394909Y-55217862D01*
X204394909Y-55217859D01*
X204395490Y-55213778D01*
X204395562Y-55206932D01*
X204395602Y-55203135D01*
X204395602Y-55203129D01*
X204395645Y-55199000D01*
X204375276Y-55030680D01*
X204315345Y-54872077D01*
X204219312Y-54732349D01*
X204213641Y-54727296D01*
X204098392Y-54624612D01*
X204098388Y-54624610D01*
X204092721Y-54619560D01*
X203942881Y-54540224D01*
X203778441Y-54498919D01*
X203770843Y-54498879D01*
X203770841Y-54498879D01*
X203673216Y-54498368D01*
X203642487Y-54498207D01*
X203574472Y-54477849D01*
X203554052Y-54461304D01*
X202470405Y-53377657D01*
X202436379Y-53315345D01*
X202433500Y-53288562D01*
X202433500Y-51581656D01*
X202453502Y-51513535D01*
X202502884Y-51469092D01*
X202508711Y-51466161D01*
X202508714Y-51466159D01*
X202515498Y-51462747D01*
X202644423Y-51352634D01*
X202743361Y-51214947D01*
X202806601Y-51057634D01*
X202830490Y-50889778D01*
X202830645Y-50875000D01*
X202828840Y-50860080D01*
X202811188Y-50714220D01*
X202810276Y-50706680D01*
X202750345Y-50548077D01*
X202718443Y-50501660D01*
X202658614Y-50414608D01*
X202658613Y-50414607D01*
X202654312Y-50408349D01*
X202642514Y-50397837D01*
X202533392Y-50300612D01*
X202533388Y-50300610D01*
X202527721Y-50295560D01*
X202377881Y-50216224D01*
X202213441Y-50174919D01*
X202205843Y-50174879D01*
X202205841Y-50174879D01*
X202128668Y-50174475D01*
X202043895Y-50174031D01*
X202036508Y-50175805D01*
X202036504Y-50175805D01*
X201893162Y-50210220D01*
X201879032Y-50213612D01*
X201872288Y-50217093D01*
X201872285Y-50217094D01*
X201745440Y-50282564D01*
X201728369Y-50291375D01*
X201722647Y-50296367D01*
X201722645Y-50296368D01*
X201685950Y-50328379D01*
X201600604Y-50402831D01*
X201503113Y-50541547D01*
X201441524Y-50699513D01*
X201419394Y-50867611D01*
X189690500Y-50867611D01*
X189690500Y-48193669D01*
X194032001Y-48193669D01*
X194032371Y-48200490D01*
X194037895Y-48251352D01*
X194041521Y-48266604D01*
X194086676Y-48387054D01*
X194095214Y-48402649D01*
X194171715Y-48504724D01*
X194184276Y-48517285D01*
X194286351Y-48593786D01*
X194301946Y-48602324D01*
X194422394Y-48647478D01*
X194437649Y-48651105D01*
X194488514Y-48656631D01*
X194495328Y-48657000D01*
X195117885Y-48657000D01*
X195133124Y-48652525D01*
X195134329Y-48651135D01*
X195136000Y-48643452D01*
X195136000Y-48638884D01*
X195644000Y-48638884D01*
X195648475Y-48654123D01*
X195649865Y-48655328D01*
X195657548Y-48656999D01*
X196284669Y-48656999D01*
X196291490Y-48656629D01*
X196342352Y-48651105D01*
X196357604Y-48647479D01*
X196478054Y-48602324D01*
X196493649Y-48593786D01*
X196595724Y-48517285D01*
X196608285Y-48504724D01*
X196684786Y-48402649D01*
X196693324Y-48387054D01*
X196738478Y-48266606D01*
X196742105Y-48251351D01*
X196747631Y-48200486D01*
X196748000Y-48193672D01*
X196748000Y-47571115D01*
X196743525Y-47555876D01*
X196742135Y-47554671D01*
X196734452Y-47553000D01*
X195662115Y-47553000D01*
X195646876Y-47557475D01*
X195645671Y-47558865D01*
X195644000Y-47566548D01*
X195644000Y-48638884D01*
X195136000Y-48638884D01*
X195136000Y-47571115D01*
X195131525Y-47555876D01*
X195130135Y-47554671D01*
X195122452Y-47553000D01*
X194050116Y-47553000D01*
X194034877Y-47557475D01*
X194033672Y-47558865D01*
X194032001Y-47566548D01*
X194032001Y-48193669D01*
X189690500Y-48193669D01*
X189690500Y-47026885D01*
X194032000Y-47026885D01*
X194036475Y-47042124D01*
X194037865Y-47043329D01*
X194045548Y-47045000D01*
X196729884Y-47045000D01*
X196745123Y-47040525D01*
X196746328Y-47039135D01*
X196747999Y-47031452D01*
X196747999Y-46404331D01*
X196747629Y-46397510D01*
X196742105Y-46346648D01*
X196738479Y-46331396D01*
X196693324Y-46210946D01*
X196684786Y-46195351D01*
X196608285Y-46093276D01*
X196595724Y-46080715D01*
X196493649Y-46004214D01*
X196478054Y-45995676D01*
X196357606Y-45950522D01*
X196342351Y-45946895D01*
X196291486Y-45941369D01*
X196284672Y-45941000D01*
X196114961Y-45941000D01*
X196046840Y-45920998D01*
X196000347Y-45867342D01*
X195990243Y-45797068D01*
X196019737Y-45732488D01*
X196041995Y-45712589D01*
X196044442Y-45711219D01*
X196207012Y-45576012D01*
X196342219Y-45413442D01*
X196345043Y-45408399D01*
X196345046Y-45408395D01*
X196442713Y-45233998D01*
X196442714Y-45233996D01*
X196445537Y-45228955D01*
X196447393Y-45223488D01*
X196447395Y-45223483D01*
X196511647Y-45034200D01*
X196513504Y-45028730D01*
X196523033Y-44963015D01*
X196543314Y-44823140D01*
X196543314Y-44823138D01*
X196543846Y-44819470D01*
X196545429Y-44759000D01*
X196526081Y-44548440D01*
X196512509Y-44500315D01*
X196477247Y-44375287D01*
X196468686Y-44344931D01*
X196457553Y-44322354D01*
X196377719Y-44160469D01*
X196375165Y-44155290D01*
X196248651Y-43985867D01*
X196093381Y-43842337D01*
X195969602Y-43764238D01*
X195919434Y-43732584D01*
X195919433Y-43732584D01*
X195914554Y-43729505D01*
X195718160Y-43651152D01*
X195712503Y-43650027D01*
X195712497Y-43650025D01*
X195516442Y-43611028D01*
X195516440Y-43611028D01*
X195510775Y-43609901D01*
X195505000Y-43609825D01*
X195504996Y-43609825D01*
X195398976Y-43608437D01*
X195299346Y-43607133D01*
X195293649Y-43608112D01*
X195293648Y-43608112D01*
X195096650Y-43641962D01*
X195096649Y-43641962D01*
X195090953Y-43642941D01*
X194892575Y-43716127D01*
X194887614Y-43719079D01*
X194887613Y-43719079D01*
X194715867Y-43821257D01*
X194710856Y-43824238D01*
X194551881Y-43963655D01*
X194420976Y-44129708D01*
X194418287Y-44134819D01*
X194418285Y-44134822D01*
X194405917Y-44158330D01*
X194322523Y-44316836D01*
X194259820Y-44518773D01*
X194234967Y-44728754D01*
X194248796Y-44939749D01*
X194250217Y-44945345D01*
X194250218Y-44945350D01*
X194272784Y-45034200D01*
X194300845Y-45144690D01*
X194389369Y-45336714D01*
X194511405Y-45509391D01*
X194515539Y-45513418D01*
X194649538Y-45643954D01*
X194662865Y-45656937D01*
X194667665Y-45660144D01*
X194742632Y-45710236D01*
X194788160Y-45764713D01*
X194797008Y-45835156D01*
X194766366Y-45899200D01*
X194705964Y-45936512D01*
X194672630Y-45941001D01*
X194495331Y-45941001D01*
X194488510Y-45941371D01*
X194437648Y-45946895D01*
X194422396Y-45950521D01*
X194301946Y-45995676D01*
X194286351Y-46004214D01*
X194184276Y-46080715D01*
X194171715Y-46093276D01*
X194095214Y-46195351D01*
X194086676Y-46210946D01*
X194041522Y-46331394D01*
X194037895Y-46346649D01*
X194032369Y-46397514D01*
X194032000Y-46404328D01*
X194032000Y-47026885D01*
X189690500Y-47026885D01*
X189690500Y-44832789D01*
X190085996Y-44832789D01*
X190094913Y-45070295D01*
X190143719Y-45302904D01*
X190145677Y-45307863D01*
X190145678Y-45307865D01*
X190226856Y-45513418D01*
X190231020Y-45523963D01*
X190233787Y-45528522D01*
X190233788Y-45528525D01*
X190259911Y-45571574D01*
X190354319Y-45727153D01*
X190357816Y-45731183D01*
X190493761Y-45887846D01*
X190510090Y-45906664D01*
X190514216Y-45910047D01*
X190514220Y-45910051D01*
X190599003Y-45979568D01*
X190693880Y-46057362D01*
X190698516Y-46060001D01*
X190698519Y-46060003D01*
X190734905Y-46080715D01*
X190900433Y-46174939D01*
X191123844Y-46256034D01*
X191129092Y-46256983D01*
X191353641Y-46297588D01*
X191353648Y-46297589D01*
X191357725Y-46298326D01*
X191375991Y-46299187D01*
X191381131Y-46299430D01*
X191381138Y-46299430D01*
X191382619Y-46299500D01*
X191549680Y-46299500D01*
X191632026Y-46292513D01*
X191721512Y-46284920D01*
X191721516Y-46284919D01*
X191726823Y-46284469D01*
X191731978Y-46283131D01*
X191731984Y-46283130D01*
X191932343Y-46231127D01*
X191956874Y-46224760D01*
X192074532Y-46171759D01*
X192168715Y-46129333D01*
X192168718Y-46129332D01*
X192173576Y-46127143D01*
X192186352Y-46118542D01*
X192282253Y-46053977D01*
X192370732Y-45994409D01*
X192386290Y-45979568D01*
X192459162Y-45910051D01*
X192542705Y-45830355D01*
X192684579Y-45639670D01*
X192792295Y-45427807D01*
X192796756Y-45413442D01*
X192861193Y-45205919D01*
X192862775Y-45200824D01*
X192885585Y-45028730D01*
X192893304Y-44970494D01*
X192893304Y-44970491D01*
X192894004Y-44965211D01*
X192885087Y-44727705D01*
X192836281Y-44495096D01*
X192834322Y-44490135D01*
X192750941Y-44279002D01*
X192750940Y-44279000D01*
X192748980Y-44274037D01*
X192739902Y-44259076D01*
X192628448Y-44075407D01*
X192625681Y-44070847D01*
X192555952Y-43990491D01*
X192473410Y-43895369D01*
X192473408Y-43895367D01*
X192469910Y-43891336D01*
X192465784Y-43887953D01*
X192465780Y-43887949D01*
X192314902Y-43764238D01*
X192286120Y-43740638D01*
X192281484Y-43737999D01*
X192281481Y-43737997D01*
X192157400Y-43667366D01*
X192079567Y-43623061D01*
X191856156Y-43541966D01*
X191850908Y-43541017D01*
X191626359Y-43500412D01*
X191626352Y-43500411D01*
X191622275Y-43499674D01*
X191604009Y-43498813D01*
X191598869Y-43498570D01*
X191598862Y-43498570D01*
X191597381Y-43498500D01*
X191430320Y-43498500D01*
X191347974Y-43505487D01*
X191258488Y-43513080D01*
X191258484Y-43513081D01*
X191253177Y-43513531D01*
X191248022Y-43514869D01*
X191248016Y-43514870D01*
X191092150Y-43555325D01*
X191023126Y-43573240D01*
X190939240Y-43611028D01*
X190811285Y-43668667D01*
X190811282Y-43668668D01*
X190806424Y-43670857D01*
X190802000Y-43673836D01*
X190801999Y-43673836D01*
X190787276Y-43683748D01*
X190609268Y-43803591D01*
X190437295Y-43967645D01*
X190295421Y-44158330D01*
X190187705Y-44370193D01*
X190186124Y-44375284D01*
X190186123Y-44375287D01*
X190132358Y-44548440D01*
X190117225Y-44597176D01*
X190116524Y-44602465D01*
X190088253Y-44815763D01*
X190085996Y-44832789D01*
X189690500Y-44832789D01*
X189690500Y-43225500D01*
X189710502Y-43157379D01*
X189764158Y-43110886D01*
X189816500Y-43099500D01*
X201523021Y-43099500D01*
X201591142Y-43119502D01*
G37*
%TD.AperFunction*%
%TA.AperFunction,Conductor*%
G36*
X204467479Y-64077435D02*
G01*
X204515819Y-64111066D01*
X204515830Y-64111083D01*
X204521447Y-64116194D01*
X204635612Y-64220077D01*
X204635616Y-64220080D01*
X204641233Y-64225191D01*
X204647906Y-64228814D01*
X204647910Y-64228817D01*
X204783558Y-64302467D01*
X204783560Y-64302468D01*
X204790235Y-64306092D01*
X204797584Y-64308020D01*
X204946883Y-64347188D01*
X204946885Y-64347188D01*
X204954233Y-64349116D01*
X205040609Y-64350473D01*
X205116161Y-64351660D01*
X205116164Y-64351660D01*
X205123760Y-64351779D01*
X205131165Y-64350083D01*
X205131166Y-64350083D01*
X205191586Y-64336245D01*
X205289029Y-64313928D01*
X205440498Y-64237747D01*
X205446269Y-64232818D01*
X205446272Y-64232816D01*
X205551761Y-64142719D01*
X205616551Y-64113688D01*
X205686751Y-64124293D01*
X205722687Y-64149435D01*
X206087595Y-64514343D01*
X206121621Y-64576655D01*
X206124500Y-64603438D01*
X206124500Y-64748052D01*
X206104498Y-64816173D01*
X206050842Y-64862666D01*
X205980568Y-64872770D01*
X205921796Y-64848015D01*
X205913120Y-64841358D01*
X205898939Y-64833171D01*
X205769338Y-64779488D01*
X205753518Y-64775249D01*
X205711710Y-64769745D01*
X205697528Y-64771956D01*
X205693750Y-64785113D01*
X205693750Y-67818000D01*
X205673748Y-67886121D01*
X205620092Y-67932614D01*
X205567750Y-67944000D01*
X205469750Y-67944000D01*
X205401629Y-67923998D01*
X205355136Y-67870342D01*
X205343750Y-67818000D01*
X205343750Y-64785496D01*
X205339706Y-64771725D01*
X205326167Y-64769696D01*
X205283980Y-64775249D01*
X205268165Y-64779487D01*
X205138560Y-64833171D01*
X205124377Y-64841360D01*
X205013086Y-64926756D01*
X205008242Y-64931600D01*
X204945928Y-64965622D01*
X204919152Y-64968500D01*
X204762883Y-64968501D01*
X204695488Y-64968501D01*
X204690595Y-64969276D01*
X204690594Y-64969276D01*
X204614425Y-64981339D01*
X204614423Y-64981339D01*
X204604627Y-64982891D01*
X204518108Y-65026974D01*
X204448333Y-65040078D01*
X204403704Y-65026974D01*
X204400013Y-65025093D01*
X204317186Y-64982891D01*
X204307396Y-64981340D01*
X204307395Y-64981340D01*
X204282521Y-64977401D01*
X204226326Y-64968500D01*
X204108305Y-64968500D01*
X203990261Y-64968501D01*
X203985368Y-64969276D01*
X203985367Y-64969276D01*
X203961209Y-64973102D01*
X203890798Y-64964002D01*
X203836485Y-64918279D01*
X203815500Y-64848653D01*
X203815500Y-64677438D01*
X203835502Y-64609317D01*
X203852405Y-64588343D01*
X204334352Y-64106396D01*
X204396664Y-64072370D01*
X204467479Y-64077435D01*
G37*
%TD.AperFunction*%
%TD*%
M02*
