%TF.GenerationSoftware,KiCad,Pcbnew,(6.0.9)*%
%TF.CreationDate,2023-01-20T21:16:28+01:00*%
%TF.ProjectId,AGH-CLK-01,4147482d-434c-44b2-9d30-312e6b696361,rev?*%
%TF.SameCoordinates,Original*%
%TF.FileFunction,Paste,Top*%
%TF.FilePolarity,Positive*%
%FSLAX46Y46*%
G04 Gerber Fmt 4.6, Leading zero omitted, Abs format (unit mm)*
G04 Created by KiCad (PCBNEW (6.0.9)) date 2023-01-20 21:16:28*
%MOMM*%
%LPD*%
G01*
G04 APERTURE LIST*
G04 Aperture macros list*
%AMRoundRect*
0 Rectangle with rounded corners*
0 $1 Rounding radius*
0 $2 $3 $4 $5 $6 $7 $8 $9 X,Y pos of 4 corners*
0 Add a 4 corners polygon primitive as box body*
4,1,4,$2,$3,$4,$5,$6,$7,$8,$9,$2,$3,0*
0 Add four circle primitives for the rounded corners*
1,1,$1+$1,$2,$3*
1,1,$1+$1,$4,$5*
1,1,$1+$1,$6,$7*
1,1,$1+$1,$8,$9*
0 Add four rect primitives between the rounded corners*
20,1,$1+$1,$2,$3,$4,$5,0*
20,1,$1+$1,$4,$5,$6,$7,0*
20,1,$1+$1,$6,$7,$8,$9,0*
20,1,$1+$1,$8,$9,$2,$3,0*%
G04 Aperture macros list end*
%ADD10RoundRect,0.250000X0.337500X0.475000X-0.337500X0.475000X-0.337500X-0.475000X0.337500X-0.475000X0*%
%ADD11RoundRect,0.237500X-0.250000X-0.237500X0.250000X-0.237500X0.250000X0.237500X-0.250000X0.237500X0*%
%ADD12RoundRect,0.237500X0.300000X0.237500X-0.300000X0.237500X-0.300000X-0.237500X0.300000X-0.237500X0*%
%ADD13R,1.560000X0.650000*%
%ADD14RoundRect,0.250000X-0.350000X-0.450000X0.350000X-0.450000X0.350000X0.450000X-0.350000X0.450000X0*%
%ADD15RoundRect,0.237500X-0.237500X0.250000X-0.237500X-0.250000X0.237500X-0.250000X0.237500X0.250000X0*%
%ADD16RoundRect,0.250000X-0.337500X-0.475000X0.337500X-0.475000X0.337500X0.475000X-0.337500X0.475000X0*%
%ADD17RoundRect,0.237500X0.250000X0.237500X-0.250000X0.237500X-0.250000X-0.237500X0.250000X-0.237500X0*%
%ADD18R,0.650000X1.560000*%
%ADD19RoundRect,0.250000X-0.475000X0.337500X-0.475000X-0.337500X0.475000X-0.337500X0.475000X0.337500X0*%
%ADD20RoundRect,0.250000X0.475000X-0.337500X0.475000X0.337500X-0.475000X0.337500X-0.475000X-0.337500X0*%
%ADD21RoundRect,0.150000X-0.150000X0.587500X-0.150000X-0.587500X0.150000X-0.587500X0.150000X0.587500X0*%
%ADD22RoundRect,0.125000X-0.625000X-0.125000X0.625000X-0.125000X0.625000X0.125000X-0.625000X0.125000X0*%
%ADD23RoundRect,0.125000X-0.125000X-0.625000X0.125000X-0.625000X0.125000X0.625000X-0.125000X0.625000X0*%
%ADD24RoundRect,0.150000X0.150000X-0.587500X0.150000X0.587500X-0.150000X0.587500X-0.150000X-0.587500X0*%
%ADD25RoundRect,0.150000X0.587500X0.150000X-0.587500X0.150000X-0.587500X-0.150000X0.587500X-0.150000X0*%
%ADD26RoundRect,0.250000X-0.412500X-0.650000X0.412500X-0.650000X0.412500X0.650000X-0.412500X0.650000X0*%
%ADD27R,1.800000X1.000000*%
%ADD28RoundRect,0.150000X-0.587500X-0.150000X0.587500X-0.150000X0.587500X0.150000X-0.587500X0.150000X0*%
G04 APERTURE END LIST*
D10*
%TO.C,C13*%
X197727500Y-81499000D03*
X195652500Y-81499000D03*
%TD*%
D11*
%TO.C,R4*%
X212177500Y-52099000D03*
X214002500Y-52099000D03*
%TD*%
D12*
%TO.C,C4*%
X196752500Y-60899000D03*
X195027500Y-60899000D03*
%TD*%
D13*
%TO.C,U5*%
X191340000Y-71549000D03*
X191340000Y-72499000D03*
X191340000Y-73449000D03*
X194040000Y-73449000D03*
X194040000Y-71549000D03*
%TD*%
D10*
%TO.C,C10*%
X203927500Y-69099000D03*
X201852500Y-69099000D03*
%TD*%
D14*
%TO.C,R13*%
X194990000Y-69199000D03*
X196990000Y-69199000D03*
%TD*%
D15*
%TO.C,R14*%
X197890000Y-77586500D03*
X197890000Y-79411500D03*
%TD*%
D11*
%TO.C,R12*%
X211277500Y-78899000D03*
X213102500Y-78899000D03*
%TD*%
D16*
%TO.C,C2*%
X213552500Y-64699000D03*
X215627500Y-64699000D03*
%TD*%
D12*
%TO.C,C5*%
X196790000Y-54699000D03*
X195065000Y-54699000D03*
%TD*%
D17*
%TO.C,R5*%
X192602500Y-69299000D03*
X190777500Y-69299000D03*
%TD*%
D18*
%TO.C,U3*%
X213440000Y-75549000D03*
X214390000Y-75549000D03*
X215340000Y-75549000D03*
X215340000Y-72849000D03*
X213440000Y-72849000D03*
%TD*%
D19*
%TO.C,C8*%
X195790000Y-77561500D03*
X195790000Y-79636500D03*
%TD*%
D15*
%TO.C,R11*%
X196190000Y-71586500D03*
X196190000Y-73411500D03*
%TD*%
D20*
%TO.C,C1*%
X200290000Y-55236500D03*
X200290000Y-53161500D03*
%TD*%
D21*
%TO.C,Q1*%
X193040000Y-60124000D03*
X191140000Y-60124000D03*
X192090000Y-61999000D03*
%TD*%
D17*
%TO.C,R7*%
X196902500Y-65499000D03*
X195077500Y-65499000D03*
%TD*%
%TO.C,R9*%
X209702500Y-67499000D03*
X207877500Y-67499000D03*
%TD*%
D22*
%TO.C,U1*%
X200515000Y-58099000D03*
X200515000Y-58899000D03*
X200515000Y-59699000D03*
X200515000Y-60499000D03*
X200515000Y-61299000D03*
X200515000Y-62099000D03*
X200515000Y-62899000D03*
X200515000Y-63699000D03*
D23*
X201890000Y-65074000D03*
X202690000Y-65074000D03*
X203490000Y-65074000D03*
X204290000Y-65074000D03*
X205090000Y-65074000D03*
X205890000Y-65074000D03*
X206690000Y-65074000D03*
X207490000Y-65074000D03*
D22*
X208865000Y-63699000D03*
X208865000Y-62899000D03*
X208865000Y-62099000D03*
X208865000Y-61299000D03*
X208865000Y-60499000D03*
X208865000Y-59699000D03*
X208865000Y-58899000D03*
X208865000Y-58099000D03*
D23*
X207490000Y-56724000D03*
X206690000Y-56724000D03*
X205890000Y-56724000D03*
X205090000Y-56724000D03*
X204290000Y-56724000D03*
X203490000Y-56724000D03*
X202690000Y-56724000D03*
X201890000Y-56724000D03*
%TD*%
D16*
%TO.C,C9*%
X213552500Y-67399000D03*
X215627500Y-67399000D03*
%TD*%
D10*
%TO.C,C12*%
X213327500Y-81399000D03*
X211252500Y-81399000D03*
%TD*%
D24*
%TO.C,D1*%
X216040000Y-56636500D03*
X217940000Y-56636500D03*
X216990000Y-54761500D03*
%TD*%
D17*
%TO.C,R10*%
X209902500Y-75399000D03*
X208077500Y-75399000D03*
%TD*%
D24*
%TO.C,D2*%
X216040000Y-61536500D03*
X217940000Y-61536500D03*
X216990000Y-59661500D03*
%TD*%
D16*
%TO.C,C7*%
X213552500Y-69899000D03*
X215627500Y-69899000D03*
%TD*%
D11*
%TO.C,R6*%
X195090000Y-67099000D03*
X196915000Y-67099000D03*
%TD*%
D18*
%TO.C,U4*%
X213940000Y-59049000D03*
X212990000Y-59049000D03*
X212040000Y-59049000D03*
X212040000Y-61749000D03*
X213940000Y-61749000D03*
%TD*%
D25*
%TO.C,U2*%
X192965000Y-77349000D03*
X192965000Y-75449000D03*
X191090000Y-76399000D03*
%TD*%
D26*
%TO.C,C11*%
X196327500Y-75399000D03*
X199452500Y-75399000D03*
%TD*%
D16*
%TO.C,C6*%
X190952500Y-79499000D03*
X193027500Y-79499000D03*
%TD*%
D21*
%TO.C,Q2*%
X192640000Y-65061500D03*
X190740000Y-65061500D03*
X191690000Y-66936500D03*
%TD*%
D10*
%TO.C,C3*%
X196952500Y-62799000D03*
X194877500Y-62799000D03*
%TD*%
D11*
%TO.C,R1*%
X191177500Y-57499000D03*
X193002500Y-57499000D03*
%TD*%
%TO.C,R3*%
X212177500Y-54199000D03*
X214002500Y-54199000D03*
%TD*%
D27*
%TO.C,Y1*%
X196390000Y-59149000D03*
X196390000Y-56649000D03*
%TD*%
D17*
%TO.C,R8*%
X209737500Y-70125000D03*
X207912500Y-70125000D03*
%TD*%
D11*
%TO.C,R2*%
X212177500Y-56399000D03*
X214002500Y-56399000D03*
%TD*%
D28*
%TO.C,Q3*%
X208152500Y-71749000D03*
X208152500Y-73649000D03*
X210027500Y-72699000D03*
%TD*%
M02*
