%TF.GenerationSoftware,KiCad,Pcbnew,(6.0.9)*%
%TF.CreationDate,2023-01-20T21:16:29+01:00*%
%TF.ProjectId,AGH-CLK-01,4147482d-434c-44b2-9d30-312e6b696361,rev?*%
%TF.SameCoordinates,Original*%
%TF.FileFunction,Soldermask,Bot*%
%TF.FilePolarity,Negative*%
%FSLAX46Y46*%
G04 Gerber Fmt 4.6, Leading zero omitted, Abs format (unit mm)*
G04 Created by KiCad (PCBNEW (6.0.9)) date 2023-01-20 21:16:29*
%MOMM*%
%LPD*%
G01*
G04 APERTURE LIST*
G04 Aperture macros list*
%AMRoundRect*
0 Rectangle with rounded corners*
0 $1 Rounding radius*
0 $2 $3 $4 $5 $6 $7 $8 $9 X,Y pos of 4 corners*
0 Add a 4 corners polygon primitive as box body*
4,1,4,$2,$3,$4,$5,$6,$7,$8,$9,$2,$3,0*
0 Add four circle primitives for the rounded corners*
1,1,$1+$1,$2,$3*
1,1,$1+$1,$4,$5*
1,1,$1+$1,$6,$7*
1,1,$1+$1,$8,$9*
0 Add four rect primitives between the rounded corners*
20,1,$1+$1,$2,$3,$4,$5,0*
20,1,$1+$1,$4,$5,$6,$7,0*
20,1,$1+$1,$6,$7,$8,$9,0*
20,1,$1+$1,$8,$9,$2,$3,0*%
G04 Aperture macros list end*
%ADD10C,2.200000*%
%ADD11R,1.700000X1.700000*%
%ADD12O,1.700000X1.700000*%
%ADD13R,0.400000X1.350000*%
%ADD14O,1.250000X0.950000*%
%ADD15O,0.890000X1.550000*%
%ADD16R,1.200000X1.550000*%
%ADD17R,1.500000X1.550000*%
%ADD18RoundRect,0.087500X-0.087500X2.412500X-0.087500X-2.412500X0.087500X-2.412500X0.087500X2.412500X0*%
%ADD19C,0.600000*%
%ADD20R,0.600000X1.000000*%
%ADD21R,0.500000X0.800000*%
G04 APERTURE END LIST*
D10*
%TO.C,H1*%
X217290000Y-83699000D03*
%TD*%
D11*
%TO.C,J5*%
X195390000Y-47299000D03*
D12*
X195390000Y-44759000D03*
%TD*%
D10*
%TO.C,H4*%
X191490000Y-83699000D03*
%TD*%
D11*
%TO.C,J1*%
X208065000Y-47274000D03*
D12*
X208065000Y-44734000D03*
X210605000Y-47274000D03*
X210605000Y-44734000D03*
X213145000Y-47274000D03*
X213145000Y-44734000D03*
%TD*%
D10*
%TO.C,H3*%
X191490000Y-44899000D03*
%TD*%
%TO.C,H2*%
X217290000Y-44899000D03*
%TD*%
D11*
%TO.C,J3*%
X199165000Y-44699000D03*
D12*
X201705000Y-44699000D03*
X204245000Y-44699000D03*
%TD*%
D13*
%TO.C,J2*%
X205690000Y-81614000D03*
X205040000Y-81614000D03*
X204390000Y-81614000D03*
X203740000Y-81614000D03*
X203090000Y-81614000D03*
D14*
X206890000Y-81614000D03*
X201890000Y-81614000D03*
D15*
X200890000Y-84314000D03*
D16*
X201490000Y-84314000D03*
X207290000Y-84314000D03*
D15*
X207890000Y-84314000D03*
D17*
X203390000Y-84314000D03*
X205390000Y-84314000D03*
%TD*%
D18*
%TO.C,J4*%
X197761250Y-67769000D03*
X198466477Y-67769000D03*
X199171704Y-67769000D03*
X199876931Y-67769000D03*
X200582158Y-67769000D03*
X201287385Y-67769000D03*
X201992612Y-67769000D03*
X202697839Y-67769000D03*
X203403066Y-67769000D03*
X204108293Y-67769000D03*
X204813520Y-67769000D03*
X205518750Y-67769000D03*
%TD*%
D19*
%TO.C,SW2*%
X197440000Y-84299000D03*
X195740000Y-84299000D03*
D20*
X194890000Y-83099000D03*
X198265000Y-83099000D03*
D21*
X198840000Y-84699000D03*
X194340000Y-84699000D03*
%TD*%
D19*
%TO.C,SW1*%
X211340000Y-84299000D03*
X213040000Y-84299000D03*
D20*
X210490000Y-83099000D03*
X213865000Y-83099000D03*
D21*
X214440000Y-84699000D03*
X209940000Y-84699000D03*
%TD*%
M02*
