%TF.GenerationSoftware,KiCad,Pcbnew,(6.0.9)*%
%TF.CreationDate,2023-01-20T21:16:28+01:00*%
%TF.ProjectId,AGH-CLK-01,4147482d-434c-44b2-9d30-312e6b696361,rev?*%
%TF.SameCoordinates,Original*%
%TF.FileFunction,Legend,Top*%
%TF.FilePolarity,Positive*%
%FSLAX46Y46*%
G04 Gerber Fmt 4.6, Leading zero omitted, Abs format (unit mm)*
G04 Created by KiCad (PCBNEW (6.0.9)) date 2023-01-20 21:16:28*
%MOMM*%
%LPD*%
G01*
G04 APERTURE LIST*
%ADD10C,0.150000*%
%ADD11C,0.075000*%
%ADD12C,0.125000*%
%ADD13C,0.120000*%
G04 APERTURE END LIST*
D10*
X192290000Y-47249000D02*
X193840000Y-45699000D01*
X192040000Y-47249000D02*
X192290000Y-47249000D01*
X193690000Y-46149000D02*
X193840000Y-45699000D01*
X190940000Y-47249000D02*
X192040000Y-47249000D01*
X193840000Y-45699000D02*
X193390000Y-45849000D01*
X193840000Y-45699000D02*
X193690000Y-46149000D01*
X190490000Y-47699000D02*
X190940000Y-47249000D01*
D11*
X198916190Y-64532333D02*
X198416190Y-64532333D01*
X198416190Y-64341857D01*
X198440000Y-64294238D01*
X198463809Y-64270428D01*
X198511428Y-64246619D01*
X198582857Y-64246619D01*
X198630476Y-64270428D01*
X198654285Y-64294238D01*
X198678095Y-64341857D01*
X198678095Y-64532333D01*
X198773333Y-64056142D02*
X198773333Y-63818047D01*
X198916190Y-64103761D02*
X198416190Y-63937095D01*
X198916190Y-63770428D01*
X198416190Y-63651380D02*
X198416190Y-63341857D01*
X198606666Y-63508523D01*
X198606666Y-63437095D01*
X198630476Y-63389476D01*
X198654285Y-63365666D01*
X198701904Y-63341857D01*
X198820952Y-63341857D01*
X198868571Y-63365666D01*
X198892380Y-63389476D01*
X198916190Y-63437095D01*
X198916190Y-63579952D01*
X198892380Y-63627571D01*
X198868571Y-63651380D01*
D12*
X215300714Y-48438285D02*
X215300714Y-47688285D01*
X215586428Y-47688285D01*
X215657857Y-47724000D01*
X215693571Y-47759714D01*
X215729285Y-47831142D01*
X215729285Y-47938285D01*
X215693571Y-48009714D01*
X215657857Y-48045428D01*
X215586428Y-48081142D01*
X215300714Y-48081142D01*
X216479285Y-48438285D02*
X216229285Y-48081142D01*
X216050714Y-48438285D02*
X216050714Y-47688285D01*
X216336428Y-47688285D01*
X216407857Y-47724000D01*
X216443571Y-47759714D01*
X216479285Y-47831142D01*
X216479285Y-47938285D01*
X216443571Y-48009714D01*
X216407857Y-48045428D01*
X216336428Y-48081142D01*
X216050714Y-48081142D01*
X216943571Y-47688285D02*
X217086428Y-47688285D01*
X217157857Y-47724000D01*
X217229285Y-47795428D01*
X217265000Y-47938285D01*
X217265000Y-48188285D01*
X217229285Y-48331142D01*
X217157857Y-48402571D01*
X217086428Y-48438285D01*
X216943571Y-48438285D01*
X216872142Y-48402571D01*
X216800714Y-48331142D01*
X216765000Y-48188285D01*
X216765000Y-47938285D01*
X216800714Y-47795428D01*
X216872142Y-47724000D01*
X216943571Y-47688285D01*
X217979285Y-47724000D02*
X217907857Y-47688285D01*
X217800714Y-47688285D01*
X217693571Y-47724000D01*
X217622142Y-47795428D01*
X217586428Y-47866857D01*
X217550714Y-48009714D01*
X217550714Y-48116857D01*
X217586428Y-48259714D01*
X217622142Y-48331142D01*
X217693571Y-48402571D01*
X217800714Y-48438285D01*
X217872142Y-48438285D01*
X217979285Y-48402571D01*
X218015000Y-48366857D01*
X218015000Y-48116857D01*
X217872142Y-48116857D01*
D11*
X217116190Y-68482333D02*
X216616190Y-68482333D01*
X216616190Y-68291857D01*
X216640000Y-68244238D01*
X216663809Y-68220428D01*
X216711428Y-68196619D01*
X216782857Y-68196619D01*
X216830476Y-68220428D01*
X216854285Y-68244238D01*
X216878095Y-68291857D01*
X216878095Y-68482333D01*
X216973333Y-68006142D02*
X216973333Y-67768047D01*
X217116190Y-68053761D02*
X216616190Y-67887095D01*
X217116190Y-67720428D01*
X216830476Y-67482333D02*
X216806666Y-67529952D01*
X216782857Y-67553761D01*
X216735238Y-67577571D01*
X216711428Y-67577571D01*
X216663809Y-67553761D01*
X216640000Y-67529952D01*
X216616190Y-67482333D01*
X216616190Y-67387095D01*
X216640000Y-67339476D01*
X216663809Y-67315666D01*
X216711428Y-67291857D01*
X216735238Y-67291857D01*
X216782857Y-67315666D01*
X216806666Y-67339476D01*
X216830476Y-67387095D01*
X216830476Y-67482333D01*
X216854285Y-67529952D01*
X216878095Y-67553761D01*
X216925714Y-67577571D01*
X217020952Y-67577571D01*
X217068571Y-67553761D01*
X217092380Y-67529952D01*
X217116190Y-67482333D01*
X217116190Y-67387095D01*
X217092380Y-67339476D01*
X217068571Y-67315666D01*
X217020952Y-67291857D01*
X216925714Y-67291857D01*
X216878095Y-67315666D01*
X216854285Y-67339476D01*
X216830476Y-67387095D01*
X207370952Y-53025190D02*
X207370952Y-52525190D01*
X207561428Y-52525190D01*
X207609047Y-52549000D01*
X207632857Y-52572809D01*
X207656666Y-52620428D01*
X207656666Y-52691857D01*
X207632857Y-52739476D01*
X207609047Y-52763285D01*
X207561428Y-52787095D01*
X207370952Y-52787095D01*
X208037619Y-52763285D02*
X208109047Y-52787095D01*
X208132857Y-52810904D01*
X208156666Y-52858523D01*
X208156666Y-52929952D01*
X208132857Y-52977571D01*
X208109047Y-53001380D01*
X208061428Y-53025190D01*
X207870952Y-53025190D01*
X207870952Y-52525190D01*
X208037619Y-52525190D01*
X208085238Y-52549000D01*
X208109047Y-52572809D01*
X208132857Y-52620428D01*
X208132857Y-52668047D01*
X208109047Y-52715666D01*
X208085238Y-52739476D01*
X208037619Y-52763285D01*
X207870952Y-52763285D01*
X208585238Y-52691857D02*
X208585238Y-53025190D01*
X208466190Y-52501380D02*
X208347142Y-52858523D01*
X208656666Y-52858523D01*
D12*
X190004285Y-48145428D02*
X190111428Y-48181142D01*
X190147142Y-48216857D01*
X190182857Y-48288285D01*
X190182857Y-48395428D01*
X190147142Y-48466857D01*
X190111428Y-48502571D01*
X190040000Y-48538285D01*
X189754285Y-48538285D01*
X189754285Y-47788285D01*
X190004285Y-47788285D01*
X190075714Y-47824000D01*
X190111428Y-47859714D01*
X190147142Y-47931142D01*
X190147142Y-48002571D01*
X190111428Y-48074000D01*
X190075714Y-48109714D01*
X190004285Y-48145428D01*
X189754285Y-48145428D01*
X190504285Y-48252571D02*
X191075714Y-48252571D01*
X190790000Y-48538285D02*
X190790000Y-47966857D01*
X192254285Y-48145428D02*
X192361428Y-48181142D01*
X192397142Y-48216857D01*
X192432857Y-48288285D01*
X192432857Y-48395428D01*
X192397142Y-48466857D01*
X192361428Y-48502571D01*
X192290000Y-48538285D01*
X192004285Y-48538285D01*
X192004285Y-47788285D01*
X192254285Y-47788285D01*
X192325714Y-47824000D01*
X192361428Y-47859714D01*
X192397142Y-47931142D01*
X192397142Y-48002571D01*
X192361428Y-48074000D01*
X192325714Y-48109714D01*
X192254285Y-48145428D01*
X192004285Y-48145428D01*
X192754285Y-48252571D02*
X193325714Y-48252571D01*
X198906666Y-46725190D02*
X198740000Y-46487095D01*
X198620952Y-46725190D02*
X198620952Y-46225190D01*
X198811428Y-46225190D01*
X198859047Y-46249000D01*
X198882857Y-46272809D01*
X198906666Y-46320428D01*
X198906666Y-46391857D01*
X198882857Y-46439476D01*
X198859047Y-46463285D01*
X198811428Y-46487095D01*
X198620952Y-46487095D01*
X199073333Y-46225190D02*
X199406666Y-46725190D01*
X199406666Y-46225190D02*
X199073333Y-46725190D01*
D11*
X203266190Y-54318047D02*
X202766190Y-54318047D01*
X202766190Y-54127571D01*
X202790000Y-54079952D01*
X202813809Y-54056142D01*
X202861428Y-54032333D01*
X202932857Y-54032333D01*
X202980476Y-54056142D01*
X203004285Y-54079952D01*
X203028095Y-54127571D01*
X203028095Y-54318047D01*
X203004285Y-53651380D02*
X203028095Y-53579952D01*
X203051904Y-53556142D01*
X203099523Y-53532333D01*
X203170952Y-53532333D01*
X203218571Y-53556142D01*
X203242380Y-53579952D01*
X203266190Y-53627571D01*
X203266190Y-53818047D01*
X202766190Y-53818047D01*
X202766190Y-53651380D01*
X202790000Y-53603761D01*
X202813809Y-53579952D01*
X202861428Y-53556142D01*
X202909047Y-53556142D01*
X202956666Y-53579952D01*
X202980476Y-53603761D01*
X203004285Y-53651380D01*
X203004285Y-53818047D01*
X202766190Y-53079952D02*
X202766190Y-53318047D01*
X203004285Y-53341857D01*
X202980476Y-53318047D01*
X202956666Y-53270428D01*
X202956666Y-53151380D01*
X202980476Y-53103761D01*
X203004285Y-53079952D01*
X203051904Y-53056142D01*
X203170952Y-53056142D01*
X203218571Y-53079952D01*
X203242380Y-53103761D01*
X203266190Y-53151380D01*
X203266190Y-53270428D01*
X203242380Y-53318047D01*
X203218571Y-53341857D01*
D12*
X203818571Y-46288285D02*
X204247142Y-46288285D01*
X204032857Y-47038285D02*
X204032857Y-46288285D01*
X204425714Y-46288285D02*
X204925714Y-47038285D01*
X204925714Y-46288285D02*
X204425714Y-47038285D01*
D11*
X216666190Y-73670428D02*
X216166190Y-73670428D01*
X216166190Y-73479952D01*
X216190000Y-73432333D01*
X216213809Y-73408523D01*
X216261428Y-73384714D01*
X216332857Y-73384714D01*
X216380476Y-73408523D01*
X216404285Y-73432333D01*
X216428095Y-73479952D01*
X216428095Y-73670428D01*
X216523333Y-73194238D02*
X216523333Y-72956142D01*
X216666190Y-73241857D02*
X216166190Y-73075190D01*
X216666190Y-72908523D01*
X216666190Y-72479952D02*
X216666190Y-72765666D01*
X216666190Y-72622809D02*
X216166190Y-72622809D01*
X216237619Y-72670428D01*
X216285238Y-72718047D01*
X216309047Y-72765666D01*
X216666190Y-72003761D02*
X216666190Y-72289476D01*
X216666190Y-72146619D02*
X216166190Y-72146619D01*
X216237619Y-72194238D01*
X216285238Y-72241857D01*
X216309047Y-72289476D01*
X216766190Y-76370428D02*
X216266190Y-76370428D01*
X216266190Y-76179952D01*
X216290000Y-76132333D01*
X216313809Y-76108523D01*
X216361428Y-76084714D01*
X216432857Y-76084714D01*
X216480476Y-76108523D01*
X216504285Y-76132333D01*
X216528095Y-76179952D01*
X216528095Y-76370428D01*
X216623333Y-75894238D02*
X216623333Y-75656142D01*
X216766190Y-75941857D02*
X216266190Y-75775190D01*
X216766190Y-75608523D01*
X216766190Y-75179952D02*
X216766190Y-75465666D01*
X216766190Y-75322809D02*
X216266190Y-75322809D01*
X216337619Y-75370428D01*
X216385238Y-75418047D01*
X216409047Y-75465666D01*
X216313809Y-74989476D02*
X216290000Y-74965666D01*
X216266190Y-74918047D01*
X216266190Y-74799000D01*
X216290000Y-74751380D01*
X216313809Y-74727571D01*
X216361428Y-74703761D01*
X216409047Y-74703761D01*
X216480476Y-74727571D01*
X216766190Y-75013285D01*
X216766190Y-74703761D01*
X201130952Y-48101190D02*
X201130952Y-47601190D01*
X201321428Y-47601190D01*
X201369047Y-47625000D01*
X201392857Y-47648809D01*
X201416666Y-47696428D01*
X201416666Y-47767857D01*
X201392857Y-47815476D01*
X201369047Y-47839285D01*
X201321428Y-47863095D01*
X201130952Y-47863095D01*
X201797619Y-47839285D02*
X201869047Y-47863095D01*
X201892857Y-47886904D01*
X201916666Y-47934523D01*
X201916666Y-48005952D01*
X201892857Y-48053571D01*
X201869047Y-48077380D01*
X201821428Y-48101190D01*
X201630952Y-48101190D01*
X201630952Y-47601190D01*
X201797619Y-47601190D01*
X201845238Y-47625000D01*
X201869047Y-47648809D01*
X201892857Y-47696428D01*
X201892857Y-47744047D01*
X201869047Y-47791666D01*
X201845238Y-47815476D01*
X201797619Y-47839285D01*
X201630952Y-47839285D01*
X202345238Y-47601190D02*
X202250000Y-47601190D01*
X202202380Y-47625000D01*
X202178571Y-47648809D01*
X202130952Y-47720238D01*
X202107142Y-47815476D01*
X202107142Y-48005952D01*
X202130952Y-48053571D01*
X202154761Y-48077380D01*
X202202380Y-48101190D01*
X202297619Y-48101190D01*
X202345238Y-48077380D01*
X202369047Y-48053571D01*
X202392857Y-48005952D01*
X202392857Y-47886904D01*
X202369047Y-47839285D01*
X202345238Y-47815476D01*
X202297619Y-47791666D01*
X202202380Y-47791666D01*
X202154761Y-47815476D01*
X202130952Y-47839285D01*
X202107142Y-47886904D01*
D12*
X199412857Y-79605666D02*
X199889047Y-79605666D01*
X199317619Y-79891380D02*
X199650952Y-78891380D01*
X199984285Y-79891380D01*
X200841428Y-78939000D02*
X200746190Y-78891380D01*
X200603333Y-78891380D01*
X200460476Y-78939000D01*
X200365238Y-79034238D01*
X200317619Y-79129476D01*
X200270000Y-79319952D01*
X200270000Y-79462809D01*
X200317619Y-79653285D01*
X200365238Y-79748523D01*
X200460476Y-79843761D01*
X200603333Y-79891380D01*
X200698571Y-79891380D01*
X200841428Y-79843761D01*
X200889047Y-79796142D01*
X200889047Y-79462809D01*
X200698571Y-79462809D01*
X201317619Y-79891380D02*
X201317619Y-78891380D01*
X201317619Y-79367571D02*
X201889047Y-79367571D01*
X201889047Y-79891380D02*
X201889047Y-78891380D01*
X202365238Y-79510428D02*
X203127142Y-79510428D01*
X204174761Y-79796142D02*
X204127142Y-79843761D01*
X203984285Y-79891380D01*
X203889047Y-79891380D01*
X203746190Y-79843761D01*
X203650952Y-79748523D01*
X203603333Y-79653285D01*
X203555714Y-79462809D01*
X203555714Y-79319952D01*
X203603333Y-79129476D01*
X203650952Y-79034238D01*
X203746190Y-78939000D01*
X203889047Y-78891380D01*
X203984285Y-78891380D01*
X204127142Y-78939000D01*
X204174761Y-78986619D01*
X205079523Y-79891380D02*
X204603333Y-79891380D01*
X204603333Y-78891380D01*
X205412857Y-79891380D02*
X205412857Y-78891380D01*
X205984285Y-79891380D02*
X205555714Y-79319952D01*
X205984285Y-78891380D02*
X205412857Y-79462809D01*
X206412857Y-79510428D02*
X207174761Y-79510428D01*
X207841428Y-78891380D02*
X207936666Y-78891380D01*
X208031904Y-78939000D01*
X208079523Y-78986619D01*
X208127142Y-79081857D01*
X208174761Y-79272333D01*
X208174761Y-79510428D01*
X208127142Y-79700904D01*
X208079523Y-79796142D01*
X208031904Y-79843761D01*
X207936666Y-79891380D01*
X207841428Y-79891380D01*
X207746190Y-79843761D01*
X207698571Y-79796142D01*
X207650952Y-79700904D01*
X207603333Y-79510428D01*
X207603333Y-79272333D01*
X207650952Y-79081857D01*
X207698571Y-78986619D01*
X207746190Y-78939000D01*
X207841428Y-78891380D01*
X209127142Y-79891380D02*
X208555714Y-79891380D01*
X208841428Y-79891380D02*
X208841428Y-78891380D01*
X208746190Y-79034238D01*
X208650952Y-79129476D01*
X208555714Y-79177095D01*
D11*
X203770952Y-49925190D02*
X203770952Y-49425190D01*
X203961428Y-49425190D01*
X204009047Y-49449000D01*
X204032857Y-49472809D01*
X204056666Y-49520428D01*
X204056666Y-49591857D01*
X204032857Y-49639476D01*
X204009047Y-49663285D01*
X203961428Y-49687095D01*
X203770952Y-49687095D01*
X204437619Y-49663285D02*
X204509047Y-49687095D01*
X204532857Y-49710904D01*
X204556666Y-49758523D01*
X204556666Y-49829952D01*
X204532857Y-49877571D01*
X204509047Y-49901380D01*
X204461428Y-49925190D01*
X204270952Y-49925190D01*
X204270952Y-49425190D01*
X204437619Y-49425190D01*
X204485238Y-49449000D01*
X204509047Y-49472809D01*
X204532857Y-49520428D01*
X204532857Y-49568047D01*
X204509047Y-49615666D01*
X204485238Y-49639476D01*
X204437619Y-49663285D01*
X204270952Y-49663285D01*
X204723333Y-49425190D02*
X205056666Y-49425190D01*
X204842380Y-49925190D01*
D13*
%TO.C,C13*%
X196951252Y-82234000D02*
X196428748Y-82234000D01*
X196951252Y-80764000D02*
X196428748Y-80764000D01*
%TO.C,R4*%
X212835276Y-51576500D02*
X213344724Y-51576500D01*
X212835276Y-52621500D02*
X213344724Y-52621500D01*
%TO.C,C4*%
X196036267Y-61409000D02*
X195743733Y-61409000D01*
X196036267Y-60389000D02*
X195743733Y-60389000D01*
%TO.C,J5*%
X196720000Y-46029000D02*
X194060000Y-46029000D01*
X196720000Y-46029000D02*
X196720000Y-43429000D01*
X196720000Y-43429000D02*
X194060000Y-43429000D01*
X194060000Y-46029000D02*
X194060000Y-43429000D01*
X196720000Y-48629000D02*
X195390000Y-48629000D01*
X196720000Y-47299000D02*
X196720000Y-48629000D01*
%TO.C,U5*%
X193590000Y-70889000D02*
X191140000Y-70889000D01*
X191790000Y-74109000D02*
X193590000Y-74109000D01*
%TO.C,C10*%
X203151252Y-68364000D02*
X202628748Y-68364000D01*
X203151252Y-69834000D02*
X202628748Y-69834000D01*
%TO.C,R13*%
X195762936Y-69934000D02*
X196217064Y-69934000D01*
X195762936Y-68464000D02*
X196217064Y-68464000D01*
%TO.C,R14*%
X198412500Y-78244276D02*
X198412500Y-78753724D01*
X197367500Y-78244276D02*
X197367500Y-78753724D01*
%TO.C,R12*%
X211935276Y-79421500D02*
X212444724Y-79421500D01*
X211935276Y-78376500D02*
X212444724Y-78376500D01*
%TO.C,C2*%
X214328748Y-65434000D02*
X214851252Y-65434000D01*
X214328748Y-63964000D02*
X214851252Y-63964000D01*
%TO.C,TP6*%
X218940000Y-70649000D02*
X217040000Y-70649000D01*
X217040000Y-68749000D02*
X218940000Y-68749000D01*
X218940000Y-68749000D02*
X218940000Y-70649000D01*
X217040000Y-70649000D02*
X217040000Y-68749000D01*
%TO.C,C5*%
X196073767Y-55209000D02*
X195781233Y-55209000D01*
X196073767Y-54189000D02*
X195781233Y-54189000D01*
%TO.C,R5*%
X191944724Y-69821500D02*
X191435276Y-69821500D01*
X191944724Y-68776500D02*
X191435276Y-68776500D01*
%TO.C,U3*%
X216000000Y-75099000D02*
X216000000Y-73299000D01*
X212780000Y-73299000D02*
X212780000Y-75749000D01*
%TO.C,J1*%
X206735000Y-48604000D02*
X206735000Y-47274000D01*
X206735000Y-43404000D02*
X214475000Y-43404000D01*
X209335000Y-48604000D02*
X214475000Y-48604000D01*
X206735000Y-46004000D02*
X206735000Y-43404000D01*
X208065000Y-48604000D02*
X206735000Y-48604000D01*
X209335000Y-48604000D02*
X209335000Y-46004000D01*
X214475000Y-48604000D02*
X214475000Y-43404000D01*
X209335000Y-46004000D02*
X206735000Y-46004000D01*
%TO.C,TP8*%
X218840000Y-74649000D02*
X218840000Y-76549000D01*
X216940000Y-74649000D02*
X218840000Y-74649000D01*
X218840000Y-76549000D02*
X216940000Y-76549000D01*
X216940000Y-76549000D02*
X216940000Y-74649000D01*
%TO.C,C8*%
X196525000Y-78337748D02*
X196525000Y-78860252D01*
X195055000Y-78337748D02*
X195055000Y-78860252D01*
%TO.C,R11*%
X196712500Y-72244276D02*
X196712500Y-72753724D01*
X195667500Y-72244276D02*
X195667500Y-72753724D01*
%TO.C,TP3*%
X200840000Y-48449000D02*
X202740000Y-48449000D01*
X200840000Y-50349000D02*
X200840000Y-48449000D01*
X202740000Y-50349000D02*
X200840000Y-50349000D01*
X202740000Y-48449000D02*
X202740000Y-50349000D01*
%TO.C,TP4*%
X203440000Y-52049000D02*
X203440000Y-50149000D01*
X203440000Y-50149000D02*
X205340000Y-50149000D01*
X205340000Y-50149000D02*
X205340000Y-52049000D01*
X205340000Y-52049000D02*
X203440000Y-52049000D01*
%TO.C,C1*%
X199555000Y-54460252D02*
X199555000Y-53937748D01*
X201025000Y-54460252D02*
X201025000Y-53937748D01*
%TO.C,Q1*%
X193650000Y-61061500D02*
X193650000Y-61711500D01*
X193650000Y-61061500D02*
X193650000Y-59386500D01*
X190530000Y-61061500D02*
X190530000Y-60411500D01*
X190530000Y-61061500D02*
X190530000Y-61711500D01*
%TO.C,R7*%
X196244724Y-66021500D02*
X195735276Y-66021500D01*
X196244724Y-64976500D02*
X195735276Y-64976500D01*
%TO.C,R9*%
X209044724Y-68021500D02*
X208535276Y-68021500D01*
X209044724Y-66976500D02*
X208535276Y-66976500D01*
%TO.C,U1*%
X201380000Y-57289000D02*
X201080000Y-57289000D01*
X208000000Y-57289000D02*
X208300000Y-57289000D01*
X201380000Y-64509000D02*
X201080000Y-64509000D01*
X208000000Y-64509000D02*
X208300000Y-64509000D01*
X208300000Y-64509000D02*
X208300000Y-64209000D01*
X208300000Y-57289000D02*
X208300000Y-57589000D01*
X201080000Y-57589000D02*
X199765000Y-57589000D01*
X201080000Y-57289000D02*
X201080000Y-57589000D01*
X201080000Y-64509000D02*
X201080000Y-64209000D01*
%TO.C,C9*%
X214328748Y-66664000D02*
X214851252Y-66664000D01*
X214328748Y-68134000D02*
X214851252Y-68134000D01*
%TO.C,C12*%
X212551252Y-80664000D02*
X212028748Y-80664000D01*
X212551252Y-82134000D02*
X212028748Y-82134000D01*
%TO.C,D1*%
X218550000Y-55699000D02*
X218550000Y-56349000D01*
X215430000Y-55699000D02*
X215430000Y-55049000D01*
X215430000Y-55699000D02*
X215430000Y-57374000D01*
X218550000Y-55699000D02*
X218550000Y-55049000D01*
%TO.C,TP7*%
X218740000Y-73749000D02*
X216840000Y-73749000D01*
X218740000Y-71849000D02*
X218740000Y-73749000D01*
X216840000Y-71849000D02*
X218740000Y-71849000D01*
X216840000Y-73749000D02*
X216840000Y-71849000D01*
%TO.C,R10*%
X209244724Y-75921500D02*
X208735276Y-75921500D01*
X209244724Y-74876500D02*
X208735276Y-74876500D01*
%TO.C,TP1*%
X209040000Y-55149000D02*
X207140000Y-55149000D01*
X207140000Y-53249000D02*
X209040000Y-53249000D01*
X207140000Y-55149000D02*
X207140000Y-53249000D01*
X209040000Y-53249000D02*
X209040000Y-55149000D01*
%TO.C,D2*%
X215430000Y-60599000D02*
X215430000Y-62274000D01*
X215430000Y-60599000D02*
X215430000Y-59949000D01*
X218550000Y-60599000D02*
X218550000Y-61249000D01*
X218550000Y-60599000D02*
X218550000Y-59949000D01*
%TO.C,TP2*%
X203440000Y-52749000D02*
X205340000Y-52749000D01*
X203440000Y-54649000D02*
X203440000Y-52749000D01*
X205340000Y-54649000D02*
X203440000Y-54649000D01*
X205340000Y-52749000D02*
X205340000Y-54649000D01*
%TO.C,C7*%
X214328748Y-69164000D02*
X214851252Y-69164000D01*
X214328748Y-70634000D02*
X214851252Y-70634000D01*
%TO.C,R6*%
X195747776Y-66576500D02*
X196257224Y-66576500D01*
X195747776Y-67621500D02*
X196257224Y-67621500D01*
%TO.C,U4*%
X214600000Y-61299000D02*
X214600000Y-58849000D01*
X211380000Y-59499000D02*
X211380000Y-61299000D01*
%TO.C,TP5*%
X198440000Y-64749000D02*
X200340000Y-64749000D01*
X200340000Y-64749000D02*
X200340000Y-66649000D01*
X200340000Y-66649000D02*
X198440000Y-66649000D01*
X198440000Y-66649000D02*
X198440000Y-64749000D01*
%TO.C,U2*%
X192027500Y-74839000D02*
X192677500Y-74839000D01*
X192027500Y-77959000D02*
X191377500Y-77959000D01*
X192027500Y-74839000D02*
X191377500Y-74839000D01*
X192027500Y-77959000D02*
X193702500Y-77959000D01*
%TO.C,J3*%
X199165000Y-46029000D02*
X197835000Y-46029000D01*
X200435000Y-46029000D02*
X205575000Y-46029000D01*
X197835000Y-46029000D02*
X197835000Y-44699000D01*
X200435000Y-43369000D02*
X205575000Y-43369000D01*
X200435000Y-46029000D02*
X200435000Y-43369000D01*
X205575000Y-46029000D02*
X205575000Y-43369000D01*
%TO.C,C11*%
X197178748Y-76309000D02*
X198601252Y-76309000D01*
X197178748Y-74489000D02*
X198601252Y-74489000D01*
%TO.C,C6*%
X191728748Y-80234000D02*
X192251252Y-80234000D01*
X191728748Y-78764000D02*
X192251252Y-78764000D01*
%TO.C,Q2*%
X190130000Y-65999000D02*
X190130000Y-66649000D01*
X193250000Y-65999000D02*
X193250000Y-64324000D01*
X193250000Y-65999000D02*
X193250000Y-66649000D01*
X190130000Y-65999000D02*
X190130000Y-65349000D01*
%TO.C,C3*%
X196176252Y-63534000D02*
X195653748Y-63534000D01*
X196176252Y-62064000D02*
X195653748Y-62064000D01*
%TO.C,R1*%
X191835276Y-58021500D02*
X192344724Y-58021500D01*
X191835276Y-56976500D02*
X192344724Y-56976500D01*
%TO.C,R3*%
X212835276Y-53676500D02*
X213344724Y-53676500D01*
X212835276Y-54721500D02*
X213344724Y-54721500D01*
%TO.C,Y1*%
X197265000Y-57224000D02*
X197265000Y-58574000D01*
X195515000Y-57224000D02*
X195515000Y-58574000D01*
%TO.C,R8*%
X209079724Y-69602500D02*
X208570276Y-69602500D01*
X209079724Y-70647500D02*
X208570276Y-70647500D01*
%TO.C,R2*%
X212835276Y-56921500D02*
X213344724Y-56921500D01*
X212835276Y-55876500D02*
X213344724Y-55876500D01*
%TO.C,Q3*%
X209090000Y-71139000D02*
X209740000Y-71139000D01*
X209090000Y-74259000D02*
X208440000Y-74259000D01*
X209090000Y-74259000D02*
X209740000Y-74259000D01*
X209090000Y-71139000D02*
X207415000Y-71139000D01*
%TD*%
M02*
